<?xml version="1.0" encoding="UTF-8" standalone="no"?>
<!-- Created with Inkscape (http://www.inkscape.org/) -->

<svg
   xmlns:dc="http://purl.org/dc/elements/1.1/"
   xmlns:cc="http://creativecommons.org/ns#"
   xmlns:rdf="http://www.w3.org/1999/02/22-rdf-syntax-ns#"
   xmlns:svg="http://www.w3.org/2000/svg"
   xmlns="http://www.w3.org/2000/svg"
   xmlns:sodipodi="http://sodipodi.sourceforge.net/DTD/sodipodi-0.dtd"
   xmlns:inkscape="http://www.inkscape.org/namespaces/inkscape"
   width="700"
   height="700"
   id="svg2"
   version="1.1"
   inkscape:version="0.48.2 r9819"
   sodipodi:docname="palettePull.svg"
   inkscape:export-filename="/Users/avenix/Desktop/palettePull@2x.png"
   inkscape:export-xdpi="16.283194"
   inkscape:export-ydpi="16.283194">
  <defs
     id="defs4" />
  <sodipodi:namedview
     id="base"
     pagecolor="#ffffff"
     bordercolor="#666666"
     borderopacity="1.0"
     inkscape:pageopacity="0.0"
     inkscape:pageshadow="2"
     inkscape:zoom="0.7"
     inkscape:cx="109.28572"
     inkscape:cy="348.57143"
     inkscape:document-units="px"
     inkscape:current-layer="layer1"
     showgrid="false"
     inkscape:window-width="1531"
     inkscape:window-height="897"
     inkscape:window-x="26"
     inkscape:window-y="27"
     inkscape:window-maximized="0" />
  <metadata
     id="metadata7">
    <rdf:RDF>
      <cc:Work
         rdf:about="">
        <dc:format>image/svg+xml</dc:format>
        <dc:type
           rdf:resource="http://purl.org/dc/dcmitype/StillImage" />
        <dc:title />
      </cc:Work>
    </rdf:RDF>
  </metadata>
  <g
     inkscape:label="Layer 1"
     inkscape:groupmode="layer"
     id="layer1"
     transform="translate(0,-352.36218)">
    <g
       id="g3761"
       transform="matrix(1,0,0,0.77038915,-2,162.70477)">
      <path
         inkscape:connector-curvature="0"
         id="rect2985"
         d="m 273.27878,864.40912 c -0.12566,-130.94851 0.25135,-261.89746 -0.18855,-392.84563 -6.40086,-26.68375 -41.55333,-28.05948 -62.54176,-19.24688 -19.50511,9.03361 -14.89784,32.24938 -14.96183,49.52418 0.11429,121.96939 -0.36105,243.9397 0.25624,365.90832 8.30034,30.22223 55.12988,33.03052 72.97073,10.38813 2.77918,-4.00925 4.43875,-8.83112 4.46517,-13.72812 z"
         style="fill:#ffffff;fill-opacity:1;fill-rule:nonzero;stroke:none" />
      <path
         inkscape:connector-curvature="0"
         id="path3754"
         d="m 557.56471,864.40912 c -0.12566,-130.94851 0.25135,-261.89746 -0.18855,-392.84563 -6.40086,-26.68375 -41.55333,-28.05948 -62.54176,-19.24688 -19.50511,9.03361 -14.89785,32.24938 -14.96184,49.52418 0.11429,121.96939 -0.36105,243.9397 0.25624,365.90832 8.29891,30.22089 55.13337,33.03319 72.96933,10.3867 2.77761,-4.00904 4.44683,-8.82877 4.46658,-13.72669 z"
         style="fill:#ffffff;fill-opacity:1;fill-rule:nonzero;stroke:none" />
      <path
         inkscape:connector-curvature="0"
         id="path3756"
         d="m 415.42176,864.40914 c -0.12566,-130.94853 0.25135,-261.89748 -0.18855,-392.84565 -6.40085,-26.68375 -41.55333,-28.05948 -62.54175,-19.24688 -19.50511,9.03361 -14.89785,32.24938 -14.96184,49.52418 0.11429,121.96939 -0.36105,243.9397 0.25624,365.90835 8.2989,30.2209 55.13336,33.0331 72.96932,10.3867 2.77761,-4.0091 4.44683,-8.8288 4.46658,-13.7267 z"
         style="fill:#ffffff;fill-opacity:1;fill-rule:nonzero;stroke:none" />
    </g>
    <path
       style="fill:none;stroke:#ffffff;stroke-width:20;stroke-linecap:butt;stroke-linejoin:miter;stroke-miterlimit:4;stroke-opacity:1;stroke-dasharray:none"
       d="M 70,85.714281 571.42857,90 c 106.46532,0.909961 121.09932,459.06726 0,462.85714 L 70,552.85715"
       id="path2991"
       inkscape:connector-curvature="0"
       transform="translate(0,352.36218)"
       sodipodi:nodetypes="cscc" />
  </g>
</svg>
