<?xml version="1.0" encoding="utf-8"?>
<!-- Generator: Adobe Illustrator 16.0.4, SVG Export Plug-In . SVG Version: 6.00 Build 0)  -->
<!DOCTYPE svg PUBLIC "-//W3C//DTD SVG 1.1//EN" "http://www.w3.org/Graphics/SVG/1.1/DTD/svg11.dtd">
<svg version="1.1" id="Ebene_2" xmlns="http://www.w3.org/2000/svg" xmlns:xlink="http://www.w3.org/1999/xlink" x="0px" y="0px"
	 width="526.909px" height="560px" viewBox="0 0 526.909 560" enable-background="new 0 0 526.909 560" xml:space="preserve">
<g>
	<path fill="#FFFFFF" stroke="#000000" stroke-width="3.1438" stroke-miterlimit="10" d="M110.353,549.569
		c0,0,120.511,7.335,149.854,7.335s128.897-2.098,159.287-7.335L407.964,30.844c0,0-50.299-25.149-79.642-27.246
		c-11.528,17.814-41.916,16.766-63.399,16.766s-59.208-2.094-63.4-16.766c-24.102,4.191-81.739,23.054-81.739,23.054
		S111.401,526.515,110.353,549.569z"/>
	<path fill="#FFFFFF" stroke="#000000" stroke-width="3.1438" stroke-miterlimit="10" d="M112.996,418.568
		c-0.849,46.094-21.506,119.474-21.506,119.474s10.753,4.071,18.862,3.929"/>
	<path fill="#FFFFFF" stroke="#000000" stroke-width="3.1438" stroke-miterlimit="10" d="M416.954,435.354
		c0.698,31.422,19.305,103.154,19.305,103.154s-1.489,2.882-16.766,3.463"/>
	<g>
		<g>
			<path fill="none" stroke="#000000" stroke-width="3.1458" stroke-miterlimit="10" d="M344.042,5.168
				c0,1.506-0.014,2.992-0.041,4.456"/>
			<path fill="none" stroke="#000000" stroke-width="3.1458" stroke-miterlimit="10" stroke-dasharray="8.7603,8.7603" d="
				M343.664,18.379c-4.689,79.32-51.904,91.804-80.633,91.804c-33.975,0-74.241-18.722-77.069-96.18"/>
			<path fill="none" stroke="#000000" stroke-width="3.1458" stroke-miterlimit="10" d="M185.843,9.625
				c-0.026-1.465-0.04-2.95-0.04-4.456"/>
		</g>
	</g>
	<path fill="none" stroke="#000000" stroke-width="3.1438" stroke-miterlimit="10" d="M201.523,3.598
		c0,25.081,1.816,89.296,61.508,89.296s65.292-59.208,65.292-89.296"/>
	<path fill="none" stroke="#000000" stroke-width="3.1458" stroke-miterlimit="10" stroke-dasharray="8.9115" d="M328.322,19.317
		c-11.528,17.814-41.916,16.766-63.399,16.766s-59.208-2.094-63.4-16.766"/>
	<path fill="#FFFFFF" stroke="#000000" stroke-width="3.1438" stroke-miterlimit="10" d="M119.784,26.652
		C100.921,46.038,4.25,177.292,4.25,177.292l75.451,62.089c0,0,52.659-61.303,55.802-92.741
		c3.144-31.438,0.884-92.291-6.017-109.509C125.286,26.652,119.784,26.652,119.784,26.652z"/>
	<path fill="#FFFFFF" stroke="#000000" stroke-width="3.1438" stroke-miterlimit="10" d="M408.045,29.795
		C426.909,49.182,523.58,180.435,523.58,180.435l-75.451,62.09c0,0-52.659-61.303-55.802-92.742
		c-3.144-31.438-0.884-92.291,6.017-109.509C402.544,29.795,408.045,29.795,408.045,29.795z"/>
	
		<line fill="none" stroke="#000000" stroke-width="3.1458" stroke-miterlimit="10" stroke-dasharray="8.9115" x1="13.216" y1="165.158" x2="89.5" y2="227.395"/>
	
		<line fill="none" stroke="#000000" stroke-width="3.1458" stroke-miterlimit="10" stroke-dasharray="8.9115" x1="435.719" y1="228.066" x2="512.564" y2="166.636"/>
	<path fill="none" stroke="#000000" stroke-width="6" stroke-miterlimit="10" d="M110.377,545.209
		c-0.096,3.788,0.03,3.132-0.025,4.36c0,0,120.265,7.334,149.607,7.334c29.342,0,126.04-2.095,159.04-7.334v-7.599
		c16-0.581,17.013-3.464,17.013-3.464s-18.47-71.675-19.181-103.118l-5.319-242.12c16.163,25.511,36.585,49.255,36.585,49.255
		l75.467-62.09c0,0-96.665-131.253-115.527-150.639c0,0-0.571,0.006-1.486,0.356c-8.304-4.042-51.777-24.664-78.231-26.553
		c-11.528,17.814-41.914,16.766-63.398,16.766c-21.483,0-59.208-2.094-63.401-16.766c-24.102,4.191-81.737,23.054-81.737,23.054
		C100.921,46.038,4.25,177.292,4.25,177.292l75.451,62.089c0,0,19.553-24.514,35.83-50.487C114.266,262.597,113,352.186,110,421.849
		v-0.101c0,46.094-20.006,119.436-20.006,119.436S102.268,545.354,110.377,545.209z"/>
</g>
</svg>
