<?xml version="1.0" encoding="UTF-8" standalone="no"?>
<!-- Generator: Adobe Illustrator 16.0.0, SVG Export Plug-In . SVG Version: 6.00 Build 0)  -->

<svg
   xmlns:dc="http://purl.org/dc/elements/1.1/"
   xmlns:cc="http://creativecommons.org/ns#"
   xmlns:rdf="http://www.w3.org/1999/02/22-rdf-syntax-ns#"
   xmlns:svg="http://www.w3.org/2000/svg"
   xmlns="http://www.w3.org/2000/svg"
   xmlns:sodipodi="http://sodipodi.sourceforge.net/DTD/sodipodi-0.dtd"
   xmlns:inkscape="http://www.inkscape.org/namespaces/inkscape"
   version="1.1"
   id="Ebene_1"
   x="0px"
   y="0px"
   width="50"
   height="50"
   viewBox="0 0 49.999999 49.999999"
   enable-background="new 0 0 21.6 44.221"
   xml:space="preserve"
   inkscape:version="0.48.2 r9819"
   sodipodi:docname="button.svg"
   inkscape:export-filename="/Users/avenix/Desktop/palette_button.png"
   inkscape:export-xdpi="100.26459"
   inkscape:export-ydpi="100.26459"><metadata
   id="metadata108"><rdf:RDF><cc:Work
       rdf:about=""><dc:format>image/svg+xml</dc:format><dc:type
         rdf:resource="http://purl.org/dc/dcmitype/StillImage" /><dc:title></dc:title></cc:Work></rdf:RDF></metadata><defs
   id="defs106" /><sodipodi:namedview
   pagecolor="#ffffff"
   bordercolor="#666666"
   borderopacity="1"
   objecttolerance="10"
   gridtolerance="10"
   guidetolerance="10"
   inkscape:pageopacity="0"
   inkscape:pageshadow="2"
   inkscape:window-width="640"
   inkscape:window-height="480"
   id="namedview104"
   showgrid="false"
   inkscape:zoom="5.3368308"
   inkscape:cx="10.8"
   inkscape:cy="22.1105"
   inkscape:window-x="1753"
   inkscape:window-y="268"
   inkscape:window-maximized="0"
   inkscape:current-layer="Ebene_1" />
<desc
   id="desc3">Fritzing breadboard generated by brd2svg</desc>
<g
   id="breadboardbreadboard"
   transform="matrix(0,1,-1,0,46.59003,15.215728)">
	<g
   id="icon">
		<path
   d="M 21.572,10.771 C 21.572,4.823 16.749,0 10.8,0 4.851,0 0.029,4.823 0.029,10.771 v 22.68 c 0,5.946 4.822,10.771 10.771,10.771 5.949,0 10.771,-4.822 10.771,-10.771 l 10e-4,-22.68 M 6.973,8.812 c 0,-2.11 1.713,-3.827 3.826,-3.828 2.114,0 3.828,1.716 3.828,3.827 0,0 0,0 0,10e-4 0,2.113 -1.713,3.827 -3.827,3.827 -2.113,0 -3.827,-1.713 -3.827,-3.827 l 0,0 z m 0,26.594 c 0,-2.113 1.713,-3.827 3.826,-3.827 2.114,-0.001 3.828,1.712 3.828,3.826 0,0 0,0 0,10e-4 0,2.11 -1.713,3.824 -3.827,3.824 -2.113,0.003 -3.827,-1.709 -3.827,-3.824 0,10e-4 0,10e-4 0,0 z"
   id="path7"
   inkscape:connector-curvature="0"
   style="fill:#b0938f" />
		<path
   d="m 10.8,1.611 c -5.516,0 -9.987,4.472 -9.987,9.986 v 21.028 c 0,5.514 4.471,9.986 9.987,9.986 5.516,0 9.986,-4.471 9.986,-9.986 l 10e-4,-21.028 c 0,-5.514 -4.471,-9.986 -9.987,-9.986 z m 3.827,33.795 c 0,2.11 -1.713,3.824 -3.827,3.824 -2.113,0.002 -3.827,-1.71 -3.827,-3.824 0,-2.113 1.713,-3.827 3.826,-3.827 2.114,-0.001 3.828,1.712 3.828,3.827 0,0 0,0 0,0 z m 0,-26.594 c 0,2.113 -1.713,3.827 -3.827,3.827 -2.113,0 -3.827,-1.713 -3.827,-3.827 0,-2.11 1.713,-3.827 3.826,-3.828 2.114,0 3.828,1.715 3.828,3.828 0,-10e-4 0,-10e-4 0,0 z"
   id="path9"
   inkscape:connector-curvature="0"
   style="fill:#672e58" />
		<g
   id="g11">
			<title
   id="title13">layer 21</title>
			<g
   id="g15">
				<title
   id="title17">text:-</title>
				<text
   transform="translate(1.8586,14.0491)"
   font-size="4.6771"
   id="text19"
   style="font-size:4.67710018px;fill:#ffffff;font-family:OCRA">-</text>


			</g>
			<g
   id="g21">
				<title
   id="title23">text:S</title>
				<text
   transform="translate(16.9211,33.9905)"
   font-size="4.6771"
   id="text25"
   style="font-size:4.67710018px;fill:#ffffff;font-family:OCRA">S</text>


			</g>
			<g
   id="g27">
				<title
   id="title29">element:BUTTON-</title>
				<g
   id="g31">
					<title
   id="title33">package:PETAL-MEDIUM-2SIDE</title>
				</g>
			</g>
			<g
   id="g35">
				<title
   id="title37">element:BUTTONS</title>
				<g
   id="g39">
					<title
   id="title41">package:PETAL-MEDIUM-2SIDE</title>
				</g>
			</g>
			<g
   id="g43">
				<title
   id="title45">element:LOGO1</title>
				<g
   id="g47">
					<title
   id="title49">package:LOGO-L</title>
				</g>
			</g>
			<g
   id="g51">
				<title
   id="title53">element:S1</title>
				<g
   id="g55">
					<title
   id="title57">package:TACTILE_SWITCH_SMD</title>
					
						<line
   x1="17.639999"
   y1="18.594999"
   x2="17.639999"
   y2="25.709999"
   id="line59"
   style="fill:none;stroke:#ffffff;stroke-width:0.57599998;stroke-linecap:round" />
					
						<line
   x1="14.805"
   y1="29.311001"
   x2="6.0739999"
   y2="29.311001"
   id="line61"
   style="fill:none;stroke:#ffffff;stroke-width:0.57599998;stroke-linecap:round" />
					
						<line
   x1="3.24"
   y1="25.625"
   x2="3.24"
   y2="18.594999"
   id="line63"
   style="fill:none;stroke:#ffffff;stroke-width:0.57599998;stroke-linecap:round" />
					
						<line
   x1="6.0739999"
   y1="14.91"
   x2="14.805"
   y2="14.91"
   id="line65"
   style="fill:none;stroke:#ffffff;stroke-width:0.57599998;stroke-linecap:round" />
					<circle
   cx="10.44"
   cy="22.110001"
   r="3.5999999"
   id="circle67"
   sodipodi:cx="10.44"
   sodipodi:cy="22.110001"
   sodipodi:rx="3.5999999"
   sodipodi:ry="3.5999999"
   style="fill:none;stroke:#ffffff;stroke-width:0.57599998"
   d="m 14.039999,22.110001 c 0,1.988225 -1.611774,3.6 -3.599999,3.6 -1.9882255,0 -3.6000003,-1.611775 -3.6000003,-3.6 0,-1.988225 1.6117748,-3.6 3.6000003,-3.6 1.988225,0 3.599999,1.611775 3.599999,3.6 z" />
				</g>
			</g>
		</g>
		<path
   d="m 0.961,33.825 c 0,2.208 4.405,3.998 9.839,3.998 5.435,0 9.839,-1.79 9.839,-3.998 0,5.351 -4.404,9.688 -9.839,9.688 -5.434,0 -9.839,-4.337 -9.839,-9.688 z"
   id="path69"
   inkscape:connector-curvature="0"
   style="fill:#ffffff" />
		<path
   d="m 20.639,10.425 c 0,-2.208 -4.404,-3.998 -9.839,-3.998 -5.435,0 -9.839,1.79 -9.839,3.998 0,-5.351 4.404,-9.688 9.839,-9.688 5.435,0 9.839,4.337 9.839,9.688 z"
   id="path71"
   inkscape:connector-curvature="0"
   style="fill:#ffffff" />
		<g
   id="connector0pin">
			<path
   d="m 10.8,6.08 c 1.482,0 2.688,1.206 2.688,2.688 0,1.482 -1.204,2.689 -2.688,2.689 -1.484,0 -2.688,-1.207 -2.688,-2.689 0,-1.482 1.206,-2.688 2.688,-2.688 m 0,-1.195 c -2.146,0 -3.884,1.739 -3.884,3.884 0,2.146 1.738,3.884 3.884,3.884 2.145,0 3.883,-1.738 3.883,-3.884 0,-2.145 -1.738,-3.884 -3.883,-3.884 l 0,0 z"
   id="path74"
   inkscape:connector-curvature="0"
   style="fill:#9a916c" />
		</g>
		<g
   id="connector1pin">
			<path
   d="m 10.8,32.75 c 1.482,0 2.688,1.206 2.688,2.688 0,1.483 -1.205,2.689 -2.688,2.689 -1.483,0 -2.688,-1.206 -2.688,-2.689 0,-1.482 1.206,-2.688 2.688,-2.688 m 0,-1.195 c -2.146,0 -3.883,1.739 -3.883,3.884 0,2.146 1.737,3.886 3.883,3.886 2.146,0 3.884,-1.739 3.884,-3.886 0,-2.145 -1.738,-3.884 -3.884,-3.884 l 0,0 z"
   id="path77"
   inkscape:connector-curvature="0"
   style="fill:#9a916c" />
		</g>
	</g>
	<g
   id="tactile_switch_smd"
   transform="translate(2.27748,13.9143)">
		<g
   transform="matrix(-1,0,0,-1,16.392,16.392)"
   id="g80">
			<polygon
   points="1.142,12.976 3.415,15.25 12.978,15.25 15.25,12.976 15.25,3.413 12.978,1.141 3.415,1.141 1.142,3.413 "
   id="polygon82"
   style="fill:#6d6d6d" />
			<rect
   x="3.415"
   y="0.001"
   width="9.5620003"
   height="16.392"
   id="rect84"
   style="fill:#6d6d6d" />
			<rect
   x="0"
   y="3.4130001"
   width="16.392"
   height="9.5629997"
   id="rect86"
   style="fill:#6d6d6d" />
			<polygon
   points="1.827,12.513 3.879,14.565 12.513,14.565 14.566,12.513 14.566,3.878 12.513,1.826 3.879,1.826 1.827,3.878 "
   id="polygon88"
   style="fill:#7f7f7f" />
			
				<polyline
   stroke-miterlimit="10"
   enable-background="new    "
   points="     4.105,2.16 2.161,4.103 2.161,12.287 4.105,14.232 12.288,14.232    "
   id="polyline90"
   style="opacity:0.2;fill:none;stroke:#ffffff;stroke-width:0.2369;stroke-miterlimit:10" />
			
				<polyline
   stroke-miterlimit="10"
   enable-background="new    "
   points="     12.289,14.232 14.233,12.288 14.233,4.105 12.289,2.16 4.106,2.16    "
   id="polyline92"
   style="opacity:0.2;fill:none;stroke:#606060;stroke-width:0.2369;stroke-miterlimit:10" />
			<g
   id="g94">
				<path
   d="m 8.196,11.923 c -2.055,0 -3.727,-1.672 -3.727,-3.728 0,-2.055 1.672,-3.729 3.727,-3.729 2.057,0 3.729,1.672 3.729,3.729 -0.003,2.056 -1.675,3.728 -3.729,3.728 z"
   id="path96"
   inkscape:connector-curvature="0"
   style="fill:#bca16a" />
				<path
   d="m 8.196,4.719 c 1.92,0 3.479,1.557 3.479,3.478 0,1.92 -1.559,3.478 -3.479,3.478 -1.92,0 -3.477,-1.558 -3.477,-3.478 0,-1.922 1.557,-3.478 3.477,-3.478 m 0,-0.5 c -2.191,0 -3.977,1.783 -3.977,3.978 0,2.192 1.784,3.978 3.977,3.978 2.193,0 3.979,-1.784 3.979,-3.978 C 12.172,6.003 10.388,4.219 8.196,4.219 l 0,0 z"
   id="path98"
   inkscape:connector-curvature="0"
   style="fill:#606060" />
			</g>
			
				<path
   stroke-miterlimit="10"
   enable-background="new    "
   d="m 10.39,10.389 c -1.212,1.212 -3.177,1.212 -4.389,0 -1.212,-1.213 -1.212,-3.177 0,-4.39"
   id="path100"
   inkscape:connector-curvature="0"
   style="opacity:0.2;fill:#bca16a;stroke:#ffffff;stroke-width:0.53039998;stroke-miterlimit:10" />
			
				<path
   stroke-miterlimit="10"
   enable-background="new    "
   d="m 6.001,5.999 c 1.212,-1.213 3.177,-1.213 4.389,0 1.212,1.213 1.212,3.177 0,4.39"
   id="path102"
   inkscape:connector-curvature="0"
   style="opacity:0.2;fill:#bca16a;stroke:#606060;stroke-width:0.53039998;stroke-miterlimit:10" />
		</g>
	</g>
</g>
</svg>