<?xml version="1.0" encoding="UTF-8" standalone="no"?>
<!-- Generator: Adobe Illustrator 16.0.0, SVG Export Plug-In . SVG Version: 6.00 Build 0)  -->

<svg
   xmlns:dc="http://purl.org/dc/elements/1.1/"
   xmlns:cc="http://creativecommons.org/ns#"
   xmlns:rdf="http://www.w3.org/1999/02/22-rdf-syntax-ns#"
   xmlns:svg="http://www.w3.org/2000/svg"
   xmlns="http://www.w3.org/2000/svg"
   xmlns:sodipodi="http://sodipodi.sourceforge.net/DTD/sodipodi-0.dtd"
   xmlns:inkscape="http://www.inkscape.org/namespaces/inkscape"
   version="1.1"
   id="Ebene_1"
   x="0px"
   y="0px"
   width="141.732px"
   height="142.008px"
   viewBox="0 0 141.732 142.008"
   enable-background="new 0 0 141.732 142.008"
   xml:space="preserve"
   inkscape:version="0.48.2 r9819"
   sodipodi:docname="LilyBLEFritzing.svg"
   inkscape:export-filename="/Users/avenix/Desktop/palette_LilyBLEFritzing.png"
   inkscape:export-xdpi="31.688356"
   inkscape:export-ydpi="31.688356"><metadata
   id="metadata1085"><rdf:RDF><cc:Work
       rdf:about=""><dc:format>image/svg+xml</dc:format><dc:type
         rdf:resource="http://purl.org/dc/dcmitype/StillImage" /><dc:title></dc:title></cc:Work></rdf:RDF></metadata><defs
   id="defs1083" /><sodipodi:namedview
   pagecolor="#ffffff"
   bordercolor="#666666"
   borderopacity="1"
   objecttolerance="10"
   gridtolerance="10"
   guidetolerance="10"
   inkscape:pageopacity="0"
   inkscape:pageshadow="2"
   inkscape:window-width="1167"
   inkscape:window-height="830"
   id="namedview1081"
   showgrid="false"
   inkscape:zoom="3.3237565"
   inkscape:cx="70.865997"
   inkscape:cy="71.003998"
   inkscape:window-x="1593"
   inkscape:window-y="62"
   inkscape:window-maximized="0"
   inkscape:current-layer="Ebene_1" />
<path
   fill="#454545"
   d="M70.866,0.138C31.728,0.138,0,31.866,0,71.004c0,39.139,31.728,70.866,70.866,70.866  s70.866-31.728,70.866-70.866C141.732,31.866,110.005,0.138,70.866,0.138z M25.915,23.77c1.47-1.398,3.004-2.729,4.599-3.988  c0.867-0.684,2.073-0.46,2.67,0.468l3.994,6.213c0.598,0.929,0.367,2.222-0.486,2.924c-0.733,0.603-1.45,1.224-2.15,1.864  c-0.815,0.745-2.128,0.79-2.962,0.066l-5.58-4.837C25.165,25.757,25.115,24.531,25.915,23.77z M14.4,38.377  c1.03-1.779,2.144-3.503,3.332-5.171c0.641-0.899,1.862-1.024,2.696-0.301l5.576,4.833c0.834,0.724,0.976,2.029,0.354,2.941  c-0.544,0.798-1.066,1.611-1.567,2.439c-0.572,0.945-1.819,1.358-2.824,0.899l-6.722-3.066C14.24,40.494,13.847,39.333,14.4,38.377z   M7.513,55.566c0.481-1.978,1.053-3.92,1.71-5.824c0.36-1.044,1.495-1.508,2.5-1.05l6.702,3.058c1.005,0.458,1.509,1.67,1.173,2.723  c-0.287,0.897-0.55,1.806-0.79,2.724c-0.28,1.068-1.359,1.816-2.452,1.659L9.05,57.803C7.957,57.645,7.252,56.64,7.513,55.566z   M5.754,74.073c-0.053-1.017-0.084-2.039-0.084-3.069s0.031-2.053,0.084-3.07c0.058-1.103,1.016-1.867,2.109-1.71l7.286,1.05  c1.093,0.157,1.927,1.055,1.892,2.006c-0.021,0.572-0.033,1.147-0.033,1.725s0.012,1.152,0.033,1.725  c0.035,0.951-0.799,1.849-1.892,2.006l-7.286,1.05C6.77,75.941,5.812,75.177,5.754,74.073z M9.223,92.266  c-0.657-1.903-1.229-3.846-1.71-5.824c-0.261-1.073,0.444-2.078,1.538-2.235l7.305-1.053c1.093-0.157,2.172,0.589,2.452,1.658  c0.24,0.917,0.503,1.825,0.79,2.723c0.336,1.052-0.168,2.265-1.173,2.723l-6.702,3.059C10.718,93.773,9.583,93.31,9.223,92.266z   M20.429,109.102c-0.834,0.724-2.055,0.6-2.696-0.3c-1.188-1.667-2.301-3.392-3.331-5.171c-0.554-0.956-0.161-2.118,0.844-2.576  l6.721-3.066c1.005-0.458,2.252-0.045,2.824,0.899c0.502,0.828,1.024,1.642,1.568,2.439c0.622,0.913,0.48,2.218-0.354,2.941  L20.429,109.102z M37.179,115.545l-3.995,6.213c-0.597,0.93-1.803,1.152-2.67,0.468c-1.595-1.258-3.129-2.589-4.599-3.987  c-0.8-0.762-0.75-1.988,0.085-2.711l5.578-4.837c0.835-0.723,2.147-0.679,2.963,0.066c0.7,0.64,1.417,1.262,2.15,1.864  C37.545,113.322,37.775,114.615,37.179,115.545z M51.103,123.244l-2.081,7.092c-0.312,1.06-1.405,1.614-2.431,1.203  c-1.904-0.766-3.763-1.621-5.573-2.557c-0.981-0.507-1.278-1.697-0.681-2.627l3.987-6.202c0.598-0.93,1.868-1.256,2.861-0.771  c0.861,0.421,1.737,0.819,2.624,1.195C50.827,121.009,51.414,122.185,51.103,123.244z M49.811,21.43  c-0.888,0.375-1.763,0.774-2.624,1.195c-0.993,0.485-2.265,0.159-2.861-0.77l-3.988-6.202c-0.597-0.929-0.3-2.12,0.681-2.627  c1.811-0.936,3.669-1.791,5.574-2.556c1.025-0.412,2.119,0.143,2.431,1.203l2.08,7.092C51.414,19.823,50.827,20.999,49.811,21.43z   M66.614,134.049c0,1.104-0.893,1.945-1.992,1.841c-2.042-0.194-4.056-0.482-6.038-0.859c-1.085-0.207-1.707-1.264-1.396-2.323  l2.072-7.063c0.312-1.06,1.438-1.732,2.528-1.551c0.937,0.157,1.882,0.289,2.834,0.396c1.098,0.124,1.991,1.086,1.991,2.19V134.049z   M66.614,15.328c0,1.104-0.895,2.066-1.991,2.19c-0.952,0.108-1.896,0.24-2.833,0.396c-1.089,0.183-2.217-0.491-2.528-1.55  l-2.072-7.062c-0.312-1.06,0.31-2.117,1.395-2.323c1.982-0.377,3.995-0.666,6.037-0.859c1.1-0.104,1.993,0.737,1.993,1.841V15.328z   M132.511,49.743c0.656,1.903,1.229,3.845,1.71,5.824c0.261,1.073-0.445,2.079-1.538,2.236l-7.306,1.052  c-1.093,0.158-2.172-0.59-2.452-1.659c-0.24-0.918-0.503-1.827-0.79-2.725c-0.337-1.052,0.168-2.263,1.173-2.722l6.703-3.058  C131.016,48.234,132.15,48.698,132.511,49.743z M121.305,32.906c0.834-0.724,2.056-0.598,2.696,0.301  c1.188,1.667,2.301,3.391,3.33,5.169c0.554,0.956,0.161,2.118-0.844,2.576l-6.721,3.067c-1.005,0.458-2.252,0.045-2.824-0.899  c-0.501-0.828-1.023-1.641-1.567-2.438c-0.622-0.913-0.481-2.218,0.353-2.942L121.305,32.906z M104.555,26.463l3.994-6.213  c0.597-0.929,1.803-1.152,2.67-0.468c1.595,1.258,3.129,2.589,4.599,3.987c0.8,0.762,0.75,1.987-0.084,2.711l-5.58,4.837  c-0.834,0.724-2.146,0.679-2.961-0.066c-0.7-0.64-1.418-1.262-2.151-1.865C104.188,28.686,103.957,27.392,104.555,26.463z   M90.63,18.764l2.08-7.092c0.312-1.06,1.406-1.615,2.431-1.203c1.905,0.766,3.764,1.621,5.573,2.556  c0.981,0.507,1.278,1.698,0.682,2.627l-3.988,6.202c-0.597,0.929-1.868,1.255-2.86,0.771c-0.862-0.421-1.737-0.82-2.625-1.195  C90.905,20.999,90.318,19.823,90.63,18.764z M75.118,7.96c0-1.104,0.895-1.946,1.994-1.841c2.041,0.194,4.054,0.482,6.036,0.859  c1.085,0.207,1.706,1.264,1.395,2.323l-2.072,7.062c-0.312,1.06-1.44,1.732-2.53,1.55c-0.936-0.157-1.88-0.288-2.831-0.396  c-1.098-0.124-1.991-1.085-1.991-2.19V7.96z M83.148,135.03c-1.982,0.377-3.995,0.665-6.037,0.859  c-1.1,0.104-1.993-0.736-1.993-1.841v-7.369c0-1.104,0.895-2.066,1.992-2.19c0.951-0.107,1.896-0.239,2.832-0.396  c1.09-0.183,2.218,0.49,2.529,1.55l2.072,7.063C84.855,133.767,84.233,134.823,83.148,135.03z M100.716,128.982  c-1.812,0.936-3.67,1.791-5.574,2.557c-1.025,0.412-2.119-0.144-2.431-1.203l-2.081-7.092c-0.312-1.06,0.275-2.235,1.293-2.666  c0.887-0.376,1.762-0.774,2.624-1.195c0.992-0.484,2.264-0.159,2.861,0.771l3.987,6.202  C101.993,127.285,101.696,128.476,100.716,128.982z M115.817,118.238c-1.47,1.398-3.004,2.729-4.599,3.988  c-0.867,0.684-2.073,0.461-2.67-0.469l-3.995-6.213c-0.597-0.93-0.365-2.223,0.487-2.924c0.733-0.604,1.45-1.225,2.15-1.864  c0.815-0.745,2.128-0.789,2.963-0.066l5.578,4.837C116.567,116.25,116.617,117.477,115.817,118.238z M127.333,103.63  c-1.03,1.779-2.144,3.504-3.332,5.171c-0.641,0.899-1.862,1.024-2.696,0.302l-5.577-4.834c-0.834-0.724-0.976-2.029-0.353-2.942  c0.543-0.798,1.065-1.611,1.567-2.438c0.572-0.944,1.819-1.357,2.824-0.899l6.722,3.066  C127.493,101.513,127.887,102.675,127.333,103.63z M134.22,86.442c-0.48,1.979-1.053,3.92-1.709,5.823  c-0.36,1.044-1.495,1.508-2.5,1.05l-6.703-3.059c-1.005-0.458-1.509-1.671-1.173-2.723c0.287-0.897,0.55-1.805,0.79-2.723  c0.28-1.068,1.359-1.815,2.452-1.658l7.306,1.053C133.775,84.363,134.481,85.369,134.22,86.442z M133.869,75.784l-7.286-1.05  c-1.093-0.157-1.927-1.055-1.892-2.006c0.021-0.572,0.033-1.147,0.033-1.725s-0.012-1.152-0.033-1.725  c-0.035-0.951,0.799-1.849,1.892-2.006l7.286-1.05c1.093-0.157,2.052,0.607,2.109,1.71c0.054,1.018,0.085,2.04,0.085,3.07  s-0.031,2.053-0.085,3.07C135.921,75.177,134.962,75.941,133.869,75.784z"
   id="path3" />
<g
   id="Pads_beschnitten">
	<path
   fill="#EFEEEE"
   d="M9.223,49.742c0.36-1.044,1.495-1.508,2.5-1.05l6.702,3.058c0.095,0.043,0.182,0.1,0.267,0.156   c0.988-2.703,2.175-5.306,3.552-7.792c-0.093-0.027-0.187-0.053-0.276-0.094l-6.722-3.066c-1.005-0.458-1.398-1.62-0.845-2.575   c0.021-0.035,0.043-0.068,0.063-0.103c-3.147-1.271-6.765,0.142-8.188,3.259c-1.423,3.12-0.117,6.782,2.91,8.323   C9.199,49.819,9.209,49.78,9.223,49.742z"
   id="path6" />
	<path
   fill="#EFEEEE"
   d="M75.118,15.328V7.96c0-1.104,0.895-1.946,1.994-1.841c0.04,0.004,0.079,0.01,0.119,0.014   C77.102,2.725,74.306,0,70.866,0s-6.235,2.725-6.365,6.133c0.04-0.004,0.08-0.01,0.12-0.014c1.1-0.104,1.993,0.737,1.993,1.841   v7.368c0,0.099-0.016,0.194-0.029,0.29c1.415-0.112,2.838-0.191,4.281-0.191s2.866,0.08,4.281,0.191   C75.134,15.522,75.118,15.427,75.118,15.328z"
   id="path8" />
	<path
   fill="#EFEEEE"
   d="M7.513,86.441c-0.261-1.073,0.444-2.078,1.538-2.235l7.305-1.053c0.098-0.014,0.194-0.013,0.291-0.013   c-0.611-2.754-1.014-5.584-1.2-8.476c-0.098,0.027-0.194,0.055-0.297,0.069l-7.286,1.05c-1.093,0.157-2.052-0.607-2.109-1.711   c-0.002-0.039-0.001-0.08-0.003-0.119c-3.353,0.615-5.65,3.771-5.16,7.174c0.458,3.179,3.186,5.47,6.305,5.47   c0.213,0,0.43-0.024,0.646-0.047C7.533,86.514,7.521,86.479,7.513,86.441z"
   id="path10" />
	<path
   fill="#EFEEEE"
   d="M135.457,41.534c-1.424-3.118-5.042-4.529-8.188-3.259c0.021,0.035,0.043,0.067,0.062,0.102   c0.554,0.956,0.161,2.118-0.844,2.576l-6.721,3.067c-0.09,0.041-0.184,0.067-0.276,0.094c1.376,2.487,2.562,5.09,3.55,7.792   c0.086-0.056,0.173-0.112,0.268-0.156l6.703-3.058c1.005-0.458,2.14,0.006,2.5,1.05c0.013,0.038,0.023,0.076,0.036,0.114   C135.574,48.315,136.88,44.653,135.457,41.534z"
   id="path12" />
	<path
   fill="#EFEEEE"
   d="M30.514,19.782c0.867-0.684,2.073-0.46,2.67,0.468l3.994,6.213c0.054,0.084,0.094,0.173,0.134,0.263   c2.271-1.723,4.678-3.271,7.202-4.633c-0.066-0.076-0.133-0.152-0.188-0.238l-3.988-6.202c-0.597-0.929-0.3-2.12,0.681-2.627   c0.035-0.018,0.072-0.034,0.107-0.052c-1.961-2.759-5.761-3.521-8.641-1.672c-2.879,1.851-3.762,5.626-2.063,8.558   C30.453,19.833,30.482,19.807,30.514,19.782z"
   id="path14" />
	<path
   fill="#EFEEEE"
   d="M100.714,13.025c0.981,0.507,1.278,1.698,0.682,2.627l-3.988,6.202c-0.056,0.086-0.122,0.163-0.188,0.238   c2.524,1.362,4.931,2.911,7.202,4.633c0.04-0.089,0.08-0.179,0.134-0.263l3.994-6.213c0.597-0.929,1.803-1.152,2.67-0.468   c0.031,0.025,0.061,0.052,0.092,0.076c1.699-2.931,0.816-6.707-2.062-8.558c-2.878-1.851-6.68-1.088-8.641,1.673   C100.643,12.992,100.679,13.007,100.714,13.025z"
   id="path16" />
	<path
   fill="#EFEEEE"
   d="M135.981,73.954c-0.002,0.04-0.001,0.08-0.003,0.12c-0.058,1.103-1.017,1.867-2.109,1.71l-7.286-1.05   c-0.103-0.015-0.199-0.042-0.296-0.069c-0.188,2.892-0.59,5.722-1.201,8.476c0.097,0,0.193-0.001,0.291,0.013l7.306,1.053   c1.093,0.157,1.799,1.163,1.537,2.236c-0.009,0.036-0.021,0.072-0.029,0.108c0.217,0.022,0.433,0.047,0.646,0.047   c3.119,0,5.847-2.292,6.305-5.47C141.633,77.725,139.335,74.569,135.981,73.954z"
   id="path18" />
	<path
   fill="#EFEEEE"
   d="M25.915,118.238c-0.8-0.762-0.75-1.988,0.085-2.711l5.578-4.837c0.076-0.065,0.16-0.118,0.243-0.172   c-2.031-2.008-3.906-4.169-5.61-6.468c-0.065,0.075-0.129,0.151-0.206,0.218l-5.576,4.833c-0.834,0.724-2.055,0.6-2.696-0.3   c-0.023-0.033-0.045-0.068-0.068-0.102c-2.491,2.331-2.72,6.229-0.466,8.828c1.262,1.455,3.037,2.2,4.822,2.2   c1.403,0,2.806-0.478,3.977-1.416C25.97,118.287,25.941,118.264,25.915,118.238z"
   id="path20" />
	<path
   fill="#EFEEEE"
   d="M124.069,108.7c-0.023,0.033-0.045,0.067-0.068,0.101c-0.641,0.899-1.862,1.024-2.696,0.302l-5.577-4.834   c-0.076-0.066-0.141-0.143-0.206-0.218c-1.704,2.299-3.579,4.46-5.61,6.468c0.083,0.054,0.167,0.106,0.243,0.172l5.578,4.837   c0.835,0.723,0.885,1.949,0.085,2.711c-0.026,0.025-0.055,0.049-0.082,0.074c1.171,0.938,2.573,1.416,3.977,1.416   c1.785,0,3.561-0.745,4.822-2.2C126.788,114.93,126.56,111.031,124.069,108.7z"
   id="path22" />
	<path
   fill="#EFEEEE"
   d="M58.584,135.03c-1.085-0.207-1.707-1.264-1.396-2.323l2.072-7.063c0.029-0.101,0.073-0.194,0.116-0.288   c-2.825-0.592-5.57-1.393-8.221-2.396c-0.014,0.095-0.026,0.19-0.054,0.284l-2.081,7.092c-0.312,1.06-1.405,1.614-2.431,1.203   c-0.037-0.015-0.072-0.032-0.109-0.047c-0.83,3.304,1.085,6.702,4.383,7.67c0.6,0.176,1.204,0.26,1.799,0.26   c2.685,0,5.152-1.717,6.035-4.372C58.661,135.042,58.622,135.037,58.584,135.03z"
   id="path24" />
	<path
   fill="#EFEEEE"
   d="M95.142,131.539c-1.025,0.412-2.119-0.144-2.431-1.203l-2.081-7.092c-0.027-0.094-0.04-0.189-0.054-0.284   c-2.65,1.003-5.396,1.804-8.221,2.396c0.043,0.094,0.087,0.188,0.116,0.288l2.072,7.063c0.312,1.06-0.311,2.116-1.396,2.323   c-0.038,0.007-0.077,0.012-0.114,0.02c0.883,2.655,3.351,4.372,6.035,4.372c0.595,0,1.199-0.084,1.799-0.26   c3.298-0.968,5.213-4.366,4.383-7.67C95.214,131.507,95.179,131.524,95.142,131.539z"
   id="path26" />
	<path
   fill="#EFEEEE"
   d="M46.592,10.469c1.025-0.412,2.119,0.143,2.431,1.203l2.08,7.092c0.027,0.094,0.04,0.189,0.054,0.284   c2.65-1.003,5.396-1.803,8.223-2.395c-0.044-0.094-0.088-0.188-0.117-0.289l-2.072-7.062c-0.312-1.06,0.31-2.117,1.395-2.323   c0.04-0.008,0.082-0.013,0.122-0.021c-1.077-3.246-4.534-5.083-7.842-4.111c-3.298,0.968-5.213,4.366-4.383,7.67   C46.519,10.502,46.555,10.484,46.592,10.469z"
   id="path28" />
	<path
   fill="#EFEEEE"
   d="M5.754,67.934c0.058-1.103,1.016-1.867,2.109-1.71l7.286,1.05c0.103,0.015,0.199,0.042,0.297,0.069   c0.187-2.892,0.589-5.721,1.2-8.475c-0.097,0-0.193,0.001-0.291-0.013L9.05,57.803c-1.093-0.158-1.798-1.163-1.538-2.237   c0.009-0.039,0.021-0.076,0.031-0.115C4.16,55.109,1.08,57.483,0.59,60.879c-0.49,3.404,1.807,6.559,5.16,7.174   C5.752,68.014,5.752,67.974,5.754,67.934z"
   id="path30" />
	<path
   fill="#EFEEEE"
   d="M141.142,60.879c-0.49-3.396-3.576-5.772-6.952-5.429c0.01,0.039,0.021,0.077,0.031,0.116   c0.261,1.073-0.445,2.079-1.538,2.236l-7.306,1.052c-0.098,0.014-0.194,0.013-0.291,0.013c0.611,2.754,1.014,5.583,1.201,8.475   c0.097-0.027,0.193-0.055,0.296-0.069l7.286-1.05c1.093-0.157,2.052,0.607,2.109,1.71c0.002,0.04,0.001,0.08,0.003,0.12   C139.335,67.438,141.633,64.283,141.142,60.879z"
   id="path32" />
	<path
   fill="#EFEEEE"
   d="M83.148,6.978c1.085,0.207,1.706,1.264,1.395,2.323l-2.072,7.062c-0.029,0.101-0.073,0.195-0.117,0.289   c2.826,0.592,5.572,1.392,8.223,2.395c0.014-0.095,0.026-0.19,0.054-0.284l2.08-7.092c0.312-1.06,1.406-1.615,2.431-1.203   c0.037,0.015,0.073,0.033,0.11,0.047c0.83-3.304-1.085-6.702-4.383-7.67c-3.305-0.971-6.764,0.866-7.842,4.111   C83.066,6.965,83.108,6.97,83.148,6.978z"
   id="path34" />
	<path
   fill="#EFEEEE"
   d="M31.579,31.317l-5.58-4.837c-0.834-0.724-0.884-1.949-0.084-2.711c0.029-0.028,0.061-0.054,0.09-0.081   c-2.662-2.136-6.553-1.809-8.807,0.791c-2.254,2.6-2.025,6.498,0.466,8.829c0.023-0.033,0.045-0.068,0.068-0.101   c0.641-0.899,1.862-1.024,2.696-0.301l5.576,4.833c0.077,0.066,0.142,0.143,0.206,0.218c1.704-2.299,3.579-4.461,5.61-6.469   C31.738,31.436,31.655,31.383,31.579,31.317z"
   id="path36" />
	<path
   fill="#EFEEEE"
   d="M115.728,37.74l5.577-4.834c0.834-0.724,2.056-0.598,2.696,0.301c0.023,0.033,0.045,0.067,0.067,0.1   c2.491-2.331,2.72-6.229,0.466-8.828c-2.254-2.601-6.145-2.927-8.807-0.791c0.029,0.027,0.061,0.053,0.09,0.081   c0.8,0.762,0.75,1.987-0.084,2.711l-5.58,4.837c-0.076,0.066-0.159,0.118-0.242,0.171c2.031,2.008,3.906,4.169,5.61,6.469   C115.587,37.882,115.651,37.806,115.728,37.74z"
   id="path38" />
	<path
   fill="#EFEEEE"
   d="M14.401,103.631c-0.554-0.956-0.161-2.118,0.844-2.576l6.721-3.066c0.09-0.041,0.184-0.067,0.276-0.095   c-1.376-2.487-2.562-5.09-3.551-7.792c-0.086,0.056-0.172,0.112-0.267,0.155l-6.702,3.059c-1.005,0.458-2.14-0.006-2.5-1.05   c-0.013-0.038-0.023-0.077-0.037-0.115c-3.027,1.541-4.333,5.203-2.91,8.323c1.071,2.347,3.385,3.732,5.807,3.732   c0.796,0,1.602-0.159,2.38-0.474C14.443,103.698,14.421,103.665,14.401,103.631z"
   id="path40" />
	<path
   fill="#EFEEEE"
   d="M132.547,92.15c-0.013,0.038-0.023,0.077-0.036,0.115c-0.36,1.044-1.495,1.508-2.5,1.05l-6.703-3.059   c-0.095-0.043-0.181-0.1-0.267-0.155c-0.987,2.702-2.175,5.305-3.551,7.792c0.093,0.027,0.187,0.054,0.276,0.095l6.722,3.066   c1.005,0.458,1.398,1.62,0.845,2.575c-0.021,0.035-0.042,0.067-0.062,0.103c0.778,0.314,1.584,0.474,2.38,0.474   c2.421,0,4.736-1.386,5.807-3.732C136.88,97.354,135.574,93.691,132.547,92.15z"
   id="path42" />
	<path
   fill="#EFEEEE"
   d="M111.219,122.227c-0.867,0.684-2.073,0.461-2.67-0.469l-3.995-6.213c-0.054-0.084-0.094-0.174-0.134-0.263   c-2.271,1.723-4.677,3.271-7.201,4.632c0.066,0.076,0.134,0.152,0.189,0.239l3.987,6.202c0.598,0.93,0.301,2.12-0.68,2.627   c-0.034,0.018-0.069,0.033-0.104,0.051c1.234,1.735,3.189,2.688,5.192,2.688c1.181,0,2.376-0.328,3.443-1.014   c2.879-1.852,3.762-5.627,2.063-8.558C111.28,122.175,111.25,122.202,111.219,122.227z"
   id="path44" />
	<path
   fill="#EFEEEE"
   d="M41.018,128.982c-0.981-0.507-1.278-1.697-0.681-2.627l3.987-6.202c0.056-0.087,0.123-0.163,0.189-0.239   c-2.524-1.361-4.931-2.909-7.201-4.632c-0.04,0.089-0.08,0.179-0.134,0.263l-3.995,6.213c-0.597,0.93-1.803,1.152-2.67,0.468   c-0.031-0.024-0.062-0.052-0.093-0.076c-1.698,2.931-0.815,6.706,2.063,8.558c1.067,0.686,2.262,1.014,3.443,1.014   c2.003,0,3.959-0.952,5.192-2.688C41.087,129.015,41.052,129,41.018,128.982z"
   id="path46" />
	<path
   fill="#EFEEEE"
   d="M77.111,135.89c-1.1,0.104-1.993-0.736-1.993-1.841v-7.369c0-0.099,0.016-0.194,0.029-0.29   c-1.415,0.112-2.838,0.191-4.281,0.191s-2.866-0.079-4.281-0.191c0.014,0.096,0.029,0.191,0.029,0.29v7.369   c0,1.104-0.893,1.945-1.992,1.841c-0.041-0.004-0.081-0.011-0.121-0.015c0.13,3.408,2.926,6.133,6.365,6.133   s6.235-2.725,6.365-6.133C77.191,135.879,77.151,135.886,77.111,135.89z"
   id="path48" />
</g>
<g
   id="Aussparungen_rund_1_">
	<path
   fill="none"
   stroke="#888889"
   stroke-width="0.7087"
   stroke-miterlimit="10"
   d="M47.187,22.625   c0.861-0.421,1.736-0.819,2.624-1.195c1.017-0.431,1.604-1.606,1.292-2.666l-2.08-7.092c-0.312-1.06-1.405-1.615-2.431-1.203   c-1.905,0.766-3.764,1.621-5.574,2.556c-0.98,0.507-1.277,1.698-0.681,2.627l3.988,6.202   C44.922,22.784,46.193,23.109,47.187,22.625z"
   id="path51" />
	<path
   fill="none"
   stroke="#888889"
   stroke-width="0.7087"
   stroke-miterlimit="10"
   d="M61.79,17.914   c0.937-0.156,1.881-0.288,2.833-0.396c1.097-0.124,1.991-1.085,1.991-2.19V7.96c0-1.104-0.894-1.946-1.993-1.841   c-2.042,0.194-4.055,0.482-6.037,0.859c-1.085,0.207-1.706,1.264-1.395,2.323l2.072,7.062   C59.573,17.423,60.701,18.097,61.79,17.914z"
   id="path53" />
	<path
   fill="none"
   stroke="#888889"
   stroke-width="0.7087"
   stroke-miterlimit="10"
   d="M18.808,57.196   c0.24-0.917,0.503-1.826,0.79-2.724c0.336-1.052-0.168-2.264-1.173-2.723l-6.702-3.058c-1.005-0.458-2.14,0.006-2.5,1.05   c-0.657,1.903-1.229,3.846-1.71,5.824c-0.261,1.074,0.444,2.079,1.538,2.237l7.305,1.052   C17.448,59.013,18.527,58.265,18.808,57.196z"
   id="path55" />
	<path
   fill="none"
   stroke="#888889"
   stroke-width="0.7087"
   stroke-miterlimit="10"
   d="M15.245,40.953l6.722,3.066   c1.005,0.458,2.252,0.045,2.824-0.899c0.501-0.828,1.023-1.641,1.567-2.439c0.622-0.913,0.48-2.218-0.354-2.941l-5.576-4.833   c-0.834-0.724-2.056-0.598-2.696,0.301c-1.188,1.667-2.302,3.392-3.332,5.171C13.847,39.333,14.24,40.494,15.245,40.953z"
   id="path57" />
	<path
   fill="none"
   stroke="#888889"
   stroke-width="0.7087"
   stroke-miterlimit="10"
   d="M77.109,17.518   c0.951,0.108,1.896,0.239,2.831,0.396c1.09,0.182,2.219-0.491,2.53-1.55l2.072-7.062c0.312-1.06-0.31-2.117-1.395-2.323   c-1.982-0.377-3.995-0.666-6.036-0.859c-1.1-0.104-1.994,0.737-1.994,1.841v7.368C75.118,16.433,76.012,17.394,77.109,17.518z"
   id="path59" />
	<path
   fill="none"
   stroke="#888889"
   stroke-width="0.7087"
   stroke-miterlimit="10"
   d="M17.041,69.279   c0.035-0.951-0.799-1.849-1.892-2.006l-7.286-1.05c-1.093-0.157-2.052,0.607-2.109,1.71c-0.053,1.018-0.084,2.04-0.084,3.07   s0.031,2.053,0.084,3.069c0.058,1.104,1.016,1.868,2.109,1.711l7.286-1.05c1.093-0.157,1.927-1.055,1.892-2.006   c-0.021-0.572-0.033-1.147-0.033-1.725S17.02,69.852,17.041,69.279z"
   id="path61" />
	<path
   fill="none"
   stroke="#888889"
   stroke-width="0.7087"
   stroke-miterlimit="10"
   d="M19.598,87.534   c-0.287-0.897-0.55-1.806-0.79-2.723c-0.28-1.069-1.359-1.815-2.452-1.658L9.05,84.206c-1.093,0.157-1.798,1.162-1.538,2.235   c0.481,1.979,1.053,3.921,1.71,5.824c0.36,1.044,1.495,1.508,2.5,1.05l6.702-3.059C19.43,89.799,19.934,88.586,19.598,87.534z"
   id="path63" />
	<path
   fill="none"
   stroke="#888889"
   stroke-width="0.7087"
   stroke-miterlimit="10"
   d="M124.691,72.729   c-0.035,0.951,0.799,1.849,1.892,2.006l7.286,1.05c1.093,0.157,2.052-0.607,2.109-1.71c0.054-1.018,0.085-2.04,0.085-3.07   s-0.031-2.053-0.085-3.07c-0.058-1.103-1.017-1.867-2.109-1.71l-7.286,1.05c-1.093,0.157-1.927,1.055-1.892,2.006   c0.021,0.572,0.033,1.147,0.033,1.725S124.713,72.156,124.691,72.729z"
   id="path65" />
	<path
   fill="none"
   stroke="#888889"
   stroke-width="0.7087"
   stroke-miterlimit="10"
   d="M130.011,48.692l-6.703,3.058   c-1.005,0.458-1.51,1.669-1.173,2.722c0.287,0.898,0.55,1.807,0.79,2.725c0.28,1.069,1.359,1.816,2.452,1.659l7.306-1.052   c1.093-0.158,1.799-1.163,1.538-2.236c-0.481-1.979-1.054-3.921-1.71-5.824C132.15,48.698,131.016,48.234,130.011,48.692z"
   id="path67" />
	<path
   fill="none"
   stroke="#888889"
   stroke-width="0.7087"
   stroke-miterlimit="10"
   d="M92.71,11.672l-2.08,7.092   c-0.312,1.06,0.275,2.235,1.292,2.666c0.888,0.375,1.763,0.774,2.625,1.195c0.992,0.485,2.264,0.159,2.86-0.771l3.988-6.202   c0.597-0.929,0.3-2.12-0.682-2.627c-1.81-0.936-3.668-1.791-5.573-2.556C94.116,10.057,93.021,10.612,92.71,11.672z"
   id="path69" />
	<path
   fill="none"
   stroke="#888889"
   stroke-width="0.7087"
   stroke-miterlimit="10"
   d="M115.375,40.682   c0.544,0.797,1.066,1.611,1.567,2.438c0.572,0.945,1.819,1.358,2.824,0.899l6.721-3.067c1.005-0.458,1.397-1.62,0.844-2.576   c-1.029-1.778-2.142-3.502-3.33-5.169c-0.641-0.899-1.862-1.025-2.696-0.301l-5.577,4.834   C114.894,38.463,114.753,39.769,115.375,40.682z"
   id="path71" />
	<path
   fill="none"
   stroke="#888889"
   stroke-width="0.7087"
   stroke-miterlimit="10"
   d="M34.541,31.251   c0.7-0.64,1.417-1.261,2.15-1.864c0.854-0.702,1.084-1.995,0.486-2.924l-3.994-6.213c-0.597-0.929-1.803-1.152-2.67-0.468   c-1.595,1.258-3.129,2.589-4.599,3.988c-0.8,0.762-0.75,1.987,0.084,2.711l5.58,4.837C32.413,32.041,33.726,31.996,34.541,31.251z"
   id="path73" />
	<path
   fill="none"
   stroke="#888889"
   stroke-width="0.7087"
   stroke-miterlimit="10"
   d="M105.041,29.387   c0.733,0.603,1.451,1.225,2.151,1.865c0.815,0.745,2.127,0.79,2.961,0.066l5.58-4.837c0.834-0.724,0.884-1.949,0.084-2.711   c-1.47-1.398-3.004-2.729-4.599-3.987c-0.867-0.684-2.073-0.461-2.67,0.468l-3.994,6.213   C103.957,27.392,104.188,28.686,105.041,29.387z"
   id="path75" />
	<path
   fill="none"
   stroke="#888889"
   stroke-width="0.7087"
   stroke-miterlimit="10"
   d="M26.358,101.327   c-0.544-0.798-1.066-1.611-1.568-2.439c-0.572-0.944-1.819-1.357-2.824-0.899l-6.721,3.066c-1.005,0.458-1.397,1.62-0.844,2.576   c1.03,1.779,2.143,3.504,3.331,5.171c0.642,0.899,1.862,1.023,2.696,0.3l5.576-4.833C26.839,103.545,26.98,102.24,26.358,101.327z"
   id="path77" />
	<path
   fill="none"
   stroke="#888889"
   stroke-width="0.7087"
   stroke-miterlimit="10"
   d="M122.925,84.812   c-0.24,0.918-0.503,1.825-0.79,2.723c-0.336,1.052,0.168,2.265,1.173,2.723l6.703,3.059c1.005,0.458,2.14-0.006,2.5-1.05   c0.656-1.903,1.229-3.845,1.709-5.823c0.262-1.073-0.444-2.079-1.537-2.236l-7.306-1.053   C124.284,82.996,123.205,83.743,122.925,84.812z"
   id="path79" />
	<path
   fill="none"
   stroke="#888889"
   stroke-width="0.7087"
   stroke-miterlimit="10"
   d="M36.691,112.621   c-0.733-0.603-1.45-1.225-2.15-1.864c-0.815-0.745-2.128-0.789-2.963-0.066L26,115.527c-0.835,0.723-0.885,1.949-0.085,2.711   c1.47,1.398,3.004,2.729,4.599,3.987c0.867,0.685,2.073,0.462,2.67-0.468l3.995-6.213   C37.775,114.615,37.545,113.322,36.691,112.621z"
   id="path81" />
	<path
   fill="none"
   stroke="#888889"
   stroke-width="0.7087"
   stroke-miterlimit="10"
   d="M107.191,110.757   c-0.7,0.64-1.417,1.261-2.15,1.864c-0.853,0.701-1.084,1.994-0.487,2.924l3.995,6.213c0.597,0.93,1.803,1.152,2.67,0.469   c1.595-1.259,3.129-2.59,4.599-3.988c0.8-0.762,0.75-1.988-0.085-2.711l-5.578-4.837   C109.319,109.968,108.007,110.012,107.191,110.757z"
   id="path83" />
	<path
   fill="none"
   stroke="#888889"
   stroke-width="0.7087"
   stroke-miterlimit="10"
   d="M126.488,101.055l-6.722-3.066   c-1.005-0.458-2.252-0.045-2.824,0.899c-0.502,0.827-1.024,1.641-1.567,2.438c-0.623,0.913-0.481,2.219,0.353,2.942l5.577,4.834   c0.834,0.723,2.056,0.598,2.696-0.302c1.188-1.667,2.302-3.392,3.332-5.171C127.887,102.675,127.493,101.513,126.488,101.055z"
   id="path85" />
	<path
   fill="none"
   stroke="#888889"
   stroke-width="0.7087"
   stroke-miterlimit="10"
   d="M94.547,119.383   c-0.862,0.421-1.737,0.819-2.624,1.195c-1.018,0.431-1.604,1.606-1.293,2.666l2.081,7.092c0.312,1.06,1.405,1.615,2.431,1.203   c1.904-0.766,3.763-1.621,5.574-2.557c0.98-0.507,1.277-1.697,0.68-2.627l-3.987-6.202   C96.811,119.224,95.539,118.898,94.547,119.383z"
   id="path87" />
	<path
   fill="none"
   stroke="#888889"
   stroke-width="0.7087"
   stroke-miterlimit="10"
   d="M49.021,130.336l2.081-7.092   c0.312-1.06-0.275-2.235-1.293-2.666c-0.887-0.376-1.763-0.774-2.624-1.195c-0.993-0.485-2.264-0.159-2.861,0.771l-3.987,6.202   c-0.598,0.93-0.301,2.12,0.681,2.627c1.811,0.936,3.669,1.791,5.573,2.557C47.616,131.95,48.71,131.396,49.021,130.336z"
   id="path89" />
	<path
   fill="none"
   stroke="#888889"
   stroke-width="0.7087"
   stroke-miterlimit="10"
   d="M64.623,124.489   c-0.952-0.107-1.897-0.239-2.834-0.396c-1.09-0.182-2.217,0.491-2.528,1.551l-2.072,7.063c-0.312,1.06,0.311,2.116,1.396,2.323   c1.982,0.377,3.996,0.665,6.038,0.859c1.1,0.104,1.992-0.736,1.992-1.841v-7.369C66.614,125.575,65.721,124.613,64.623,124.489z"
   id="path91" />
	<path
   fill="none"
   stroke="#888889"
   stroke-width="0.7087"
   stroke-miterlimit="10"
   d="M79.942,124.094   c-0.937,0.156-1.881,0.288-2.832,0.396c-1.098,0.124-1.992,1.086-1.992,2.19v7.369c0,1.104,0.894,1.945,1.993,1.841   c2.042-0.194,4.055-0.482,6.037-0.859c1.085-0.207,1.707-1.264,1.396-2.323l-2.072-7.063   C82.16,124.584,81.032,123.911,79.942,124.094z"
   id="path93" />
</g>
<g
   id="Schrift_Pins">
	<text
   transform="matrix(1 0 0 1 81.8291 25.3198)"
   fill="#FFFFFF"
   font-family="'ArialMT'"
   font-size="5.0893"
   id="text96">a5</text>

	<text
   transform="matrix(1 0 0 1 94.3604 31.2734)"
   fill="#FFFFFF"
   font-family="'ArialMT'"
   font-size="5.0893"
   id="text98">a4</text>

	<text
   transform="matrix(1 0 0 1 104.7314 40.3955)"
   fill="#FFFFFF"
   font-family="'ArialMT'"
   font-size="5.0893"
   id="text100">a3</text>

	<text
   transform="matrix(1 0 0 1 112.3174 52.4463)"
   fill="#FFFFFF"
   font-family="'ArialMT'"
   font-size="5.0893"
   id="text102">a2</text>

	<text
   transform="matrix(1 0 0 1 116.542 65.4575)"
   fill="#FFFFFF"
   font-family="'ArialMT'"
   font-size="5.0893"
   id="text104">a1</text>

	<text
   transform="matrix(1 0 0 1 116.2539 79.9092)"
   fill="#FFFFFF"
   font-family="'ArialMT'"
   font-size="5.0893"
   id="text106">a0</text>

	<text
   transform="matrix(1 0 0 1 115.7012 94.0166)"
   fill="#FFFFFF"
   font-family="'ArialMT'"
   font-size="5.0893"
   id="text108">13</text>

	<text
   transform="matrix(1 0 0 1 106.1152 107.5391)"
   fill="#FFFFFF"
   font-family="'ArialMT'"
   font-size="5.0893"
   id="text110">12</text>

	<text
   transform="matrix(1 0 0 1 95.1768 114.3809)"
   id="text112"><tspan
     x="0"
     y="0"
     fill="#FFFFFF"
     font-family="'ArialMT'"
     font-size="5.0893"
     id="tspan114">1</tspan><tspan
     x="2.403"
     y="0"
     fill="#FFFFFF"
     font-family="'ArialMT'"
     font-size="5.0893"
     id="tspan116">1</tspan></text>

	<text
   transform="matrix(1 0 0 1 82.5977 120.4307)"
   fill="#FFFFFF"
   font-family="'ArialMT'"
   font-size="5.0893"
   id="text118">10</text>

	<text
   transform="matrix(1 0 0 1 69.874 123.2637)"
   fill="#FFFFFF"
   font-family="'ArialMT'"
   font-size="5.0893"
   id="text120">9</text>

	<text
   transform="matrix(1 0 0 1 55.4229 120.959)"
   fill="#FFFFFF"
   font-family="'ArialMT'"
   font-size="5.0893"
   id="text122">8</text>

	<text
   transform="matrix(1 0 0 1 42.8916 115.0059)"
   fill="#FFFFFF"
   font-family="'ArialMT'"
   font-size="5.0893"
   id="text124">7</text>

	<text
   transform="matrix(1 0 0 1 31.9932 105.1631)"
   fill="#FFFFFF"
   font-family="'ArialMT'"
   font-size="5.0893"
   id="text126">6</text>

	<text
   transform="matrix(1 0 0 1 20.2305 79.957)"
   fill="#FFFFFF"
   font-family="'ArialMT'"
   font-size="6.0975"
   id="text128">+</text>

	<text
   transform="matrix(1 0 0 1 19.8457 65.6973)"
   fill="#FFFFFF"
   font-family="'ArialMT'"
   font-size="6.0975"
   id="text130">-</text>

	<text
   transform="matrix(1 0 0 1 23.9756 51.9658)"
   fill="#FFFFFF"
   font-family="'ArialMT'"
   font-size="5.0893"
   id="text132">4</text>

	<text
   transform="matrix(1 0 0 1 31.9932 40.2031)"
   fill="#FFFFFF"
   font-family="'ArialMT'"
   font-size="5.0893"
   id="text134">3</text>

	<text
   transform="matrix(1 0 0 1 42.7471 30.5527)"
   fill="#FFFFFF"
   font-family="'ArialMT'"
   font-size="5.0893"
   id="text136">2</text>

	<text
   transform="matrix(1 0 0 1 51.9658 26.6162)"
   id="text138"><tspan
     x="0"
     y="0"
     fill="#FFFFFF"
     font-family="'ArialMT'"
     font-size="5.0893"
     id="tspan140">1</tspan><tspan
     x="2.83"
     y="0"
     fill="#FFFFFF"
     font-family="'ArialMT'"
     font-size="5.0893"
     id="tspan142">/t</tspan><tspan
     x="5.617"
     y="0"
     fill="#FFFFFF"
     font-family="'ArialMT'"
     font-size="5.0893"
     id="tspan144">x</tspan></text>

	<text
   transform="matrix(1 0 0 1 65.1689 24.3115)"
   id="text146"><tspan
     x="0"
     y="0"
     fill="#FFFFFF"
     font-family="'ArialMT'"
     font-size="5.0893"
     id="tspan148">0</tspan><tspan
     x="2.83"
     y="0"
     fill="#FFFFFF"
     font-family="'ArialMT'"
     font-size="5.0893"
     id="tspan150">/</tspan><tspan
     x="4.224"
     y="0"
     fill="#FFFFFF"
     font-family="'ArialMT'"
     font-size="5.0893"
     id="tspan152">r</tspan><tspan
     x="5.908"
     y="0"
     fill="#FFFFFF"
     font-family="'ArialMT'"
     font-size="5.0893"
     id="tspan154">x</tspan></text>

	<text
   transform="matrix(1 0 0 1 24.167 93.7363)"
   fill="#FFFFFF"
   font-family="'ArialMT'"
   font-size="5.0893"
   id="text156">5</text>

</g>
<rect
   x="65.056"
   y="67.021"
   fill="#175628"
   stroke="#1B441F"
   stroke-width="0.2835"
   stroke-miterlimit="10"
   width="51.277"
   height="34.186"
   id="rect158" />
<g
   id="jst-2-smd"
   transform="matrix(1, 0, 0, 1, 22.8121, 60.1226)">
	<g
   transform="matrix(0, 1, -1, 0, 23.081, -1.59397)"
   id="g161">
		<g
   id="s2b-ph"
   transform="matrix(1, 0, 0, 1, 10.788, 32.4744)">
			<g
   transform="matrix(0, 1, -1, 0, 23.0625, -1.61147)"
   id="g164">
				<g
   id="g166">
					<g
   id="g168">
						<g
   id="g170">
							<polygon
   fill="#B7B7B7"
   points="-30.408,28.62 -30.408,30.348 -25.35,30.348 -25.35,28.62        "
   id="polygon172" />
							<polygon
   fill="#B7B7B7"
   points="-30.408,35.822 -30.408,37.546 -25.35,37.546 -25.35,35.822        "
   id="polygon174" />
						</g>
					</g>
					<rect
   x="-27.547"
   y="20.631"
   fill="#AD9E74"
   width="15.688"
   height="24.675"
   id="rect176" />
					<g
   id="g178">
						<polygon
   fill="#C2B990"
   points="-24.164,40.368 -24.164,38.407 -23.15,38.407 -23.15,27.593 -24.164,27.593 -24.164,25.769         -27.547,25.769 -27.547,40.368       "
   id="polygon180" />
					</g>
					<rect
   x="-11.861"
   y="23.672"
   fill="#F1F3E6"
   width="2.903"
   height="18.591"
   id="rect182" />
					<polygon
   opacity="0.5"
   fill="#A0916B"
   enable-background="new    "
   points="-24.16,25.769 -24.16,27.593 -23.145,27.593        -23.145,38.407 -24.16,38.407 -24.16,40.368 -21.281,40.368 -21.281,38.407 -21.281,27.593 -21.281,25.769      "
   id="polygon184" />
					<rect
   x="-19.705"
   y="25.768"
   opacity="0.1"
   fill="#FFFFFF"
   enable-background="new    "
   width="5.239"
   height="14.604"
   id="rect186" />
					<rect
   x="-17.589"
   y="25.768"
   opacity="0.1"
   fill="#FFFFFF"
   enable-background="new    "
   width="5.236"
   height="14.604"
   id="rect188" />
					<g
   id="g190">
						<g
   id="g192">
							<path
   fill="#F1F3E6"
   d="M-27.547,20.631h-2.861v3.041h2.861V20.631z"
   id="path194" />
						</g>
					</g>
					<g
   id="g196">
						<g
   id="g198">
							<path
   fill="#F1F3E6"
   d="M-27.547,42.262h-2.861v3.043h2.861V42.262z"
   id="path200" />
						</g>
					</g>
					<g
   id="g202">
						<g
   id="g204">
							<polygon
   fill="#F1F3E6"
   points="-11.862,20.631 -27.547,20.631 -27.547,25.769 -14.974,25.769 -14.974,28.809          -27.547,28.809 -27.547,37.325 -14.974,37.325 -14.974,40.368 -27.547,40.368 -27.547,45.305 -11.862,45.305        "
   id="polygon206" />
						</g>
					</g>
					<rect
   x="-27.867"
   y="42.263"
   opacity="0.4"
   fill="#C2B990"
   enable-background="new    "
   width="0.32"
   height="3.041"
   id="rect208" />
					<rect
   x="-27.867"
   y="20.631"
   opacity="0.4"
   fill="#C2B990"
   enable-background="new    "
   width="0.322"
   height="3.041"
   id="rect210" />
					<rect
   x="-11.861"
   y="25.768"
   opacity="0.4"
   fill="#AD9E74"
   enable-background="new    "
   width="2.903"
   height="3.041"
   id="rect212" />
					<rect
   x="-11.86"
   y="37.325"
   opacity="0.4"
   fill="#AD9E74"
   enable-background="new    "
   width="2.904"
   height="3.044"
   id="rect214" />
				</g>
			</g>
		</g>
	</g>
</g>
<g
   id="ayz0202_1_"
   transform="matrix(1, 0, 0, 1, 60.6021, 89.1281)">
	<g
   id="ayz0202"
   transform="matrix(1, 0, 0, 1, 97.7364, 63.0318)">
		<g
   transform="matrix(0, 1, -1, 0, 17.056, -3.47098)"
   id="g218">
			<g
   id="g220">
				<g
   id="g222">
					<g
   id="g224">
						<g
   id="g226">
							<path
   fill="#676767"
   d="M-38.852,133.689c0.078,0,0.145-0.065,0.145-0.146v-1.438c0-0.079-0.062-0.146-0.145-0.146h-0.086         c-0.078,0-0.146,0.065-0.146,0.146v1.438c0,0.078,0.064,0.146,0.146,0.146H-38.852z"
   id="path228" />
						</g>
						<g
   id="g230">
							<path
   fill="#676767"
   d="M-38.852,126.49c0.078,0,0.145-0.062,0.145-0.146v-1.438c0-0.078-0.062-0.145-0.145-0.145h-0.086         c-0.078,0-0.146,0.062-0.146,0.145v1.438c0,0.08,0.064,0.146,0.146,0.146H-38.852z"
   id="path232" />
						</g>
						<g
   id="g234">
							<path
   fill="#676767"
   d="M-38.852,119.286c0.078,0,0.145-0.062,0.145-0.146v-1.438c0-0.078-0.062-0.145-0.145-0.145h-0.086         c-0.078,0-0.146,0.062-0.146,0.145v1.438c0,0.08,0.064,0.146,0.146,0.146H-38.852z"
   id="path236" />
						</g>
					</g>
					<g
   id="g238">
						<g
   id="g240">
							<path
   fill="#B7B7B7"
   d="M-38.957,133.689c0.078,0,0.146-0.065,0.146-0.146v-1.438c0-0.079-0.063-0.146-0.146-0.146         l-1.781,0.001c-0.08,0-0.146,0.065-0.146,0.146v1.438c0,0.078,0.063,0.146,0.146,0.146L-38.957,133.689z"
   id="path242" />
						</g>
						<g
   id="g244">
							<path
   fill="#B7B7B7"
   d="M-38.957,126.49c0.078,0,0.146-0.062,0.146-0.146v-1.438c0-0.078-0.063-0.145-0.146-0.145         l-1.781,0.002c-0.08,0-0.146,0.062-0.146,0.145v1.438c0,0.078,0.063,0.145,0.146,0.145L-38.957,126.49z"
   id="path246" />
						</g>
						<g
   id="g248">
							<path
   fill="#B7B7B7"
   d="M-38.957,119.286c0.078,0,0.146-0.062,0.146-0.146v-1.438c0-0.078-0.063-0.145-0.146-0.145         l-1.781,0.002c-0.08,0-0.146,0.062-0.146,0.145v1.438c0,0.079,0.063,0.145,0.146,0.145L-38.957,119.286z"
   id="path250" />
						</g>
					</g>
					<g
   id="g252">
						<g
   id="g254">
							<path
   fill="#B7B7B7"
   d="M-48.79,133.69c0.079,0,0.146-0.065,0.146-0.146v-1.438c0-0.079-0.064-0.146-0.146-0.146h-2.568         c-0.08,0-0.146,0.065-0.146,0.146v1.438c0,0.078,0.065,0.146,0.146,0.146H-48.79z"
   id="path256" />
						</g>
						<g
   id="g258">
							<path
   fill="#B7B7B7"
   d="M-48.79,126.49c0.079,0,0.146-0.062,0.146-0.145v-1.438c0-0.078-0.064-0.145-0.146-0.145h-2.568         c-0.08,0.002-0.146,0.062-0.146,0.145v1.438c0,0.08,0.065,0.145,0.146,0.145H-48.79z"
   id="path260" />
						</g>
						<g
   id="g262">
							<path
   fill="#B7B7B7"
   d="M-48.79,119.288c0.079,0,0.146-0.062,0.146-0.145v-1.438c0-0.078-0.064-0.145-0.146-0.145h-2.568         c-0.08,0.002-0.146,0.062-0.146,0.145v1.438c0,0.078,0.065,0.145,0.146,0.145H-48.79L-48.79,119.288z"
   id="path264" />
						</g>
					</g>
				</g>
			</g>
			
				<rect
   x="-55.407"
   y="120.874"
   transform="matrix(2.578893e-06 1 -1 2.578893e-06 80.483 170.7687)"
   fill="#1F1F1F"
   width="20.527"
   height="9.504"
   id="rect266" />
			
				<rect
   x="-53.156"
   y="124.287"
   transform="matrix(2.578893e-06 1 -1 2.578893e-06 77.7931 173.4615)"
   fill="#F2F2F2"
   width="10.644"
   height="2.682"
   id="rect268" />
			
				<rect
   x="-51.748"
   y="125.561"
   transform="matrix(2.578893e-06 1 -1 2.578893e-06 79.2013 172.0563)"
   fill="#CDCCCC"
   width="10.641"
   height="0.136"
   id="rect270" />
			<path
   fill="#888989"
   d="M-47.409,116.892c0,0.229-0.189,0.201-0.431,0.201h-2.06v3.646c0,0.231,0.188,0.426,0.427,0.426h3.215     c0.231,0,0.429,0.189,0.429,0.429v8.067c0,0.232-0.189,0.425-0.429,0.425h-3.215c-0.229,0-0.427,0.191-0.427,0.43v3.646h2.06     c0.233,0,0.433-0.021,0.433,0.203v1.278c0,0.232,0.188,0.247,0.424,0.247h3.892c0.234,0,0.426-0.015,0.426-0.247v-1.277     c0-0.229,0.191-0.203,0.432-0.203h1.833v-17.063h-1.836c-0.232,0-0.431,0.021-0.431-0.203v-1.277     c0-0.233-0.188-0.248-0.426-0.248h-3.89c-0.232,0-0.426,0.015-0.426,0.248V116.892z"
   id="path272" />
			<g
   id="g274">
				<path
   opacity="0.3"
   fill="#FFFFFF"
   enable-background="new    "
   d="M-42.674,135.644v-0.238h-4.742v0.238      c0,0.232,0.191,0.248,0.43,0.248h3.894C-42.863,135.892-42.674,135.883-42.674,135.644z"
   id="path276" />
				
					<rect
   x="-45.287"
   y="132.789"
   transform="matrix(2.578893e-06 1 -1 2.578893e-06 90.1158 180.2042)"
   opacity="0.1"
   fill="#FFFFFF"
   enable-background="new    "
   width="0.484"
   height="4.742"
   id="rect278" />
			</g>
			<g
   id="g280">
				<path
   opacity="0.3"
   fill="#FFFFFF"
   enable-background="new    "
   d="M-42.674,115.615v0.238h-4.742v-0.238      c0-0.232,0.191-0.248,0.43-0.248h3.894C-42.863,115.365-42.674,115.374-42.674,115.615z"
   id="path282" />
				
					<rect
   x="-45.287"
   y="113.725"
   transform="matrix(2.578893e-06 1 -1 2.578893e-06 71.0524 161.1378)"
   opacity="0.1"
   fill="#FFFFFF"
   enable-background="new    "
   width="0.487"
   height="4.741"
   id="rect284" />
			</g>
			<path
   fill="#888989"
   d="M-41.76,118.799c0.289,0,0.525,0.25,0.525,0.559v12.547c0,0.312-0.236,0.562-0.525,0.562     s-0.521-0.25-0.521-0.562v-12.549C-42.283,119.046-42.049,118.799-41.76,118.799z"
   id="path286" />
			<g
   id="g288">
				<path
   fill="#676767"
   d="M-42.283,119.355v12.547c0,0.309,0.231,0.559,0.521,0.559v-0.233c-0.158,0-0.287-0.146-0.287-0.318      v-12.55c0-0.176,0.129-0.318,0.287-0.318v-0.23C-42.049,118.799-42.283,119.046-42.283,119.355z"
   id="path290" />
				<path
   opacity="0.3"
   fill="#FFFFFF"
   enable-background="new    "
   d="M-41.473,119.355v12.547c0,0.178-0.129,0.317-0.287,0.317      v0.234c0.289,0,0.525-0.25,0.525-0.559v-12.544c0-0.31-0.236-0.56-0.525-0.56v0.235      C-41.602,119.034-41.473,119.18-41.473,119.355z"
   id="path292" />
			</g>
			<g
   id="g294">
				<path
   opacity="0.3"
   fill="#FFFFFF"
   enable-background="new    "
   d="M-50.241,135.892h2.125c0.151,0,0.281-0.016,0.281-0.248      v-0.238h-2.406V135.892z"
   id="path296" />
				
					<rect
   x="-49.28"
   y="133.953"
   transform="matrix(2.578893e-06 1 -1 2.578893e-06 86.1217 184.1944)"
   opacity="0.1"
   fill="#FFFFFF"
   enable-background="new    "
   width="0.486"
   height="2.41"
   id="rect298" />
			</g>
			<g
   id="g300">
				<path
   opacity="0.3"
   fill="#FFFFFF"
   enable-background="new    "
   d="M-40.417,135.892h-1.565c-0.157,0-0.287-0.016-0.287-0.248      v-0.238h1.854L-40.417,135.892L-40.417,135.892z"
   id="path302" />
				
					<rect
   x="-41.588"
   y="134.231"
   transform="matrix(2.578893e-06 1 -1 2.578893e-06 93.8131 176.504)"
   opacity="0.1"
   fill="#FFFFFF"
   enable-background="new    "
   width="0.485"
   height="1.854"
   id="rect304" />
			</g>
			<g
   id="g306">
				<path
   opacity="0.3"
   fill="#FFFFFF"
   enable-background="new    "
   d="M-50.241,115.365h2.125c0.151,0,0.281,0.013,0.281,0.248      v0.238h-2.406V115.365z"
   id="path308" />
				
					<rect
   x="-49.275"
   y="114.887"
   transform="matrix(2.578893e-06 1 -1 2.578893e-06 67.0587 165.1266)"
   opacity="0.1"
   fill="#FFFFFF"
   enable-background="new    "
   width="0.482"
   height="2.411"
   id="rect310" />
			</g>
			<g
   id="g312">
				<path
   opacity="0.3"
   fill="#FFFFFF"
   enable-background="new    "
   d="M-40.417,115.365h-1.565c-0.157,0-0.287,0.013-0.287,0.248      v0.238h1.854L-40.417,115.365L-40.417,115.365z"
   id="path314" />
				
					<rect
   x="-41.586"
   y="115.165"
   transform="matrix(2.578893e-06 1 -1 2.578893e-06 74.7482 157.4362)"
   opacity="0.1"
   fill="#FFFFFF"
   enable-background="new    "
   width="0.483"
   height="1.854"
   id="rect316" />
			</g>
			
				<rect
   x="-51.03"
   y="132.58"
   transform="matrix(2.578893e-06 1 -1 2.578893e-06 82.6632 182.9957)"
   fill="#CDCCCC"
   width="1.728"
   height="0.5"
   id="rect318" />
			
				<rect
   x="-51.006"
   y="125.377"
   transform="matrix(2.578893e-06 1 -1 2.578893e-06 75.483 175.7706)"
   fill="#CDCCCC"
   width="1.725"
   height="0.5"
   id="rect320" />
			
				<rect
   x="-51.032"
   y="118.177"
   transform="matrix(2.578893e-06 1 -1 2.578893e-06 68.2599 168.5944)"
   fill="#CDCCCC"
   width="1.729"
   height="0.5"
   id="rect322" />
			<g
   id="g324">
				<path
   fill="#F2F2F2"
   d="M-47.308,125.82c0.156,0,0.283,0.127,0.283,0.283v3.557c0,0.155-0.127,0.283-0.283,0.283h-2.232      c-0.15,0-0.277-0.127-0.277-0.283v-3.557c0-0.156,0.127-0.283,0.277-0.283H-47.308z"
   id="path326" />
				<g
   opacity="0.59"
   id="g328">
					<path
   fill="none"
   stroke="#FFFFFF"
   stroke-width="0.1899"
   stroke-linecap="round"
   stroke-miterlimit="10"
   d="M-47.224,129.702       h-2.229c-0.098,0-0.174-0.075-0.174-0.171v-3.469"
   id="path330" />
				</g>
				<path
   fill="#CDCCCC"
   d="M-47.308,125.82c0.156,0,0.283,0.127,0.283,0.283v3.557c0,0.155-0.127,0.283-0.283,0.283h0.812      c0.125,0,0.277-0.127,0.277-0.283v-3.557c0-0.156-0.125-0.283-0.277-0.283H-47.308z"
   id="path332" />
				<g
   opacity="0.2"
   id="g334">
					<path
   fill="none"
   stroke="#464545"
   stroke-width="0.1899"
   stroke-linecap="round"
   stroke-miterlimit="10"
   d="M-49.624,126.062       h2.229c0.094,0,0.172,0.076,0.172,0.17v3.47"
   id="path336" />
				</g>
				<g
   opacity="0.2"
   id="g338">
					<path
   fill="none"
   stroke="#010202"
   stroke-width="0.1899"
   stroke-linecap="round"
   stroke-miterlimit="10"
   d="M-46.361,126.062       v3.64"
   id="path340" />
				</g>
				
					<path
   opacity="0.85"
   fill="none"
   stroke="#FFFFFF"
   stroke-width="0.1899"
   stroke-linecap="round"
   stroke-miterlimit="10"
   enable-background="new    "
   d="      M-47.892,128.411c-0.295,0.295-0.771,0.295-1.063,0.002c-0.298-0.293-0.296-0.77,0-1.062"
   id="path342" />
				
					<path
   opacity="0.2"
   fill="none"
   stroke="#464545"
   stroke-width="0.1899"
   stroke-linecap="round"
   stroke-miterlimit="10"
   enable-background="new    "
   d="      M-48.957,127.352c0.298-0.293,0.771-0.293,1.063,0c0.295,0.293,0.293,0.77,0,1.061"
   id="path344" />
			</g>
			
				<rect
   x="-41.043"
   y="132.575"
   transform="matrix(2.578893e-06 1 -1 2.578893e-06 92.6461 173.004)"
   fill="#CDCCCC"
   width="1.729"
   height="0.5"
   id="rect346" />
			
				<rect
   x="-41.041"
   y="125.374"
   transform="matrix(2.578893e-06 1 -1 2.578893e-06 85.4454 165.8014)"
   fill="#CDCCCC"
   width="1.726"
   height="0.5"
   id="rect348" />
			
				<rect
   x="-41.044"
   y="118.176"
   transform="matrix(2.578893e-06 1 -1 2.578893e-06 78.2462 158.6061)"
   fill="#CDCCCC"
   width="1.728"
   height="0.5"
   id="rect350" />
			
				<rect
   x="-48.997"
   y="125.554"
   transform="matrix(2.578893e-06 1 -1 2.578893e-06 85.1632 166.0924)"
   fill="#676767"
   width="17.064"
   height="0.147"
   id="rect352" />
			<g
   id="g354">
				<path
   fill="#676767"
   d="M-42.115,134.162c-0.233,0-0.431-0.021-0.431,0.203v1.278c0,0.232-0.188,0.248-0.426,0.248h-0.123      c0.232,0,0.426-0.016,0.426-0.248v-1.277c0-0.229,0.19-0.203,0.43-0.203L-42.115,134.162L-42.115,134.162z"
   id="path356" />
			</g>
			<g
   id="g358">
				<path
   fill="#676767"
   d="M-42.24,117.093c-0.233,0-0.431,0.021-0.431-0.201v-1.277c0-0.238-0.188-0.248-0.426-0.248h0.125      c0.233,0,0.426,0.01,0.426,0.248v1.277c0,0.229,0.19,0.201,0.431,0.201H-42.24z"
   id="path360" />
			</g>
		</g>
	</g>
</g>
<g
   id="ayz0202_2_"
   transform="matrix(1, 0, 0, 1, 60.6021, 89.1281)">
	<g
   id="ayz0202_3_"
   transform="matrix(1, 0, 0, 1, 97.7364, 63.0318)">
		<g
   transform="matrix(0, 1, -1, 0, 17.056, -3.47098)"
   id="g364">
			<g
   id="g366">
				<g
   id="g368">
					<g
   id="g370">
						<g
   id="g372">
							<path
   fill="#676767"
   d="M-59.403,147.857c0.078,0,0.145-0.065,0.145-0.146v-1.438c0-0.079-0.062-0.146-0.145-0.146h-0.086         c-0.078,0-0.146,0.065-0.146,0.146v1.438c0,0.078,0.064,0.146,0.146,0.146H-59.403z"
   id="path374" />
						</g>
						<g
   id="g376">
							<path
   fill="#676767"
   d="M-59.403,140.658c0.078,0,0.145-0.062,0.145-0.146v-1.438c0-0.078-0.062-0.145-0.145-0.145h-0.086         c-0.078,0-0.146,0.062-0.146,0.145v1.438c0,0.08,0.064,0.146,0.146,0.146H-59.403z"
   id="path378" />
						</g>
						<g
   id="g380">
							<path
   fill="#676767"
   d="M-59.403,133.454c0.078,0,0.145-0.062,0.145-0.146v-1.438c0-0.078-0.062-0.145-0.145-0.145h-0.086         c-0.078,0-0.146,0.062-0.146,0.145v1.438c0,0.08,0.064,0.146,0.146,0.146H-59.403z"
   id="path382" />
						</g>
					</g>
					<g
   id="g384">
						<g
   id="g386">
							<path
   fill="#B7B7B7"
   d="M-59.507,147.857c0.078,0,0.146-0.065,0.146-0.146v-1.438c0-0.079-0.063-0.146-0.146-0.146         l-1.781,0.001c-0.08,0-0.146,0.065-0.146,0.146v1.438c0,0.078,0.063,0.146,0.146,0.146L-59.507,147.857z"
   id="path388" />
						</g>
						<g
   id="g390">
							<path
   fill="#B7B7B7"
   d="M-59.507,140.658c0.078,0,0.146-0.062,0.146-0.146v-1.438c0-0.078-0.063-0.145-0.146-0.145         l-1.781,0.002c-0.08,0-0.146,0.062-0.146,0.145v1.438c0,0.078,0.063,0.145,0.146,0.145L-59.507,140.658z"
   id="path392" />
						</g>
						<g
   id="g394">
							<path
   fill="#B7B7B7"
   d="M-59.507,133.454c0.078,0,0.146-0.062,0.146-0.146v-1.438c0-0.078-0.063-0.145-0.146-0.145         l-1.781,0.002c-0.08,0-0.146,0.062-0.146,0.145v1.438c0,0.079,0.063,0.145,0.146,0.145L-59.507,133.454z"
   id="path396" />
						</g>
					</g>
					<g
   id="g398">
						<g
   id="g400">
							<path
   fill="#B7B7B7"
   d="M-69.34,147.858c0.079,0,0.146-0.065,0.146-0.146v-1.438c0-0.079-0.064-0.146-0.146-0.146h-2.568         c-0.08,0-0.146,0.065-0.146,0.146v1.438c0,0.078,0.065,0.146,0.146,0.146H-69.34z"
   id="path402" />
						</g>
						<g
   id="g404">
							<path
   fill="#B7B7B7"
   d="M-69.34,140.658c0.079,0,0.146-0.062,0.146-0.145v-1.438c0-0.078-0.064-0.145-0.146-0.145h-2.568         c-0.08,0.002-0.146,0.062-0.146,0.145v1.438c0,0.08,0.065,0.145,0.146,0.145H-69.34z"
   id="path406" />
						</g>
						<g
   id="g408">
							<path
   fill="#B7B7B7"
   d="M-69.34,133.456c0.079,0,0.146-0.062,0.146-0.145v-1.438c0-0.078-0.064-0.145-0.146-0.145h-2.568         c-0.08,0.002-0.146,0.062-0.146,0.145v1.438c0,0.078,0.065,0.145,0.146,0.145H-69.34L-69.34,133.456z"
   id="path410" />
						</g>
					</g>
				</g>
			</g>
			
				<rect
   x="-75.957"
   y="135.042"
   transform="matrix(2.578893e-06 1 -1 2.578893e-06 74.1003 205.4874)"
   fill="#1F1F1F"
   width="20.527"
   height="9.504"
   id="rect412" />
			
				<rect
   x="-73.707"
   y="138.455"
   transform="matrix(2.578893e-06 1 -1 2.578893e-06 71.4103 208.1802)"
   fill="#F2F2F2"
   width="10.644"
   height="2.682"
   id="rect414" />
			
				<rect
   x="-72.299"
   y="139.729"
   transform="matrix(2.578893e-06 1 -1 2.578893e-06 72.8185 206.775)"
   fill="#CDCCCC"
   width="10.641"
   height="0.136"
   id="rect416" />
			<path
   fill="#888989"
   d="M-67.959,131.06c0,0.229-0.189,0.201-0.431,0.201h-2.06v3.646c0,0.231,0.188,0.426,0.427,0.426h3.215     c0.231,0,0.429,0.189,0.429,0.429v8.067c0,0.232-0.189,0.425-0.429,0.425h-3.215c-0.229,0-0.427,0.191-0.427,0.43v3.646h2.06     c0.233,0,0.433-0.021,0.433,0.203v1.278c0,0.232,0.188,0.247,0.424,0.247h3.892c0.234,0,0.426-0.015,0.426-0.247v-1.277     c0-0.229,0.191-0.203,0.432-0.203h1.833v-17.063h-1.836c-0.232,0-0.431,0.021-0.431-0.203v-1.277     c0-0.233-0.188-0.248-0.426-0.248h-3.89c-0.232,0-0.426,0.015-0.426,0.248V131.06z"
   id="path418" />
			<g
   id="g420">
				<path
   opacity="0.3"
   fill="#FFFFFF"
   enable-background="new    "
   d="M-63.225,149.811v-0.238h-4.742v0.238      c0,0.232,0.191,0.248,0.43,0.248h3.894C-63.414,150.06-63.225,150.051-63.225,149.811z"
   id="path422" />
				
					<rect
   x="-65.837"
   y="146.957"
   transform="matrix(2.578893e-06 1 -1 2.578893e-06 83.7331 214.9229)"
   opacity="0.1"
   fill="#FFFFFF"
   enable-background="new    "
   width="0.484"
   height="4.742"
   id="rect424" />
			</g>
			<g
   id="g426">
				<path
   opacity="0.3"
   fill="#FFFFFF"
   enable-background="new    "
   d="M-63.225,129.783v0.238h-4.742v-0.238      c0-0.232,0.191-0.248,0.43-0.248h3.894C-63.414,129.533-63.225,129.542-63.225,129.783z"
   id="path428" />
				
					<rect
   x="-65.837"
   y="127.893"
   transform="matrix(2.578893e-06 1 -1 2.578893e-06 64.6696 195.8565)"
   opacity="0.1"
   fill="#FFFFFF"
   enable-background="new    "
   width="0.487"
   height="4.741"
   id="rect430" />
			</g>
			<path
   fill="#888989"
   d="M-62.311,132.967c0.289,0,0.525,0.25,0.525,0.559v12.547c0,0.312-0.236,0.562-0.525,0.562     s-0.521-0.25-0.521-0.562v-12.549C-62.833,133.214-62.6,132.967-62.311,132.967z"
   id="path432" />
			<g
   id="g434">
				<path
   fill="#676767"
   d="M-62.833,133.523v12.547c0,0.309,0.231,0.559,0.521,0.559v-0.233c-0.158,0-0.287-0.146-0.287-0.318      v-12.55c0-0.176,0.129-0.318,0.287-0.318v-0.23C-62.6,132.967-62.833,133.214-62.833,133.523z"
   id="path436" />
				<path
   opacity="0.3"
   fill="#FFFFFF"
   enable-background="new    "
   d="M-62.024,133.523v12.547c0,0.178-0.129,0.317-0.287,0.317      v0.234c0.289,0,0.525-0.25,0.525-0.559V133.52c0-0.31-0.236-0.56-0.525-0.56v0.235      C-62.153,133.202-62.024,133.348-62.024,133.523z"
   id="path438" />
			</g>
			<g
   id="g440">
				<path
   opacity="0.3"
   fill="#FFFFFF"
   enable-background="new    "
   d="M-70.791,150.06h2.125c0.151,0,0.281-0.016,0.281-0.248      v-0.238h-2.406V150.06z"
   id="path442" />
				
					<rect
   x="-69.831"
   y="148.121"
   transform="matrix(2.578893e-06 1 -1 2.578893e-06 79.739 218.9131)"
   opacity="0.1"
   fill="#FFFFFF"
   enable-background="new    "
   width="0.486"
   height="2.41"
   id="rect444" />
			</g>
			<g
   id="g446">
				<path
   opacity="0.3"
   fill="#FFFFFF"
   enable-background="new    "
   d="M-60.968,150.06h-1.565c-0.157,0-0.287-0.016-0.287-0.248      v-0.238h1.854L-60.968,150.06L-60.968,150.06z"
   id="path448" />
				
					<rect
   x="-62.139"
   y="148.399"
   transform="matrix(2.578893e-06 1 -1 2.578893e-06 87.4303 211.2227)"
   opacity="0.1"
   fill="#FFFFFF"
   enable-background="new    "
   width="0.485"
   height="1.854"
   id="rect450" />
			</g>
			<g
   id="g452">
				<path
   opacity="0.3"
   fill="#FFFFFF"
   enable-background="new    "
   d="M-70.791,129.533h2.125c0.151,0,0.281,0.013,0.281,0.248      v0.238h-2.406V129.533z"
   id="path454" />
				
					<rect
   x="-69.826"
   y="129.055"
   transform="matrix(2.578893e-06 1 -1 2.578893e-06 60.676 199.8453)"
   opacity="0.1"
   fill="#FFFFFF"
   enable-background="new    "
   width="0.482"
   height="2.411"
   id="rect456" />
			</g>
			<g
   id="g458">
				<path
   opacity="0.3"
   fill="#FFFFFF"
   enable-background="new    "
   d="M-60.968,129.533h-1.565c-0.157,0-0.287,0.013-0.287,0.248      v0.238h1.854L-60.968,129.533L-60.968,129.533z"
   id="path460" />
				
					<rect
   x="-62.137"
   y="129.333"
   transform="matrix(2.578893e-06 1 -1 2.578893e-06 68.3654 192.1549)"
   opacity="0.1"
   fill="#FFFFFF"
   enable-background="new    "
   width="0.483"
   height="1.854"
   id="rect462" />
			</g>
			
				<rect
   x="-71.581"
   y="146.748"
   transform="matrix(2.578893e-06 1 -1 2.578893e-06 76.2805 217.7144)"
   fill="#CDCCCC"
   width="1.728"
   height="0.5"
   id="rect464" />
			
				<rect
   x="-71.557"
   y="139.545"
   transform="matrix(2.578893e-06 1 -1 2.578893e-06 69.1003 210.4893)"
   fill="#CDCCCC"
   width="1.725"
   height="0.5"
   id="rect466" />
			
				<rect
   x="-71.583"
   y="132.345"
   transform="matrix(2.578893e-06 1 -1 2.578893e-06 61.8771 203.3131)"
   fill="#CDCCCC"
   width="1.729"
   height="0.5"
   id="rect468" />
			<g
   id="g470">
				<path
   fill="#F2F2F2"
   d="M-67.859,139.988c0.156,0,0.283,0.127,0.283,0.283v3.557c0,0.155-0.127,0.283-0.283,0.283h-2.232      c-0.15,0-0.277-0.127-0.277-0.283v-3.557c0-0.156,0.127-0.283,0.277-0.283H-67.859z"
   id="path472" />
				<g
   opacity="0.59"
   id="g474">
					<path
   fill="none"
   stroke="#FFFFFF"
   stroke-width="0.1899"
   stroke-linecap="round"
   stroke-miterlimit="10"
   d="M-67.775,143.87       h-2.229c-0.098,0-0.174-0.075-0.174-0.171v-3.469"
   id="path476" />
				</g>
				<path
   fill="#CDCCCC"
   d="M-67.859,139.988c0.156,0,0.283,0.127,0.283,0.283v3.557c0,0.155-0.127,0.283-0.283,0.283h0.812      c0.125,0,0.277-0.127,0.277-0.283v-3.557c0-0.156-0.125-0.283-0.277-0.283H-67.859z"
   id="path478" />
				<g
   opacity="0.2"
   id="g480">
					<path
   fill="none"
   stroke="#464545"
   stroke-width="0.1899"
   stroke-linecap="round"
   stroke-miterlimit="10"
   d="M-70.175,140.23       h2.229c0.094,0,0.172,0.076,0.172,0.17v3.47"
   id="path482" />
				</g>
				<g
   opacity="0.2"
   id="g484">
					<path
   fill="none"
   stroke="#010202"
   stroke-width="0.1899"
   stroke-linecap="round"
   stroke-miterlimit="10"
   d="M-66.912,140.23       v3.64"
   id="path486" />
				</g>
				
					<path
   opacity="0.85"
   fill="none"
   stroke="#FFFFFF"
   stroke-width="0.1899"
   stroke-linecap="round"
   stroke-miterlimit="10"
   enable-background="new    "
   d="      M-68.443,142.579c-0.295,0.295-0.771,0.295-1.063,0.002c-0.298-0.293-0.296-0.77,0-1.062"
   id="path488" />
				
					<path
   opacity="0.2"
   fill="none"
   stroke="#464545"
   stroke-width="0.1899"
   stroke-linecap="round"
   stroke-miterlimit="10"
   enable-background="new    "
   d="      M-69.507,141.52c0.298-0.293,0.771-0.293,1.063,0c0.295,0.293,0.293,0.77,0,1.061"
   id="path490" />
			</g>
			
				<rect
   x="-61.594"
   y="146.743"
   transform="matrix(2.578893e-06 1 -1 2.578893e-06 86.2633 207.7227)"
   fill="#CDCCCC"
   width="1.729"
   height="0.5"
   id="rect492" />
			
				<rect
   x="-61.592"
   y="139.541"
   transform="matrix(2.578893e-06 1 -1 2.578893e-06 79.0627 200.5201)"
   fill="#CDCCCC"
   width="1.726"
   height="0.5"
   id="rect494" />
			
				<rect
   x="-61.595"
   y="132.344"
   transform="matrix(2.578893e-06 1 -1 2.578893e-06 71.8634 193.3248)"
   fill="#CDCCCC"
   width="1.728"
   height="0.5"
   id="rect496" />
			
				<rect
   x="-69.548"
   y="139.722"
   transform="matrix(2.578893e-06 1 -1 2.578893e-06 78.7804 200.8111)"
   fill="#676767"
   width="17.064"
   height="0.147"
   id="rect498" />
			<g
   id="g500">
				<path
   fill="#676767"
   d="M-62.665,148.33c-0.233,0-0.431-0.021-0.431,0.203v1.278c0,0.232-0.188,0.248-0.426,0.248h-0.123      c0.232,0,0.426-0.016,0.426-0.248v-1.277c0-0.229,0.19-0.203,0.43-0.203L-62.665,148.33L-62.665,148.33z"
   id="path502" />
			</g>
			<g
   id="g504">
				<path
   fill="#676767"
   d="M-62.79,131.261c-0.233,0-0.431,0.021-0.431-0.201v-1.277c0-0.238-0.188-0.248-0.426-0.248h0.125      c0.233,0,0.426,0.01,0.426,0.248v1.277c0,0.229,0.19,0.201,0.431,0.201H-62.79z"
   id="path506" />
			</g>
		</g>
	</g>
</g>
<g
   id="tactile_switch_smd_2_"
   transform="matrix(1, 0, 0, 1, 32.133, 37.8033)">
	<g
   transform="matrix(0, 1, -1, 0, 15.103, -0.001008)"
   id="g509">
		<g
   id="tactile_switch_smd_1_"
   transform="matrix(1, 0, 0, 1, 17.004, 77.8536)">
			<g
   transform="matrix(-1, 0, 0, -1, 16.392, 16.373)"
   id="g512">
				<g
   id="tactile_switch_smd"
   transform="matrix(1, 0, 0, 1, 17.021, 74.628)">
					<g
   transform="matrix(-1, 0, 0, -1, 16.392, 16.392)"
   id="g515">
						<polygon
   fill="#6E6E6E"
   points="3.835,-53.855 5.928,-51.76 14.74,-51.76 16.833,-53.855 16.833,-62.668 14.74,-64.76         5.928,-64.76 3.835,-62.668       "
   id="polygon517" />
						
							<rect
   x="2.783"
   y="-62.665"
   transform="matrix(2.578893e-06 1 -1 2.578893e-06 -47.9253 -68.5929)"
   fill="#6E6E6E"
   width="15.103"
   height="8.812"
   id="rect519" />
						
							<rect
   x="5.928"
   y="-65.813"
   transform="matrix(2.578893e-06 1 -1 2.578893e-06 -47.9278 -68.5953)"
   fill="#6E6E6E"
   width="8.812"
   height="15.104"
   id="rect521" />
						<polygon
   fill="#7F8080"
   points="4.467,-54.284 6.357,-52.392 14.313,-52.392 16.203,-54.284 16.203,-62.239 14.313,-64.129         6.357,-64.129 4.467,-62.239       "
   id="polygon523" />
						
							<polyline
   opacity="0.2"
   fill="none"
   stroke="#FFFFFF"
   stroke-width="0.2183"
   stroke-miterlimit="10"
   enable-background="new    "
   points="        6.566,-63.822 4.775,-62.031 4.775,-54.491 6.566,-52.699 14.105,-52.699       "
   id="polyline525" />
						
							<polyline
   opacity="0.2"
   fill="none"
   stroke="#626161"
   stroke-width="0.2183"
   stroke-miterlimit="10"
   enable-background="new    "
   points="        14.105,-52.699 15.897,-54.49 15.897,-62.03 14.105,-63.822 6.567,-63.822       "
   id="polyline527" />
						<g
   id="g529">
							<path
   fill="#BCA16A"
   d="M10.335-54.825c-1.894,0-3.435-1.541-3.435-3.436c0-1.896,1.541-3.438,3.435-3.438         c1.896,0,3.438,1.541,3.438,3.438C13.766-56.367,12.229-54.825,10.335-54.825z"
   id="path531" />
							<path
   fill="#626161"
   d="M10.335-61.463c1.771,0,3.204,1.438,3.204,3.204c0,1.77-1.437,3.204-3.204,3.204         c-1.77,0-3.204-1.438-3.204-3.204C7.131-60.031,8.566-61.463,10.335-61.463 M10.335-61.924c-2.021,0-3.665,1.644-3.665,3.664         c0,2.02,1.646,3.666,3.665,3.666c2.021,0,3.665-1.646,3.665-3.666C13.997-60.282,12.355-61.924,10.335-61.924L10.335-61.924z         "
   id="path533" />
						</g>
						
							<path
   opacity="0.2"
   fill="#BCA16A"
   stroke="#FFFFFF"
   stroke-width="0.4887"
   stroke-miterlimit="10"
   enable-background="new    "
   d="        M12.356-56.241c-1.116,1.117-2.932,1.117-4.045,0c-1.116-1.114-1.116-2.927,0-4.044"
   id="path535" />
						
							<path
   opacity="0.2"
   fill="#BCA16A"
   stroke="#626161"
   stroke-width="0.4887"
   stroke-miterlimit="10"
   enable-background="new    "
   d="        M8.313-60.284c1.112-1.113,2.928-1.113,4.044,0c1.113,1.117,1.113,2.931,0,4.044"
   id="path537" />
					</g>
				</g>
			</g>
		</g>
	</g>
</g>
<g
   id="led-0603"
   transform="matrix(1, 0, 0, 1, 97.5593, 79.4261)">
	<g
   transform="matrix(0, -1, 1, 0, -2.0035, 4.5385)"
   id="g540">
		<g
   id="led-0603_1_"
   transform="matrix(1, 0, 0, 1, 21.5539, 31.3385)">
			<g
   transform="matrix(0, -1, 1, 0, 1.7065, 4.8135)"
   id="g543">
				<g
   id="g545">
					<g
   id="g547">
						<rect
   x="66.264"
   y="1.72"
   fill="#DCDCDC"
   width="1.397"
   height="6.422"
   id="rect549" />
						<line
   fill="none"
   x1="67.625"
   y1="8.142"
   x2="67.625"
   y2="1.72"
   id="line551" />
					</g>
					<g
   id="g553">
						<rect
   x="65.153"
   y="2.68"
   fill="#F2F2F2"
   width="2.475"
   height="4.506"
   id="rect555" />
						<path
   fill="#35AE73"
   fill-opacity="0.7"
   d="M67.627,3.393c0,0-0.467,0.168-0.426-0.052c0.041-0.218-0.146-0.54,0-0.676        l0.424,0.015L67.627,3.393z"
   id="path557" />
						<g
   id="g559">
							<g
   id="g561">
								<rect
   x="65.843"
   y="4.504"
   fill="#FFFFFF"
   width="0.964"
   height="0.854"
   id="rect563" />
								<rect
   x="66.782"
   y="4.503"
   fill="#B4B4B4"
   width="0.05"
   height="0.854"
   id="rect565" />
							</g>
							<g
   id="g567">
								<polygon
   fill="#D1C690"
   points="67.204,3.629 67.308,2.667 66.577,2.667 66.681,3.629         "
   id="polygon569" />
								<g
   id="g571">
									<path
   fill="#D1C690"
   d="M67.004,3.341c0,0.002,0,0.005,0,0.007C66.972,3.619,66.9,3.797,66.843,3.95           c-0.077,0.209-0.142,0.357-0.056,0.633c0.012,0.023-0.01,0.059-0.043,0.062c-0.035,0.009-0.067-0.009-0.078-0.039           c-0.094-0.303-0.021-0.478,0.062-0.693c0.059-0.148,0.123-0.318,0.152-0.572c0.005-0.03,0.033-0.054,0.068-0.049           C66.981,3.291,67.004,3.314,67.004,3.341z"
   id="path573" />
								</g>
								<polygon
   fill="#D1C690"
   points="65.673,6.231 65.571,7.2 66.299,7.2 66.198,6.231         "
   id="polygon575" />
								<g
   id="g577">
									<path
   fill="#D1C690"
   d="M66.479,4.974c0,0.025-0.021,0.049-0.047,0.059c-0.291,0.062-0.42,0.945-0.438,1.488           c0,0.033-0.026,0.061-0.062,0.061c-0.035-0.002-0.063-0.025-0.063-0.061V6.519c0.004-0.148,0.053-1.498,0.529-1.6           c0.035-0.007,0.064,0.012,0.078,0.042C66.479,4.965,66.479,4.969,66.479,4.974z"
   id="path579" />
								</g>
								<path
   fill="#D1C690"
   d="M66.495,4.504c0,0-0.002,0.354,0.313,0.382c0-0.071,0-0.382,0-0.382H66.495z"
   id="path581" />
								<path
   fill="#D1C690"
   d="M66.174,4.938c0,0,0.309-0.154,0.354-0.052c0.047,0.107,0.051,0.178-0.029,0.24          C66.415,5.187,66.174,4.938,66.174,4.938z"
   id="path583" />
								<path
   fill="#9D956C"
   d="M66.846,4.58C66.758,4.308,66.82,4.157,66.9,3.948c0.059-0.147,0.127-0.331,0.162-0.602          l-0.061-0.001c-0.031,0.271-0.104,0.449-0.162,0.602c-0.076,0.209-0.141,0.357-0.055,0.633H66.846z"
   id="path585" />
								<polygon
   fill="#9D956C"
   points="66.252,6.231 66.356,7.2 66.299,7.2 66.198,6.231         "
   id="polygon587" />
								<path
   fill="#9D956C"
   d="M66.489,5.032c-0.291,0.061-0.42,0.943-0.434,1.488h-0.062c0.02-0.545,0.146-1.434,0.438-1.49          L66.489,5.032z"
   id="path589" />
								<path
   fill="#9D956C"
   d="M66.862,4.887c0-0.071,0-0.382,0-0.382h-0.057c0,0,0,0.311,0,0.382H66.862z"
   id="path591" />
								<path
   fill="#9D956C"
   d="M66.549,5.128c0.08-0.063,0.076-0.131,0.031-0.239l-0.059-0.001c0.049,0.107,0.051,0.178-0.029,0.24          H66.549z"
   id="path593" />
							</g>
						</g>
						<rect
   x="65.153"
   y="3.202"
   opacity="0.5"
   fill="#FFFFFF"
   enable-background="new    "
   width="0.051"
   height="3.462"
   id="rect595" />
						<g
   opacity="0.25"
   id="g597">
							<path
   fill="#FFFFFF"
   d="M65.901,5.472c-0.049,0-0.088-0.035-0.088-0.076V5.071c0-0.044-0.039-0.075-0.086-0.075h-0.033         c0.049,0,0.088,0.031,0.088,0.075v0.325c0,0.043,0.039,0.078,0.086,0.078L65.901,5.472L65.901,5.472z"
   id="path599" />
							<path
   fill="#FFFFFF"
   d="M65.573,3.481c-0.049,0-0.088,0.036-0.088,0.077v1.356c0,0.043,0.039,0.076,0.088,0.076H65.54         c-0.049,0-0.088-0.032-0.088-0.076V3.558c0-0.041,0.039-0.077,0.088-0.077H65.573z"
   id="path601" />
							<path
   fill="#FFFFFF"
   d="M67.045,3.202v0.207c0,0.041-0.039,0.071-0.088,0.071h-0.03c0.05,0,0.089-0.03,0.089-0.071V3.203         L67.045,3.202L67.045,3.202z"
   id="path603" />
							<path
   fill="#FFFFFF"
   d="M65.485,6.665V5.635c0-0.041,0.039-0.078,0.088-0.078H65.54c-0.049,0-0.088,0.035-0.088,0.078v1.029         H65.485L65.485,6.665z"
   id="path605" />
						</g>
						<g
   id="g607">
							<path
   opacity="0.5"
   fill="#F2F2F2"
   enable-background="new    "
   d="M65.153,7.183h2.475V2.678h-2.475V7.183z"
   id="path609" />
							<path
   opacity="0.55"
   fill="#FFFFFF"
   enable-background="new    "
   d="M65.806,7.132h-0.271         c-0.152-0.016-0.27,0.012-0.27-0.096c0-0.613,0-3.944,0-4.1c0-0.167,0.062-0.175,0.062,0.016c0,0.131,0,3.133,0,3.586         c0,0.457,0.105,0.518,0.197,0.518l0.271-0.002C65.979,7.054,65.979,7.132,65.806,7.132z"
   id="path611" />
							<path
   opacity="0.03"
   fill="#010202"
   enable-background="new    "
   d="M67.407,2.728c0.068,0,0.137-0.012,0.137,0.101         c0,0.608,0,3.94,0,4.095c0,0.168-0.062,0.176-0.062-0.008c0-0.139-0.002-3.141-0.002-3.591         C67.476,2.728,67.407,2.728,67.407,2.728z"
   id="path613" />
						</g>
					</g>
					<g
   id="g615">
						<path
   fill="#D1C690"
   d="M67.627,8.14v-0.77h-0.52c-0.125,0-0.213-0.082-0.271-0.188h-1.688v1.009h2.426h0.049"
   id="path617" />
						<rect
   x="65.153"
   y="7.183"
   opacity="0.5"
   fill="#FFFFFF"
   enable-background="new    "
   width="0.051"
   height="1.006"
   id="rect619" />
					</g>
					<g
   id="g621">
						<path
   fill="#D1C690"
   d="M67.627,1.671h-0.049h-2.426V2.68h2.104c0.059-0.104,0.146-0.188,0.271-0.188h0.098V1.721"
   id="path623" />
						<rect
   x="65.153"
   y="1.671"
   opacity="0.5"
   fill="#FFFFFF"
   enable-background="new    "
   width="0.051"
   height="1.01"
   id="rect625" />
					</g>
				</g>
			</g>
		</g>
	</g>
</g>
<g
   id="led-0603_2_"
   transform="matrix(1, 0, 0, 1, 97.5593, 79.4261)">
	<g
   transform="matrix(0, -1, 1, 0, -2.0035, 4.5385)"
   id="g628">
		<g
   id="led-0603_3_"
   transform="matrix(1, 0, 0, 1, 21.5539, 31.3385)">
			<g
   transform="matrix(0, -1, 1, 0, 1.7065, 4.8135)"
   id="g631">
				<g
   id="g633">
					<g
   id="g635">
						<rect
   x="60.078"
   y="1.72"
   fill="#DCDCDC"
   width="1.397"
   height="6.422"
   id="rect637" />
						<line
   fill="none"
   x1="61.438"
   y1="8.142"
   x2="61.438"
   y2="1.72"
   id="line639" />
					</g>
					<g
   id="g641">
						<rect
   x="58.967"
   y="2.68"
   fill="#F2F2F2"
   width="2.475"
   height="4.506"
   id="rect643" />
						<path
   fill="#35AE73"
   fill-opacity="0.7"
   d="M61.44,3.393c0,0-0.467,0.168-0.426-0.052c0.041-0.218-0.146-0.54,0-0.676        l0.424,0.015L61.44,3.393z"
   id="path645" />
						<g
   id="g647">
							<g
   id="g649">
								<rect
   x="59.656"
   y="4.504"
   fill="#FFFFFF"
   width="0.964"
   height="0.854"
   id="rect651" />
								<rect
   x="60.596"
   y="4.503"
   fill="#B4B4B4"
   width="0.05"
   height="0.854"
   id="rect653" />
							</g>
							<g
   id="g655">
								<polygon
   fill="#D1C690"
   points="61.017,3.629 61.122,2.667 60.39,2.667 60.495,3.629         "
   id="polygon657" />
								<g
   id="g659">
									<path
   fill="#D1C690"
   d="M60.817,3.341c0,0.002,0,0.005,0,0.007c-0.031,0.271-0.104,0.449-0.161,0.602           c-0.077,0.209-0.142,0.357-0.056,0.633c0.012,0.023-0.01,0.059-0.043,0.062c-0.035,0.009-0.067-0.009-0.078-0.039           c-0.094-0.303-0.021-0.478,0.062-0.693c0.059-0.148,0.123-0.318,0.152-0.572c0.005-0.03,0.033-0.054,0.068-0.049           C60.795,3.291,60.817,3.314,60.817,3.341z"
   id="path661" />
								</g>
								<polygon
   fill="#D1C690"
   points="59.486,6.231 59.385,7.2 60.112,7.2 60.012,6.231         "
   id="polygon663" />
								<g
   id="g665">
									<path
   fill="#D1C690"
   d="M60.293,4.974c0,0.025-0.021,0.049-0.047,0.059c-0.291,0.062-0.42,0.945-0.438,1.488           c0,0.033-0.026,0.061-0.062,0.061c-0.035-0.002-0.063-0.025-0.063-0.061V6.519c0.004-0.148,0.053-1.498,0.529-1.6           c0.035-0.007,0.064,0.012,0.078,0.042C60.293,4.965,60.293,4.969,60.293,4.974z"
   id="path667" />
								</g>
								<path
   fill="#D1C690"
   d="M60.308,4.504c0,0-0.002,0.354,0.313,0.382c0-0.071,0-0.382,0-0.382H60.308z"
   id="path669" />
								<path
   fill="#D1C690"
   d="M59.987,4.938c0,0,0.309-0.154,0.354-0.052c0.047,0.107,0.051,0.178-0.029,0.24          C60.228,5.187,59.987,4.938,59.987,4.938z"
   id="path671" />
								<path
   fill="#9D956C"
   d="M60.659,4.58c-0.088-0.271-0.025-0.423,0.055-0.632c0.059-0.147,0.127-0.331,0.162-0.602          l-0.061-0.001c-0.031,0.271-0.104,0.449-0.162,0.602c-0.076,0.209-0.141,0.357-0.055,0.633H60.659z"
   id="path673" />
								<polygon
   fill="#9D956C"
   points="60.065,6.231 60.17,7.2 60.112,7.2 60.012,6.231         "
   id="polygon675" />
								<path
   fill="#9D956C"
   d="M60.303,5.032c-0.291,0.061-0.42,0.943-0.434,1.488h-0.062c0.02-0.545,0.146-1.434,0.438-1.49          L60.303,5.032z"
   id="path677" />
								<path
   fill="#9D956C"
   d="M60.676,4.887c0-0.071,0-0.382,0-0.382h-0.057c0,0,0,0.311,0,0.382H60.676z"
   id="path679" />
								<path
   fill="#9D956C"
   d="M60.362,5.128c0.08-0.063,0.076-0.131,0.031-0.239l-0.059-0.001c0.049,0.107,0.051,0.178-0.029,0.24          H60.362z"
   id="path681" />
							</g>
						</g>
						<rect
   x="58.967"
   y="3.202"
   opacity="0.5"
   fill="#FFFFFF"
   enable-background="new    "
   width="0.051"
   height="3.462"
   id="rect683" />
						<g
   opacity="0.25"
   id="g685">
							<path
   fill="#FFFFFF"
   d="M59.715,5.472c-0.049,0-0.088-0.035-0.088-0.076V5.071c0-0.044-0.039-0.075-0.086-0.075h-0.033         c0.049,0,0.088,0.031,0.088,0.075v0.325c0,0.043,0.039,0.078,0.086,0.078L59.715,5.472L59.715,5.472z"
   id="path687" />
							<path
   fill="#FFFFFF"
   d="M59.387,3.481c-0.049,0-0.088,0.036-0.088,0.077v1.356c0,0.043,0.039,0.076,0.088,0.076h-0.033         c-0.049,0-0.088-0.032-0.088-0.076V3.558c0-0.041,0.039-0.077,0.088-0.077H59.387z"
   id="path689" />
							<path
   fill="#FFFFFF"
   d="M60.858,3.202v0.207c0,0.041-0.039,0.071-0.088,0.071h-0.03c0.05,0,0.089-0.03,0.089-0.071V3.203         L60.858,3.202L60.858,3.202z"
   id="path691" />
							<path
   fill="#FFFFFF"
   d="M59.299,6.665V5.635c0-0.041,0.039-0.078,0.088-0.078h-0.033c-0.049,0-0.088,0.035-0.088,0.078v1.029         H59.299L59.299,6.665z"
   id="path693" />
						</g>
						<g
   id="g695">
							<path
   opacity="0.5"
   fill="#F2F2F2"
   enable-background="new    "
   d="M58.967,7.183h2.475V2.678h-2.475V7.183z"
   id="path697" />
							<path
   opacity="0.55"
   fill="#FFFFFF"
   enable-background="new    "
   d="M59.62,7.132h-0.271c-0.152-0.016-0.27,0.012-0.27-0.096         c0-0.613,0-3.944,0-4.1c0-0.167,0.062-0.175,0.062,0.016c0,0.131,0,3.133,0,3.586c0,0.457,0.105,0.518,0.197,0.518         l0.271-0.002C59.793,7.054,59.793,7.132,59.62,7.132z"
   id="path699" />
							<path
   opacity="0.03"
   fill="#010202"
   enable-background="new    "
   d="M61.221,2.728c0.068,0,0.137-0.012,0.137,0.101         c0,0.608,0,3.94,0,4.095c0,0.168-0.062,0.176-0.062-0.008c0-0.139-0.002-3.141-0.002-3.591         C61.29,2.728,61.221,2.728,61.221,2.728z"
   id="path701" />
						</g>
					</g>
					<g
   id="g703">
						<path
   fill="#D1C690"
   d="M61.44,8.14v-0.77h-0.52c-0.125,0-0.213-0.082-0.271-0.188h-1.688v1.009h2.426h0.049"
   id="path705" />
						<rect
   x="58.967"
   y="7.183"
   opacity="0.5"
   fill="#FFFFFF"
   enable-background="new    "
   width="0.051"
   height="1.006"
   id="rect707" />
					</g>
					<g
   id="g709">
						<path
   fill="#D1C690"
   d="M61.44,1.671h-0.049h-2.426V2.68h2.104c0.059-0.104,0.146-0.188,0.271-0.188h0.098V1.721"
   id="path711" />
						<rect
   x="58.967"
   y="1.671"
   opacity="0.5"
   fill="#FFFFFF"
   enable-background="new    "
   width="0.051"
   height="1.01"
   id="rect713" />
					</g>
				</g>
			</g>
		</g>
	</g>
</g>
<g
   id="led-0603_4_"
   transform="matrix(1, 0, 0, 1, 97.5593, 79.4261)">
	<g
   transform="matrix(0, -1, 1, 0, -2.0035, 4.5385)"
   id="g716">
		<g
   id="led-0603_5_"
   transform="matrix(1, 0, 0, 1, 21.5539, 31.3385)">
			<g
   transform="matrix(0, -1, 1, 0, 1.7065, 4.8135)"
   id="g719">
				<g
   id="g721">
					<g
   id="g723">
						<rect
   x="54.124"
   y="1.72"
   fill="#DCDCDC"
   width="1.397"
   height="6.422"
   id="rect725" />
						<line
   fill="none"
   x1="55.484"
   y1="8.142"
   x2="55.484"
   y2="1.72"
   id="line727" />
					</g>
					<g
   id="g729">
						<rect
   x="53.013"
   y="2.68"
   fill="#F2F2F2"
   width="2.475"
   height="4.506"
   id="rect731" />
						<path
   fill="#35AE73"
   fill-opacity="0.7"
   d="M55.486,3.393c0,0-0.467,0.168-0.426-0.052c0.041-0.218-0.146-0.54,0-0.676        l0.424,0.015L55.486,3.393z"
   id="path733" />
						<g
   id="g735">
							<g
   id="g737">
								<rect
   x="53.702"
   y="4.504"
   fill="#FFFFFF"
   width="0.964"
   height="0.854"
   id="rect739" />
								<rect
   x="54.641"
   y="4.503"
   fill="#B4B4B4"
   width="0.05"
   height="0.854"
   id="rect741" />
							</g>
							<g
   id="g743">
								<polygon
   fill="#D1C690"
   points="55.063,3.629 55.168,2.667 54.436,2.667 54.541,3.629         "
   id="polygon745" />
								<g
   id="g747">
									<path
   fill="#D1C690"
   d="M54.863,3.341c0,0.002,0,0.005,0,0.007c-0.031,0.271-0.104,0.449-0.161,0.602           c-0.077,0.209-0.142,0.357-0.056,0.633c0.012,0.023-0.01,0.059-0.043,0.062c-0.035,0.009-0.067-0.009-0.078-0.039           c-0.094-0.303-0.021-0.478,0.062-0.693c0.059-0.148,0.123-0.318,0.152-0.572c0.005-0.03,0.033-0.054,0.068-0.049           C54.841,3.291,54.863,3.314,54.863,3.341z"
   id="path749" />
								</g>
								<polygon
   fill="#D1C690"
   points="53.532,6.231 53.43,7.2 54.158,7.2 54.057,6.231         "
   id="polygon751" />
								<g
   id="g753">
									<path
   fill="#D1C690"
   d="M54.339,4.974c0,0.025-0.021,0.049-0.047,0.059c-0.291,0.062-0.42,0.945-0.438,1.488           c0,0.033-0.026,0.061-0.062,0.061c-0.035-0.002-0.063-0.025-0.063-0.061V6.519c0.004-0.148,0.053-1.498,0.529-1.6           c0.035-0.007,0.064,0.012,0.078,0.042C54.339,4.965,54.339,4.969,54.339,4.974z"
   id="path755" />
								</g>
								<path
   fill="#D1C690"
   d="M54.354,4.504c0,0-0.002,0.354,0.313,0.382c0-0.071,0-0.382,0-0.382H54.354z"
   id="path757" />
								<path
   fill="#D1C690"
   d="M54.033,4.938c0,0,0.309-0.154,0.354-0.052c0.047,0.107,0.051,0.178-0.029,0.24          C54.274,5.187,54.033,4.938,54.033,4.938z"
   id="path759" />
								<path
   fill="#9D956C"
   d="M54.705,4.58c-0.088-0.271-0.025-0.423,0.055-0.632c0.059-0.147,0.127-0.331,0.162-0.602          l-0.061-0.001c-0.031,0.271-0.104,0.449-0.162,0.602c-0.076,0.209-0.141,0.357-0.055,0.633H54.705z"
   id="path761" />
								<polygon
   fill="#9D956C"
   points="54.111,6.231 54.216,7.2 54.158,7.2 54.057,6.231         "
   id="polygon763" />
								<path
   fill="#9D956C"
   d="M54.348,5.032c-0.291,0.061-0.42,0.943-0.434,1.488h-0.062c0.02-0.545,0.146-1.434,0.438-1.49          L54.348,5.032z"
   id="path765" />
								<path
   fill="#9D956C"
   d="M54.721,4.887c0-0.071,0-0.382,0-0.382h-0.057c0,0,0,0.311,0,0.382H54.721z"
   id="path767" />
								<path
   fill="#9D956C"
   d="M54.408,5.128c0.08-0.063,0.076-0.131,0.031-0.239l-0.059-0.001c0.049,0.107,0.051,0.178-0.029,0.24          H54.408z"
   id="path769" />
							</g>
						</g>
						<rect
   x="53.013"
   y="3.202"
   opacity="0.5"
   fill="#FFFFFF"
   enable-background="new    "
   width="0.051"
   height="3.462"
   id="rect771" />
						<g
   opacity="0.25"
   id="g773">
							<path
   fill="#FFFFFF"
   d="M53.761,5.472c-0.049,0-0.088-0.035-0.088-0.076V5.071c0-0.044-0.039-0.075-0.086-0.075h-0.033         c0.049,0,0.088,0.031,0.088,0.075v0.325c0,0.043,0.039,0.078,0.086,0.078L53.761,5.472L53.761,5.472z"
   id="path775" />
							<path
   fill="#FFFFFF"
   d="M53.432,3.481c-0.049,0-0.088,0.036-0.088,0.077v1.356c0,0.043,0.039,0.076,0.088,0.076h-0.033         c-0.049,0-0.088-0.032-0.088-0.076V3.558c0-0.041,0.039-0.077,0.088-0.077H53.432z"
   id="path777" />
							<path
   fill="#FFFFFF"
   d="M54.904,3.202v0.207c0,0.041-0.039,0.071-0.088,0.071h-0.03c0.05,0,0.089-0.03,0.089-0.071V3.203         L54.904,3.202L54.904,3.202z"
   id="path779" />
							<path
   fill="#FFFFFF"
   d="M53.345,6.665V5.635c0-0.041,0.039-0.078,0.088-0.078h-0.033c-0.049,0-0.088,0.035-0.088,0.078v1.029         H53.345L53.345,6.665z"
   id="path781" />
						</g>
						<g
   id="g783">
							<path
   opacity="0.5"
   fill="#F2F2F2"
   enable-background="new    "
   d="M53.013,7.183h2.475V2.678h-2.475V7.183z"
   id="path785" />
							<path
   opacity="0.55"
   fill="#FFFFFF"
   enable-background="new    "
   d="M53.666,7.132h-0.271         c-0.152-0.016-0.27,0.012-0.27-0.096c0-0.613,0-3.944,0-4.1c0-0.167,0.062-0.175,0.062,0.016c0,0.131,0,3.133,0,3.586         c0,0.457,0.105,0.518,0.197,0.518l0.271-0.002C53.839,7.054,53.839,7.132,53.666,7.132z"
   id="path787" />
							<path
   opacity="0.03"
   fill="#010202"
   enable-background="new    "
   d="M55.266,2.728c0.068,0,0.137-0.012,0.137,0.101         c0,0.608,0,3.94,0,4.095c0,0.168-0.062,0.176-0.062-0.008c0-0.139-0.002-3.141-0.002-3.591         C55.336,2.728,55.266,2.728,55.266,2.728z"
   id="path789" />
						</g>
					</g>
					<g
   id="g791">
						<path
   fill="#D1C690"
   d="M55.486,8.14v-0.77h-0.52c-0.125,0-0.213-0.082-0.271-0.188h-1.688v1.009h2.426h0.049"
   id="path793" />
						<rect
   x="53.013"
   y="7.183"
   opacity="0.5"
   fill="#FFFFFF"
   enable-background="new    "
   width="0.051"
   height="1.006"
   id="rect795" />
					</g>
					<g
   id="g797">
						<path
   fill="#D1C690"
   d="M55.486,1.671h-0.049h-2.426V2.68h2.104c0.059-0.104,0.146-0.188,0.271-0.188h0.098V1.721"
   id="path799" />
						<rect
   x="53.013"
   y="1.671"
   opacity="0.5"
   fill="#FFFFFF"
   enable-background="new    "
   width="0.051"
   height="1.01"
   id="rect801" />
					</g>
				</g>
			</g>
		</g>
	</g>
</g>
<g
   id="_x30_402-res"
   transform="matrix(1, 0, 0, 1, 90.0115, 73.8266)">
	<g
   transform="matrix(0, 1, -1, 0, 4.1145, 1.5555)"
   id="g804">
		<g
   id="_x30_402-res_1_"
   transform="matrix(1, 0, 0, 1, 10.275, 83.3789)">
			<g
   transform="matrix(0, 1, -1, 0, 4.1105, -1.5595)"
   id="g807">
				<g
   id="g809">
					<g
   id="g811">
						<rect
   x="-56.574"
   y="-26.585"
   fill="#343434"
   width="2.56"
   height="5.67"
   id="rect813" />
						<rect
   x="-54.039"
   y="-26.585"
   opacity="0.2"
   fill="#010202"
   enable-background="new    "
   width="0.021"
   height="5.67"
   id="rect815" />
					</g>
					<g
   id="g817">
						<path
   fill="#CDCCCC"
   d="M-56.574-25.764L-56.574-25.764L-56.574-25.764v0.066l0,0c0.171,0.061,0.812,0.102,1.002,0.102        c0.195-0.001,1.38-0.036,1.557-0.102l0.001-0.891h-2.56V-25.764z"
   id="path819" />
						<path
   fill="#CDCCCC"
   d="M-56.504-21.8h-0.067v0.888h2.558V-21.8c-0.181-0.062-1.078-0.117-1.279-0.118        C-55.531-21.919-56.299-21.885-56.504-21.8z"
   id="path821" />
						<rect
   x="-54.047"
   y="-21.801"
   opacity="0.15"
   fill="#010202"
   enable-background="new    "
   width="0.03"
   height="0.889"
   id="rect823" />
						<rect
   x="-56.574"
   y="-21.8"
   opacity="0.5"
   fill="#FFFFFF"
   enable-background="new    "
   width="0.027"
   height="0.888"
   id="rect825" />
						<rect
   x="-54.048"
   y="-26.585"
   opacity="0.15"
   fill="#010202"
   enable-background="new    "
   width="0.031"
   height="0.891"
   id="rect827" />
						<rect
   x="-56.574"
   y="-26.586"
   opacity="0.5"
   fill="#FFFFFF"
   enable-background="new    "
   width="0.027"
   height="0.892"
   id="rect829" />
						<line
   fill="none"
   x1="-54.017"
   y1="-21.458"
   x2="-54.017"
   y2="-21.458"
   id="line831" />
					</g>
				</g>
			</g>
		</g>
		
			<rect
   x="39.653"
   y="26.46"
   transform="matrix(2.578893e-06 1 -1 2.578893e-06 67.4411 -14.407)"
   opacity="0.1"
   fill="#010202"
   enable-background="new    "
   width="2.542"
   height="0.114"
   id="rect833" />
		
			<rect
   x="34.087"
   y="26.458"
   transform="matrix(2.578893e-06 1 -1 2.578893e-06 61.8737 -8.8415)"
   opacity="0.2"
   fill="#FFFFFF"
   enable-background="new    "
   width="2.542"
   height="0.116"
   id="rect835" />
	</g>
</g>
<g
   id="_x30_402-res_2_"
   transform="matrix(1, 0, 0, 1, 90.0115, 73.8266)">
	<g
   transform="matrix(0, 1, -1, 0, 4.1145, 1.5555)"
   id="g838">
		<g
   id="_x30_402-res_3_"
   transform="matrix(1, 0, 0, 1, 10.275, 83.3789)">
			<g
   transform="matrix(0, 1, -1, 0, 4.1105, -1.5595)"
   id="g841">
				<g
   id="g843">
					<g
   id="g845">
						<rect
   x="-71.89"
   y="-26.585"
   fill="#343434"
   width="2.56"
   height="5.67"
   id="rect847" />
						<rect
   x="-69.355"
   y="-26.585"
   opacity="0.2"
   fill="#010202"
   enable-background="new    "
   width="0.021"
   height="5.67"
   id="rect849" />
					</g>
					<g
   id="g851">
						<path
   fill="#CDCCCC"
   d="M-71.89-25.764L-71.89-25.764L-71.89-25.764v0.066l0,0c0.171,0.061,0.812,0.102,1.002,0.102        c0.195-0.001,1.38-0.036,1.557-0.102l0.001-0.891h-2.56V-25.764z"
   id="path853" />
						<path
   fill="#CDCCCC"
   d="M-71.819-21.8h-0.067v0.888h2.558V-21.8c-0.181-0.062-1.078-0.117-1.279-0.118        C-70.847-21.919-71.614-21.885-71.819-21.8z"
   id="path855" />
						<rect
   x="-69.362"
   y="-21.801"
   opacity="0.15"
   fill="#010202"
   enable-background="new    "
   width="0.03"
   height="0.889"
   id="rect857" />
						<rect
   x="-71.89"
   y="-21.8"
   opacity="0.5"
   fill="#FFFFFF"
   enable-background="new    "
   width="0.027"
   height="0.888"
   id="rect859" />
						<rect
   x="-69.363"
   y="-26.585"
   opacity="0.15"
   fill="#010202"
   enable-background="new    "
   width="0.031"
   height="0.891"
   id="rect861" />
						<rect
   x="-71.89"
   y="-26.586"
   opacity="0.5"
   fill="#FFFFFF"
   enable-background="new    "
   width="0.027"
   height="0.892"
   id="rect863" />
						<line
   fill="none"
   x1="-69.332"
   y1="-21.458"
   x2="-69.332"
   y2="-21.458"
   id="line865" />
					</g>
				</g>
			</g>
		</g>
		
			<rect
   x="39.653"
   y="11.145"
   transform="matrix(2.578893e-06 1 -1 2.578893e-06 52.1257 -29.7224)"
   opacity="0.1"
   fill="#010202"
   enable-background="new    "
   width="2.542"
   height="0.114"
   id="rect867" />
		
			<rect
   x="34.087"
   y="11.143"
   transform="matrix(2.578893e-06 1 -1 2.578893e-06 46.5583 -24.1569)"
   opacity="0.2"
   fill="#FFFFFF"
   enable-background="new    "
   width="2.542"
   height="0.116"
   id="rect869" />
	</g>
</g>
<g
   id="sot23-5"
   transform="matrix(1, 0, 0, 1, 31.9363, 87.4649)">
	<g
   transform="matrix(-1, 0, 0, -1, 8.064, 8.47001)"
   id="g872">
		<g
   id="g874">
			<rect
   x="-38.889"
   y="-15.724"
   fill="#9A9999"
   width="1.457"
   height="2.063"
   id="rect876" />
			<rect
   x="-33.368"
   y="-15.724"
   fill="#9A9999"
   width="1.451"
   height="2.063"
   id="rect878" />
			<rect
   x="-38.889"
   y="-13.724"
   opacity="0.2"
   fill="#FFFFFF"
   enable-background="new    "
   width="1.457"
   height="0.063"
   id="rect880" />
			<rect
   x="-36.13"
   y="-13.724"
   opacity="0.2"
   fill="#FFFFFF"
   enable-background="new    "
   width="1.455"
   height="0.063"
   id="rect882" />
			<rect
   x="-33.368"
   y="-13.724"
   opacity="0.2"
   fill="#FFFFFF"
   enable-background="new    "
   width="1.451"
   height="0.063"
   id="rect884" />
			<rect
   x="-36.29"
   y="-22.135"
   fill="#9A9999"
   width="1.775"
   height="2.229"
   id="rect886" />
			<rect
   x="-36.29"
   y="-22.132"
   opacity="0.2"
   fill="#FFFFFF"
   enable-background="new    "
   width="1.775"
   height="0.067"
   id="rect888" />
			<rect
   x="-39.434"
   y="-19.908"
   fill="#313131"
   width="8.064"
   height="4.185"
   id="rect890" />
			<polygon
   fill="#1F2020"
   points="-39.434,-19.907 -31.37,-19.907 -31.673,-19.604 -39.131,-19.604    "
   id="polygon892" />
			<polygon
   fill="#1F2020"
   points="-39.434,-15.723 -31.37,-15.723 -31.673,-16.027 -39.131,-16.027    "
   id="polygon894" />
			<polygon
   fill="#010202"
   points="-39.434,-19.907 -39.434,-15.723 -39.131,-16.027 -39.131,-19.604    "
   id="polygon896" />
			<polygon
   fill="#3D3D3D"
   points="-31.37,-19.907 -31.37,-15.723 -31.673,-16.027 -31.673,-19.604    "
   id="polygon898" />
			<circle
   fill="#1F2020"
   cx="-38.524"
   cy="-16.633"
   r="0.303"
   id="circle900"
   d="m -38.220998,-16.632999 c 0,0.167342 -0.135658,0.303 -0.303,0.303 -0.167343,0 -0.303,-0.135658 -0.303,-0.303 0,-0.167343 0.135657,-0.303 0.303,-0.303 0.167342,0 0.303,0.135657 0.303,0.303 z" />
		</g>
	</g>
</g>
<g
   id="_x31_x06-smd"
   transform="matrix(1, 0, 0, 1, 49.2646, 16.2739)">
	<g
   transform="matrix(-1, 0, 0, -1, 43.203, 39.135)"
   id="g903">
		<g
   id="g905">
			<polyline
   fill="#010202"
   points="0.225,21.342 43.429,21.342 43.429,15.389 0.225,15.389    "
   id="polyline907" />
			<g
   id="g909">
				<polygon
   fill="#B8AF83"
   points="33.778,40.794 33.22,43.14 32.037,43.14 31.479,40.794 31.479,19.91 33.778,19.91     "
   id="polygon911" />
				<polygon
   fill="#E3D7A2"
   points="33.22,43.14 33.378,42.481 31.883,42.481 32.037,43.14     "
   id="polygon913" />
			</g>
			<g
   id="g915">
				<polygon
   fill="#B8AF83"
   points="26.579,40.794 26.02,43.14 24.84,43.14 24.282,40.794 24.282,19.91 26.579,19.91     "
   id="polygon917" />
				<polygon
   fill="#E3D7A2"
   points="26.02,43.14 26.177,42.481 24.682,42.481 24.84,43.14     "
   id="polygon919" />
			</g>
			<g
   id="g921">
				<polygon
   fill="#B8AF83"
   points="19.38,40.794 18.821,43.14 17.64,43.14 17.08,40.794 17.08,19.91 19.38,19.91     "
   id="polygon923" />
				<polygon
   fill="#E3D7A2"
   points="18.821,43.14 18.977,42.481 17.483,42.481 17.64,43.14     "
   id="polygon925" />
			</g>
			<g
   id="g927">
				<polygon
   fill="#B8AF83"
   points="12.181,40.794 11.62,43.14 10.44,43.14 9.883,40.794 9.883,19.91 12.181,19.91     "
   id="polygon929" />
				<polygon
   fill="#E3D7A2"
   points="11.62,43.14 11.778,42.481 10.284,42.481 10.44,43.14     "
   id="polygon931" />
			</g>
			<g
   id="g933">
				<polygon
   fill="#B8AF83"
   points="4.975,40.794 4.415,43.14 3.235,43.14 2.677,40.794 2.677,19.91 4.975,19.91     "
   id="polygon935" />
				<polygon
   fill="#E3D7A2"
   points="4.415,43.14 4.573,42.481 3.079,42.481 3.235,43.14     "
   id="polygon937" />
			</g>
			<g
   id="g939">
				<g
   id="g941">
					<g
   id="g943">
						<path
   fill="#383737"
   d="M9.53,4.006"
   id="path945" />
					</g>
				</g>
				<polygon
   fill="#B8AF83"
   points="33.778,4.006 31.479,4.006 31.479,17.514 33.778,17.514     "
   id="polygon947" />
				<polygon
   fill="#B8AF83"
   points="26.579,4.006 24.282,4.006 24.282,17.514 26.579,17.514     "
   id="polygon949" />
				<polygon
   fill="#B8AF83"
   points="19.38,4.006 17.08,4.006 17.08,17.514 19.38,17.514     "
   id="polygon951" />
				<polygon
   fill="#B8AF83"
   points="12.181,4.006 9.883,4.006 9.883,17.514 12.181,17.514     "
   id="polygon953" />
				<polygon
   fill="#9A916C"
   points="33.778,4.006 31.479,4.006 31.479,4.447 33.778,4.447     "
   id="polygon955" />
				<polygon
   fill="#9A916C"
   points="26.579,4.006 24.282,4.006 24.282,4.447 26.579,4.447     "
   id="polygon957" />
				<polygon
   fill="#9A916C"
   points="19.38,4.006 17.08,4.006 17.08,4.447 19.38,4.447     "
   id="polygon959" />
				<polygon
   fill="#9A916C"
   points="12.181,4.006 9.883,4.006 9.883,4.447 12.181,4.447     "
   id="polygon961" />
				<polygon
   fill="#E3D7A2"
   points="33.778,4.464 31.479,4.464 31.479,5.123 33.778,5.123     "
   id="polygon963" />
				<polygon
   fill="#E3D7A2"
   points="26.579,4.464 24.282,4.464 24.282,5.123 26.579,5.123     "
   id="polygon965" />
				<polygon
   fill="#E3D7A2"
   points="19.38,4.464 17.08,4.464 17.08,5.123 19.38,5.123     "
   id="polygon967" />
				<polygon
   fill="#E3D7A2"
   points="12.181,4.464 9.883,4.464 9.883,5.123 12.181,5.123     "
   id="polygon969" />
				<polygon
   fill="#B8AF83"
   points="4.975,4.006 2.677,4.006 2.677,17.514 4.975,17.514     "
   id="polygon971" />
				<polygon
   fill="#9A916C"
   points="4.975,4.006 2.677,4.006 2.677,4.447 4.975,4.447     "
   id="polygon973" />
				<polygon
   fill="#E3D7A2"
   points="4.975,4.464 2.677,4.464 2.677,5.123 4.975,5.123     "
   id="polygon975" />
				<g
   id="g977">
					<polygon
   fill="#010202"
   points="0.225,15.389 0.225,21.342 36.229,21.342 36.229,15.389      "
   id="polygon979" />
					<g
   id="g981">
						<rect
   x="8.454"
   y="15.389"
   fill="#404040"
   width="5.154"
   height="5.953"
   id="rect983" />
						<polygon
   fill="#484848"
   points="13.608,21.342 14.631,21.342 14.631,15.389 13.608,15.389       "
   id="polygon985" />
						<polygon
   fill="#383737"
   points="8.454,15.389 7.431,15.389 7.431,21.342 8.454,21.342       "
   id="polygon987" />
					</g>
					<g
   id="g989">
						<rect
   x="30.053"
   y="15.389"
   fill="#404040"
   width="5.149"
   height="5.953"
   id="rect991" />
						<polygon
   fill="#484848"
   points="35.205,21.342 36.229,21.342 36.229,15.389 35.205,15.389       "
   id="polygon993" />
						<polygon
   fill="#383737"
   points="30.052,15.389 29.03,15.389 29.03,21.342 30.052,21.342       "
   id="polygon995" />
					</g>
					<g
   id="g997">
						<polygon
   fill="#B8AF83"
   points="40.977,40.794 40.421,43.14 39.239,43.14 38.681,40.794 38.681,19.91 40.977,19.91       "
   id="polygon999" />
						<polygon
   fill="#E3D7A2"
   points="40.421,43.14 40.577,42.481 39.08,42.481 39.239,43.14       "
   id="polygon1001" />
					</g>
					<polygon
   fill="#B8AF83"
   points="40.977,4.006 38.681,4.006 38.681,17.514 40.977,17.514      "
   id="polygon1003" />
					<polygon
   fill="#9A916C"
   points="40.977,4.006 38.681,4.006 38.681,4.447 40.977,4.447      "
   id="polygon1005" />
					<polygon
   fill="#E3D7A2"
   points="40.977,4.464 38.681,4.464 38.681,5.123 40.977,5.123      "
   id="polygon1007" />
					<g
   id="g1009">
						<rect
   x="37.255"
   y="15.389"
   fill="#404040"
   width="5.149"
   height="5.953"
   id="rect1011" />
						<polygon
   fill="#484848"
   points="42.407,21.342 43.429,21.342 43.429,15.389 42.407,15.389       "
   id="polygon1013" />
						<polygon
   fill="#383737"
   points="37.254,15.389 36.229,15.389 36.229,21.342 37.254,21.342       "
   id="polygon1015" />
					</g>
					<g
   id="g1017">
						<rect
   x="22.853"
   y="15.389"
   fill="#404040"
   width="5.154"
   height="5.953"
   id="rect1019" />
						<polygon
   fill="#484848"
   points="28.008,21.342 29.03,21.342 29.03,15.389 28.008,15.389       "
   id="polygon1021" />
						<polygon
   fill="#383737"
   points="22.852,15.389 21.829,15.389 21.829,21.342 22.852,21.342       "
   id="polygon1023" />
					</g>
					<g
   id="g1025">
						<rect
   x="15.653"
   y="15.389"
   fill="#404040"
   width="5.154"
   height="5.953"
   id="rect1027" />
						<polygon
   fill="#484848"
   points="20.807,21.342 21.829,21.342 21.829,15.389 20.807,15.389       "
   id="polygon1029" />
						<polygon
   fill="#383737"
   points="15.653,15.389 14.631,15.389 14.631,21.342 15.653,21.342       "
   id="polygon1031" />
					</g>
					<g
   id="g1033">
						<rect
   x="1.251"
   y="15.389"
   fill="#404040"
   width="5.149"
   height="5.953"
   id="rect1035" />
						<polygon
   fill="#484848"
   points="6.403,21.342 7.426,21.342 7.426,15.389 6.403,15.389       "
   id="polygon1037" />
						<polygon
   fill="#383737"
   points="1.251,15.389 0.225,15.389 0.225,21.342 1.251,21.342       "
   id="polygon1039" />
					</g>
				</g>
			</g>
		</g>
	</g>
</g>
<g
   id="g1041">
	<title
   id="title1043">text:On</title>
	<g
   transform="matrix(1, 0, 0, 1, 59.2441, 99.4961)"
   id="g1045">
		<g
   transform="rotate(270)"
   id="g1047">
			<text
   transform="matrix(1 0 0 1 12.3213 -35.2363)"
   fill="#FFFFFF"
   font-family="'ArialMT'"
   font-size="4"
   id="text1049">On</text>

		</g>
	</g>
</g>
<g
   id="g1051">
	<title
   id="title1053">text:Off</title>
	<g
   transform="matrix(1, 0, 0, 1, 87.5909, 100.346)"
   id="g1055">
		<g
   transform="rotate(270)"
   id="g1057">
			<text
   transform="matrix(1 0 0 1 13.0921 -37.6017)"
   fill="#FFFFFF"
   font-family="'ArialMT'"
   font-size="4"
   id="text1059">Off</text>

		</g>
	</g>
</g>
<g
   id="g1061">
	<title
   id="title1063">text:On</title>
	<g
   transform="matrix(1, 0, 0, 1, 59.2441, 99.4961)"
   id="g1065">
		<g
   transform="rotate(270)"
   id="g1067">
			<text
   transform="matrix(1 0 0 1 -8.2695 -21.0488)"
   fill="#FFFFFF"
   font-family="'ArialMT'"
   font-size="4"
   id="text1069">HW</text>

		</g>
	</g>
</g>
<g
   id="g1071">
	<title
   id="title1073">text:Off</title>
	<g
   transform="matrix(1, 0, 0, 1, 87.5909, 100.346)"
   id="g1075">
		<g
   transform="rotate(270)"
   id="g1077">
			<text
   transform="matrix(1 0 0 1 -7.4987 -23.4142)"
   fill="#FFFFFF"
   font-family="'ArialMT'"
   font-size="4"
   id="text1079">SW</text>

		</g>
	</g>
</g>
</svg>