<?xml version="1.0" encoding="UTF-8" standalone="no"?>
<!-- Generator: Adobe Illustrator 16.0.0, SVG Export Plug-In . SVG Version: 6.00 Build 0)  -->

<svg
   xmlns:dc="http://purl.org/dc/elements/1.1/"
   xmlns:cc="http://creativecommons.org/ns#"
   xmlns:rdf="http://www.w3.org/1999/02/22-rdf-syntax-ns#"
   xmlns:svg="http://www.w3.org/2000/svg"
   xmlns="http://www.w3.org/2000/svg"
   xmlns:sodipodi="http://sodipodi.sourceforge.net/DTD/sodipodi-0.dtd"
   xmlns:inkscape="http://www.inkscape.org/namespaces/inkscape"
   version="1.1"
   id="Ebene_1"
   x="0px"
   y="0px"
   width="55"
   height="55"
   viewBox="0 0 54.999999 55.000002"
   enable-background="new 0 0 21.6 51.42"
   xml:space="preserve"
   inkscape:version="0.48.2 r9819"
   sodipodi:docname="switch.svg"
   inkscape:export-filename="/Users/avenix/Desktop/palette_switch.png"
   inkscape:export-xdpi="2623.5901"
   inkscape:export-ydpi="2623.5901"><metadata
   id="metadata158"><rdf:RDF><cc:Work
       rdf:about=""><dc:format>image/svg+xml</dc:format><dc:type
         rdf:resource="http://purl.org/dc/dcmitype/StillImage" /><dc:title></dc:title></cc:Work></rdf:RDF></metadata><defs
   id="defs156" /><sodipodi:namedview
   pagecolor="#ffffff"
   bordercolor="#666666"
   borderopacity="1"
   objecttolerance="10"
   gridtolerance="10"
   guidetolerance="10"
   inkscape:pageopacity="0"
   inkscape:pageshadow="2"
   inkscape:window-width="924"
   inkscape:window-height="651"
   id="namedview154"
   showgrid="false"
   inkscape:zoom="4.589654"
   inkscape:cx="10.8"
   inkscape:cy="25.709999"
   inkscape:window-x="1770"
   inkscape:window-y="254"
   inkscape:window-maximized="0"
   inkscape:current-layer="Ebene_1" />
<desc
   id="desc3">Fritzing breadboard generated by brd2svg</desc>
<g
   id="breadboardbreadboard"
   transform="matrix(0,1,-1,0,53.069483,16.964333)">
	<g
   id="icon">
		<path
   d="M 21.572,10.772 C 21.572,4.823 16.749,0 10.8,0 4.851,0 0.029,4.823 0.029,10.772 v 29.877 c 0,5.949 4.822,10.771 10.771,10.771 5.949,0 10.771,-4.82 10.771,-10.771 L 21.572,10.772 M 9.595,21.458 c -0.002,-0.665 0.536,-1.206 1.201,-1.208 0.666,-0.002 1.207,0.535 1.209,1.201 0,0.002 0,0.005 0,0.007 0.002,0.665 -0.536,1.206 -1.202,1.208 -0.665,0.002 -1.206,-0.536 -1.208,-1.201 0,-0.002 0,-0.005 0,-0.007 z m 0,8.504 c -0.002,-0.665 0.536,-1.206 1.201,-1.208 0.666,-0.002 1.207,0.535 1.209,1.201 0,0.002 0,0.005 0,0.007 0.002,0.665 -0.536,1.206 -1.202,1.208 -0.665,0.002 -1.206,-0.536 -1.208,-1.201 0,-0.002 0,-0.005 0,-0.007 z M 6.84,42.606 c 0,-2.188 1.771,-3.961 3.959,-3.961 2.188,0 3.961,1.772 3.961,3.961 l 0,0 c 0,2.188 -1.772,3.961 -3.96,3.961 -2.186,0 -3.96,-1.773 -3.96,-3.961 l 0,0 z m 0,-33.793 c 0,-2.188 1.771,-3.961 3.959,-3.961 2.188,0 3.961,1.772 3.961,3.96 0,0 0,0 0,0.001 0,2.187 -1.772,3.96 -3.96,3.96 -2.186,0 -3.96,-1.773 -3.96,-3.96 l 0,0 z"
   id="path7"
   inkscape:connector-curvature="0"
   style="fill:#b0938f" />
		<path
   d="m 10.8,1.961 c -5.496,0 -9.95,4.456 -9.95,9.95 V 39.51 c 0,5.496 4.454,9.95 9.95,9.95 5.495,0 9.949,-4.453 9.949,-9.95 L 20.75,11.911 c 0,-5.494 -4.455,-9.95 -9.95,-9.95 z m 0,44.606 c -2.187,0 -3.96,-1.773 -3.96,-3.961 0,-2.188 1.771,-3.961 3.959,-3.961 2.188,0 3.961,1.772 3.961,3.961 0,2.189 -1.772,3.961 -3.96,3.961 z M 14.76,8.813 c 0,2.187 -1.772,3.96 -3.96,3.96 -2.187,0 -3.96,-1.773 -3.96,-3.96 0,-2.188 1.771,-3.961 3.959,-3.961 2.188,0 3.961,1.772 3.961,3.961 0,-0.001 0,-0.001 0,0 z"
   id="path9"
   inkscape:connector-curvature="0"
   style="fill:#672e58" />
		<g
   id="g11">
			<title
   id="title13">layer 21</title>
			<g
   id="g15">
				<title
   id="title17">text:On</title>
				<g
   transform="translate(4.32,15.6303)"
   id="g19">
					<g
   transform="matrix(0,-1,1,0,0,0)"
   id="g21">
						<text
   transform="translate(4.272461e-4,5.493164e-4)"
   font-size="3.3408"
   id="text23"
   style="font-size:3.34080005px;fill:#ffffff;font-family:OCRA">On</text>



					</g>
				</g>
			</g>
			<g
   id="g25">
				<title
   id="title27">text:Off</title>
				<g
   transform="translate(4.32,40.8303)"
   id="g29">
					<g
   transform="matrix(0,-1,1,0,0,0)"
   id="g31">
						<text
   transform="translate(-7.629395e-4,5.493164e-4)"
   font-size="3.3408"
   id="text33"
   style="font-size:3.34080005px;fill:#ffffff;font-family:OCRA">Off</text>



					</g>
				</g>
			</g>
			<g
   id="g35">
				<title
   id="title37">element:LOGO1</title>
				<g
   id="g39">
					<title
   id="title41">package:LOGO-L</title>
				</g>
			</g>
			<g
   id="g43">
				<title
   id="title45">element:SLIDEOFF</title>
				<g
   id="g47">
					<title
   id="title49">package:PETAL-MEDIUM-2SIDE</title>
				</g>
			</g>
			<g
   id="g51">
				<title
   id="title53">element:SLIDEON</title>
				<g
   id="g55">
					<title
   id="title57">package:PETAL-MEDIUM-2SIDE</title>
				</g>
			</g>
		</g>
		<path
   d="m 10.8,5.7 c 0.873,0 1.722,0.842 2.531,0.918 0.41,0.039 0.811,1.488 1.199,1.544 2.945,0.425 5.249,1.34 6.221,2.48 C 20.713,5.177 16.272,0.757 10.8,0.757 5.328,0.757 0.887,5.176 0.85,10.642 1.811,9.513 4.081,8.604 6.986,8.174 7.417,8.112 7.863,6.657 8.32,6.615 9.115,6.542 9.946,5.7 10.8,5.7 z"
   id="path59"
   inkscape:connector-curvature="0"
   style="fill:#e8e8e8" />
		<path
   d="m 10.622,45.66 c 0.873,0 2.143,-0.752 2.952,-0.828 0.437,-0.041 0.618,-1.584 1.032,-1.646 2.909,-0.431 5.183,-1.34 6.145,-2.47 -0.038,5.468 -4.479,9.886 -9.951,9.886 -5.472,0 -9.913,-4.418 -9.95,-9.886 0.96,1.13 3.227,2.036 6.125,2.468 0.436,0.064 0.521,1.076 0.982,1.119 0.796,0.073 1.811,1.357 2.665,1.357 z"
   id="path61"
   inkscape:connector-curvature="0"
   style="fill:#e8e8e8" />
		<g
   id="connector6pin">
			<path
   d="m 10.8,39.761 c 1.569,0 2.846,1.276 2.846,2.846 0,1.57 -1.275,2.847 -2.846,2.847 -1.569,0 -2.845,-1.276 -2.845,-2.847 0,-1.57 1.276,-2.846 2.845,-2.846 m 0,-1.265 c -2.271,0 -4.11,1.84 -4.11,4.11 0,2.27 1.84,4.109 4.11,4.109 2.27,0 4.11,-1.841 4.11,-4.109 0,-2.27 -1.839,-4.11 -4.11,-4.11 l 0,0 z"
   id="path64"
   inkscape:connector-curvature="0"
   style="fill:#9a916c" />
		</g>
		<g
   id="connector7pin">
			<path
   d="m 10.8,5.966 c 1.569,0 2.846,1.277 2.846,2.846 0,1.569 -1.275,2.846 -2.846,2.846 -1.569,0 -2.845,-1.277 -2.845,-2.846 0,-1.569 1.276,-2.846 2.845,-2.846 m 0,-1.265 c -2.271,0 -4.11,1.841 -4.11,4.111 0,2.27 1.84,4.11 4.11,4.11 2.27,0 4.11,-1.841 4.11,-4.11 0,-2.27 -1.839,-4.111 -4.11,-4.111 l 0,0 z"
   id="path67"
   inkscape:connector-curvature="0"
   style="fill:#9a916c" />
		</g>
	</g>
	<g
   id="ayz0202"
   transform="translate(0.53604,19.5258)">
		<g
   transform="matrix(0,1,-1,0,16.4404,-4.08748)"
   id="g70">
			<g
   id="g72">
				<g
   id="g74">
					<polygon
   points="2.202,12.353 3.927,12.353 3.927,9.491 2.202,9.491 "
   id="polygon76"
   style="fill:#b7b7b7" />
					<polygon
   points="9.402,12.353 11.125,12.353 11.125,9.491 9.402,9.491 "
   id="polygon78"
   style="fill:#b7b7b7" />
					<polygon
   points="16.604,12.353 18.324,12.353 18.324,9.491 16.604,9.491 "
   id="polygon80"
   style="fill:#b7b7b7" />
				</g>
				<g
   id="g82">
					<polygon
   points="2.202,2.861 3.927,2.861 3.927,0 2.202,0 "
   id="polygon84"
   style="fill:#b7b7b7" />
					<polygon
   points="9.402,2.861 11.125,2.861 11.125,0 9.402,0 "
   id="polygon86"
   style="fill:#b7b7b7" />
					<polygon
   points="16.604,2.861 18.324,2.861 18.324,0 16.604,0 "
   id="polygon88"
   style="fill:#b7b7b7" />
				</g>
			</g>
			
				<rect
   x="5.3509998"
   y="-4.086"
   transform="matrix(2.578893e-6,1,-1,2.578893e-6,16.4417,-4.087)"
   width="9.8260002"
   height="20.525999"
   id="rect90"
   style="fill:#1e1e1e" />
			
				<rect
   x="10.131"
   y="-3.214"
   transform="matrix(2.578893e-6,1,-1,2.578893e-6,12.3716,-8.1556)"
   width="0.266"
   height="10.643"
   id="rect92" />
			<path
   d="m 19.002,4.096 c -0.229,0 -0.203,-0.191 -0.203,-0.428 V 1.611 h -3.65 c -0.231,0 -0.425,0.191 -0.425,0.426 v 2.214 c 0,0.233 -0.19,0.427 -0.425,0.427 H 6.229 C 5.997,4.678 5.804,4.487 5.804,4.251 V 2.037 C 5.804,1.805 5.613,1.611 5.379,1.611 H 1.73 V 3.67 c 0,0.234 0.024,0.428 -0.203,0.428 H 0.249 c -0.237,0 -0.248,0.189 -0.248,0.425 v 3.892 c 0,0.234 0.011,0.427 0.248,0.427 h 1.277 c 0.229,0 0.203,0.19 0.203,0.426 v 1.833 H 18.797 V 9.263 C 18.797,9.03 18.774,8.836 19,8.836 h 1.275 c 0.238,0 0.248,-0.189 0.248,-0.426 V 4.52 c 0,-0.233 -0.01,-0.425 -0.248,-0.425 h -1.273 z"
   id="path94"
   inkscape:connector-curvature="0"
   style="fill:#898989" />
			<g
   id="g96">
				<path
   enable-background="new    "
   d="M 0.249,8.832 H 0.487 V 4.089 H 0.249 c -0.237,0 -0.248,0.19 -0.248,0.426 v 3.892 c 0,0.234 0.011,0.425 0.248,0.425 z"
   id="path98"
   inkscape:connector-curvature="0"
   style="opacity:0.3;fill:#ffffff" />
				
					<rect
   x="-1.6390001"
   y="6.2160001"
   transform="matrix(2.578893e-6,1,-1,2.578893e-6,7.1922,5.7279)"
   enable-background="new    "
   width="4.743"
   height="0.48699999"
   id="rect100"
   style="opacity:0.1;fill:#ffffff" />
			</g>
			<g
   id="g102">
				<path
   enable-background="new    "
   d="M 20.279,8.832 H 20.04 V 4.089 h 0.237 c 0.237,0 0.248,0.19 0.248,0.426 v 3.892 c 0.003,0.234 -0.007,0.425 -0.246,0.425 z"
   id="path104"
   inkscape:connector-curvature="0"
   style="opacity:0.3;fill:#ffffff" />
				
					<rect
   x="17.426001"
   y="6.2160001"
   transform="matrix(2.578893e-6,1,-1,2.578893e-6,26.2576,-13.3375)"
   enable-background="new    "
   width="4.743"
   height="0.48699999"
   id="rect106"
   style="opacity:0.1;fill:#ffffff" />
			</g>
			<path
   d="m 17.095,9.746 c 0,0.289 -0.25,0.525 -0.557,0.525 H 3.99 c -0.307,0 -0.557,-0.236 -0.557,-0.525 0,-0.289 0.25,-0.523 0.557,-0.523 h 12.548 c 0.307,-0.002 0.557,0.234 0.557,0.523 z"
   id="path108"
   inkscape:connector-curvature="0"
   style="fill:#898989" />
			<g
   id="g110">
				<path
   d="M 16.539,9.221 H 3.99 c -0.307,0 -0.557,0.234 -0.557,0.523 H 3.67 c 0,-0.158 0.143,-0.287 0.318,-0.287 h 12.548 c 0.177,0 0.319,0.129 0.319,0.287 h 0.236 C 17.095,9.457 16.845,9.221 16.539,9.221 z"
   id="path112"
   inkscape:connector-curvature="0"
   style="fill:#666666" />
				<path
   enable-background="new    "
   d="M 16.539,10.033 H 3.99 C 3.813,10.033 3.672,9.904 3.672,9.746 H 3.434 c 0,0.289 0.25,0.525 0.557,0.525 h 12.548 c 0.308,0 0.558,-0.236 0.558,-0.525 H 16.86 c -0.002,0.158 -0.146,0.287 -0.321,0.287 z"
   id="path114"
   inkscape:connector-curvature="0"
   style="opacity:0.3;fill:#ffffff" />
			</g>
			<g
   id="g116">
				<path
   enable-background="new    "
   d="m 0.001,1.263 v 2.125 c 0,0.156 0.011,0.287 0.248,0.287 H 0.487 V 1.263 H 0.001 z"
   id="path118"
   inkscape:connector-curvature="0"
   style="opacity:0.3;fill:#ffffff" />
				
					<rect
   x="-0.47499999"
   y="2.2260001"
   transform="matrix(2.578893e-6,1,-1,2.578893e-6,3.2005,1.7382)"
   enable-background="new    "
   width="2.4119999"
   height="0.48699999"
   id="rect120"
   style="opacity:0.1;fill:#ffffff" />
			</g>
			<g
   id="g122">
				<path
   enable-background="new    "
   d="m 0.001,11.089 v -1.57 c 0,-0.158 0.011,-0.287 0.248,-0.287 H 0.487 V 11.09 L 0.001,11.089 z"
   id="path124"
   inkscape:connector-curvature="0"
   style="opacity:0.3;fill:#ffffff" />
				
					<rect
   x="-0.197"
   y="9.9160004"
   transform="matrix(2.578893e-6,1,-1,2.578893e-6,10.8917,9.4279)"
   enable-background="new    "
   width="1.857"
   height="0.48699999"
   id="rect126"
   style="opacity:0.1;fill:#ffffff" />
			</g>
			<g
   id="g128">
				<path
   enable-background="new    "
   d="m 20.528,1.263 v 2.125 c 0,0.156 -0.01,0.287 -0.248,0.287 H 20.043 V 1.263 h 0.485 z"
   id="path130"
   inkscape:connector-curvature="0"
   style="opacity:0.3;fill:#ffffff" />
				
					<rect
   x="18.591"
   y="2.2260001"
   transform="matrix(2.578893e-6,1,-1,2.578893e-6,22.2669,-17.3282)"
   enable-background="new    "
   width="2.4119999"
   height="0.48699999"
   id="rect132"
   style="opacity:0.1;fill:#ffffff" />
			</g>
			<g
   id="g134">
				<path
   enable-background="new    "
   d="m 20.528,11.089 v -1.57 c 0,-0.158 -0.01,-0.287 -0.248,-0.287 h -0.237 v 1.858 l 0.485,-10e-4 z"
   id="path136"
   inkscape:connector-curvature="0"
   style="opacity:0.3;fill:#ffffff" />
				
					<rect
   x="18.870001"
   y="9.9160004"
   transform="matrix(2.578893e-6,1,-1,2.578893e-6,29.9573,-9.6388)"
   enable-background="new    "
   width="1.8559999"
   height="0.486"
   id="rect138"
   style="opacity:0.1;fill:#ffffff" />
			</g>
			<path
   d="m 14.288,4.197 c 0,0.156 -0.13,0.284 -0.283,0.284 h -3.559 c -0.155,0 -0.283,-0.127 -0.283,-0.284 l -10e-4,-2.23 c 0,-0.156 0.127,-0.284 0.284,-0.284 h 3.559 c 0.153,0 0.282,0.127 0.282,0.284 l 10e-4,2.23 z"
   id="path140"
   inkscape:connector-curvature="0"
   style="fill:#232323" />
			<g
   id="g142"
   style="opacity:0.2">
				<path
   stroke-miterlimit="10"
   d="M 10.404,4.28 V 2.053 c 0,-0.095 0.076,-0.17 0.17,-0.17 h 3.472"
   id="path144"
   inkscape:connector-curvature="0"
   style="fill:none;stroke:#ffffff;stroke-width:0.1899;stroke-linecap:round;stroke-miterlimit:10" />
			</g>
			<g
   id="g146"
   style="opacity:0.2">
				<path
   stroke-miterlimit="10"
   d="m 14.045,1.882 v 2.227 c 0,0.093 -0.076,0.17 -0.17,0.17 h -3.472"
   id="path148"
   inkscape:connector-curvature="0"
   style="fill:none;stroke:#454545;stroke-width:0.1899;stroke-linecap:round;stroke-miterlimit:10" />
			</g>
			
				<path
   stroke-miterlimit="10"
   enable-background="new    "
   d="m 11.694,3.612 c -0.293,-0.293 -0.293,-0.769 0,-1.062 0.293,-0.294 0.771,-0.293 1.062,0"
   id="path150"
   inkscape:connector-curvature="0"
   style="opacity:0.2;fill:none;stroke:#ffffff;stroke-width:0.1899;stroke-linecap:round;stroke-miterlimit:10" />
			
				<path
   stroke-miterlimit="10"
   enable-background="new    "
   d="m 12.755,2.55 c 0.294,0.293 0.294,0.769 10e-4,1.062 -0.293,0.294 -0.771,0.293 -1.063,0"
   id="path152"
   inkscape:connector-curvature="0"
   style="opacity:0.2;fill:none;stroke:#454545;stroke-width:0.1899;stroke-linecap:round;stroke-miterlimit:10" />
		</g>
	</g>
</g>
</svg>