<?xml version="1.0" encoding="UTF-8" standalone="no"?>
<!-- Created with Inkscape (http://www.inkscape.org/) -->

<svg
   xmlns:dc="http://purl.org/dc/elements/1.1/"
   xmlns:cc="http://creativecommons.org/ns#"
   xmlns:rdf="http://www.w3.org/1999/02/22-rdf-syntax-ns#"
   xmlns:svg="http://www.w3.org/2000/svg"
   xmlns="http://www.w3.org/2000/svg"
   xmlns:sodipodi="http://sodipodi.sourceforge.net/DTD/sodipodi-0.dtd"
   xmlns:inkscape="http://www.inkscape.org/namespaces/inkscape"
   width="1100"
   height="1800"
   id="svg2"
   version="1.1"
   inkscape:version="0.48.2 r9819"
   sodipodi:docname="iPhone5.svg"
   inkscape:export-filename="/Users/avenix/Desktop/iPhone4@2x.png"
   inkscape:export-xdpi="73.198479"
   inkscape:export-ydpi="73.198479">
  <defs
     id="defs4" />
  <sodipodi:namedview
     id="base"
     pagecolor="#ffffff"
     bordercolor="#666666"
     borderopacity="1.0"
     inkscape:pageopacity="0.0"
     inkscape:pageshadow="2"
     inkscape:zoom="0.24748738"
     inkscape:cx="375"
     inkscape:cy="470.97918"
     inkscape:document-units="px"
     inkscape:current-layer="layer1"
     showgrid="false"
     showguides="true"
     inkscape:guide-bbox="true"
     inkscape:window-width="1170"
     inkscape:window-height="905"
     inkscape:window-x="1392"
     inkscape:window-y="33"
     inkscape:window-maximized="0" />
  <metadata
     id="metadata7">
    <rdf:RDF>
      <cc:Work
         rdf:about="">
        <dc:format>image/svg+xml</dc:format>
        <dc:type
           rdf:resource="http://purl.org/dc/dcmitype/StillImage" />
        <dc:title />
      </cc:Work>
    </rdf:RDF>
  </metadata>
  <g
     inkscape:label="Layer 1"
     inkscape:groupmode="layer"
     id="layer1"
     transform="translate(0,747.63782)">
    <g
       id="g2988"
       transform="matrix(1,0,0,1.1279002,8.0812196,-215.39667)">
      <path
         inkscape:connector-curvature="0"
         id="rect2985"
         d="m 239.11808,-410.1731 c -55.01714,0 -70.22401,34.17503 -72.3125,89.125 l 0,1286.96875 c -1.82124,48.34035 19.80762,83.72045 65.78125,83.40625 l 648.03125,0 c 38.26358,0 59.128,-26.3883 60.65625,-80.09375 l 0,-1257.3125 C 943.09557,-379.53 921.18617,-408.44929 836.61808,-410.1731 l -597.5,0 z m -5.9375,239.0625 640,0 0,960.00005 -640,0 0,-960.00005 z"
         style="fill:#000000;fill-opacity:1;stroke:none" />
      <path
         style="fill:none;stroke:#323232;stroke-width:12.25526333;stroke-miterlimit:4;stroke-opacity:1;stroke-dasharray:none"
         d="m 234.2538,-413.37201 c -55.01714,0 -70.22586,34.16984 -72.31435,89.11981 l 0,1286.96551 c -1.82124,48.34029 19.80512,83.73289 65.77875,83.41879 l 648.01214,0 c 38.26358,0 59.12342,-26.3822 60.65167,-80.08757 l 0,-1257.32756 c 1.82124,-91.45065 -20.05814,-120.36517 -104.62623,-122.08898 z"
         id="path3756"
         inkscape:connector-curvature="0"
         sodipodi:nodetypes="scccscccs" />
    </g>
  </g>
</svg>
