<?xml version="1.0" encoding="UTF-8" standalone="no"?>
<!-- Created with Inkscape (http://www.inkscape.org/) -->

<svg
   xmlns:dc="http://purl.org/dc/elements/1.1/"
   xmlns:cc="http://creativecommons.org/ns#"
   xmlns:rdf="http://www.w3.org/1999/02/22-rdf-syntax-ns#"
   xmlns:svg="http://www.w3.org/2000/svg"
   xmlns="http://www.w3.org/2000/svg"
   xmlns:sodipodi="http://sodipodi.sourceforge.net/DTD/sodipodi-0.dtd"
   xmlns:inkscape="http://www.inkscape.org/namespaces/inkscape"
   width="700"
   height="700"
   id="svg2"
   version="1.1"
   inkscape:version="0.48.2 r9819"
   sodipodi:docname="New document 1">
  <defs
     id="defs4" />
  <sodipodi:namedview
     id="base"
     pagecolor="#ffffff"
     bordercolor="#666666"
     borderopacity="1.0"
     inkscape:pageopacity="0.0"
     inkscape:pageshadow="2"
     inkscape:zoom="0.7"
     inkscape:cx="404.98557"
     inkscape:cy="405.71429"
     inkscape:document-units="px"
     inkscape:current-layer="g3775"
     showgrid="false"
     inkscape:window-width="1342"
     inkscape:window-height="853"
     inkscape:window-x="1307"
     inkscape:window-y="22"
     inkscape:window-maximized="0" />
  <metadata
     id="metadata7">
    <rdf:RDF>
      <cc:Work
         rdf:about="">
        <dc:format>image/svg+xml</dc:format>
        <dc:type
           rdf:resource="http://purl.org/dc/dcmitype/StillImage" />
        <dc:title></dc:title>
      </cc:Work>
    </rdf:RDF>
  </metadata>
  <g
     inkscape:label="Layer 1"
     inkscape:groupmode="layer"
     id="layer1"
     transform="translate(0,-352.36218)">
    <rect
       style="fill:#ffffff;fill-opacity:1;fill-rule:nonzero;stroke:#646464;stroke-width:30;stroke-linecap:round;stroke-linejoin:round;stroke-miterlimit:4;stroke-opacity:1;stroke-dasharray:none;stroke-dashoffset:0"
       id="rect2985"
       width="618.57141"
       height="420"
       x="32.857143"
       y="482.36218" />
    <path
       style="fill:#00793d;fill-opacity:1;stroke:none;stroke-width:1px;stroke-linecap:butt;stroke-linejoin:miter;stroke-opacity:1"
       d="M 48.571429,387.14286 C 221.42858,325.71429 322.85714,400 322.85714,400 c 1.35757,0.84848 32.48587,19.41081 52.85715,31.42857 133.16406,78.55835 170,-62.85714 170,-62.85714 21.57499,-26.11749 47.53429,-46.25775 91.42856,-12.85714 l 1e-5,180 -590.591736,-0.83684 z"
       id="path3755"
       inkscape:connector-curvature="0"
       transform="translate(0,352.36218)"
       sodipodi:nodetypes="ccsccccc" />
    <g
       id="g3775">
      <path
         transform="translate(0,352.36218)"
         d="m 271.73103,247.95674 a 39.901024,39.901024 0 1 1 -79.80205,0 39.901024,39.901024 0 1 1 79.80205,0 z"
         sodipodi:ry="39.901024"
         sodipodi:rx="39.901024"
         sodipodi:cy="247.95674"
         sodipodi:cx="231.83"
         id="path3757"
         style="fill:#c1a54b;fill-opacity:1;fill-rule:nonzero;stroke:#000000;stroke-width:1;stroke-linecap:round;stroke-linejoin:round;stroke-miterlimit:4;stroke-opacity:1;stroke-dasharray:none;stroke-dashoffset:0"
         sodipodi:type="arc" />
      <path
         transform="translate(0,352.36218)"
         inkscape:connector-curvature="0"
         id="path3759"
         d="m 208.09142,293.91868 9.09138,59.599 23.23351,-59.599 z"
         style="fill:#c1a54b;stroke:#000000;stroke-width:1px;stroke-linecap:butt;stroke-linejoin:miter;stroke-opacity:1;fill-opacity:1" />
      <path
         transform="translate(0,352.36218)"
         inkscape:connector-curvature="0"
         id="path3761"
         d="m 261.62951,294.92883 56.56854,26.26397 -33.33503,-58.58885 z"
         style="fill:#c1a54b;stroke:#000000;stroke-width:1px;stroke-linecap:butt;stroke-linejoin:miter;stroke-opacity:1;fill-opacity:1" />
      <path
         transform="translate(0,352.36218)"
         inkscape:connector-curvature="0"
         id="path3763"
         d="m 284.86302,235.32983 67.68022,-36.36549 -81.82236,-2.02031 z"
         style="fill:#c1a54b;stroke:#000000;stroke-width:1px;stroke-linecap:butt;stroke-linejoin:miter;stroke-opacity:1;fill-opacity:1" />
      <path
         transform="translate(0,352.36218)"
         inkscape:connector-curvature="0"
         id="path3765"
         d="m 243.44676,197.95418 -42.4264,2.02031 20.20305,-50.50763 z"
         style="fill:#c1a54b;stroke:#000000;stroke-width:1px;stroke-linecap:butt;stroke-linejoin:miter;stroke-opacity:1;fill-opacity:1" />
      <path
         inkscape:connector-curvature="0"
         id="path3767"
         d="m 184.85792,223.208 0,45.45686 -82.87456,-25.25381 z"
         style="fill:#c1a54b;fill-opacity:1;stroke:#000000;stroke-width:1px;stroke-linecap:butt;stroke-linejoin:miter;stroke-opacity:1"
         sodipodi:nodetypes="cccc"
         transform="translate(0,352.36218)" />
    </g>
    <path
       style="fill:#30a0e3;fill-opacity:1;stroke:none"
       d="m 430.64344,452.2389 c -26.96016,-6.87598 -38.81852,-12.5016 -87.30154,-41.41589 -63.9813,-38.15714 -97.45481,-48.12207 -161.94685,-48.21096 -40.98362,-0.0565 -84.700639,7.10228 -121.982666,19.97498 l -11.616754,4.01103 0,-120.09934 0,-120.09934 293.95439,0 293.95439,0 0,103.03556 c 0,56.66956 -0.5415,103.03556 -1.20335,103.03556 -0.66186,0 -3.61655,-1.71427 -6.56599,-3.80951 -15.98484,-11.35527 -37.14337,-13.9329 -53.03841,-6.46135 -13.54729,6.36797 -28.76003,23.05414 -34.7432,38.10822 -12.20047,30.6973 -31.57551,53.7344 -54.8145,65.17492 -11.58305,5.70231 -15.70741,6.62668 -31.97658,7.16669 -10.27309,0.34099 -20.4966,0.15617 -22.71894,-0.41057 z M 230.28102,323.17608 c 6.05109,-15.55635 10.59768,-28.96613 10.10355,-29.7995 -0.49413,-0.83338 -8.24144,-1.51523 -17.21624,-1.51523 l -16.31781,0 1.28837,9.59645 c 4.38631,32.67135 8.14807,53.03244 9.53787,51.62508 0.88126,-0.89239 6.55318,-14.35045 12.60426,-29.9068 z m 88.23549,-2.38832 c 0,-0.75799 -7.39866,-14.45131 -16.44146,-30.42961 -10.28418,-18.17172 -17.15409,-28.33883 -18.34429,-27.14862 -1.04656,1.04655 -6.81338,8.60319 -12.81518,16.79254 l -10.91236,14.88974 27.74142,13.47519 c 28.56471,13.8751 30.77187,14.766 30.77187,12.42076 z m -71.5528,-35.21422 c 7.79149,-2.35698 18.75736,-12.86793 22.35387,-21.4265 3.99172,-9.49903 3.42498,-25.63639 -1.2201,-34.7415 -14.94036,-29.28552 -56.77853,-29.49481 -72.1594,-0.36096 -11.89181,22.52501 0.5975,51.42885 25.00546,57.86982 9.59783,2.53275 13.95788,2.30807 26.02017,-1.34086 z m -61.78733,-39.16906 c 0,-12.77843 -0.68078,-23.2335 -1.51284,-23.2335 -3.9696,0 -79.93315,18.71885 -79.93315,20.11805 0,1.3865 75.83578,25.67631 79.93076,26.16729 0.83337,0.0999 1.51523,-10.27341 1.51523,-23.05184 z m 150.00765,-36.74956 c 9.72272,-5.18281 17.67767,-10.11834 17.67767,-10.96785 0,-1.32713 -80.42764,-3.59551 -82.61911,-2.33018 -0.43822,0.25302 0.65618,4.34414 2.43201,9.09137 1.77581,4.74724 5.12824,13.78908 7.44985,20.09297 l 4.22111,11.46164 16.5804,-8.96233 c 9.11921,-4.92928 24.53535,-13.20281 34.25807,-18.38562 z m -91.68257,-11.81071 c 1.03098,-1.03098 -19.93838,-47.16519 -22.02379,-48.45404 -0.75455,-0.46634 -4.13672,6.17034 -7.51595,14.74818 -3.37922,8.57783 -8.0969,20.50556 -10.48373,26.50605 l -4.33968,10.90998 21.73146,-1.40497 c 11.95231,-0.77274 22.13657,-1.81008 22.63169,-2.3052 z"
       id="path3789"
       inkscape:connector-curvature="0"
       transform="translate(0,352.36218)"
       sodipodi:nodetypes="cssscccccsssssssccssscssssssscsscssssccssscsssssscsscssscscc" />
  </g>
</svg>
