<?xml version="1.0" encoding="UTF-8" standalone="no"?>
<!-- Generator: Adobe Illustrator 16.0.0, SVG Export Plug-In . SVG Version: 6.00 Build 0)  -->

<svg
   xmlns:dc="http://purl.org/dc/elements/1.1/"
   xmlns:cc="http://creativecommons.org/ns#"
   xmlns:rdf="http://www.w3.org/1999/02/22-rdf-syntax-ns#"
   xmlns:svg="http://www.w3.org/2000/svg"
   xmlns="http://www.w3.org/2000/svg"
   xmlns:xlink="http://www.w3.org/1999/xlink"
   xmlns:sodipodi="http://sodipodi.sourceforge.net/DTD/sodipodi-0.dtd"
   xmlns:inkscape="http://www.inkscape.org/namespaces/inkscape"
   version="1.1"
   id="Ebene_1"
   x="0px"
   y="0px"
   width="56.693px"
   height="56.693px"
   viewBox="0 0 56.693 56.693"
   enable-background="new 0 0 56.693 56.693"
   xml:space="preserve"
   inkscape:version="0.48.2 r9819"
   sodipodi:docname="buzzer.svg"
   inkscape:export-filename="/Users/avenix/Desktop/buzzer@2x.png"
   inkscape:export-xdpi="237.62335"
   inkscape:export-ydpi="237.62335"><metadata
   id="metadata275"><rdf:RDF><cc:Work
       rdf:about=""><dc:format>image/svg+xml</dc:format><dc:type
         rdf:resource="http://purl.org/dc/dcmitype/StillImage" /><dc:title></dc:title></cc:Work></rdf:RDF></metadata><defs
   id="defs273"><linearGradient
     id="linearGradient3889"><stop
       style="stop-color:#969696;stop-opacity:1;"
       offset="0"
       id="stop3891" /><stop
       style="stop-color:#6a6e69;stop-opacity:1;"
       offset="1"
       id="stop3893" /></linearGradient><radialGradient
     inkscape:collect="always"
     xlink:href="#linearGradient3889"
     id="radialGradient3895"
     cx="14.720656"
     cy="20.448477"
     fx="14.720656"
     fy="20.448477"
     r="3.963719"
     gradientTransform="matrix(0.9617724,0.12440765,-1.5371285,0.09820874,31.348049,16.084532)"
     gradientUnits="userSpaceOnUse" /></defs><sodipodi:namedview
   pagecolor="#ffffff"
   bordercolor="#666666"
   borderopacity="1"
   objecttolerance="10"
   gridtolerance="10"
   guidetolerance="10"
   inkscape:pageopacity="0"
   inkscape:pageshadow="2"
   inkscape:window-width="959"
   inkscape:window-height="812"
   id="namedview271"
   showgrid="false"
   inkscape:zoom="11.774095"
   inkscape:cx="24.623019"
   inkscape:cy="40.940612"
   inkscape:window-x="1501"
   inkscape:window-y="67"
   inkscape:window-maximized="0"
   inkscape:current-layer="g11" />
<desc
   id="desc3">Fritzing breadboard generated by brd2svg</desc>
<g
   id="breadboardbreadboard">
	<g
   id="icon">
		<path
   d="M 28.40625 -0.0625 C 12.75125 -0.0915 0.029 12.595 0 28.25 L 0 28.34375 C -0.029 43.99875 12.62625 56.721 28.28125 56.75 C 43.93725 56.779 56.6585 44.0925 56.6875 28.4375 L 56.6875 28.34375 C 56.7165 12.68875 44.06125 -0.0335 28.40625 -0.0625 z M 28.34375 5.125 C 29.27375 5.124 30.03125 5.8825 30.03125 6.8125 C 30.03225 7.7425 29.27375 8.499 28.34375 8.5 C 27.41375 8.5 26.65625 7.7425 26.65625 6.8125 C 26.65525 5.8815 27.41375 5.125 28.34375 5.125 z M 10.125 15.3125 C 11.187348 15.3125 12.03125 16.187652 12.03125 17.25 C 12.03125 18.312348 11.187348 19.15625 10.125 19.15625 C 9.0626522 19.15625 8.1875 18.312348 8.1875 17.25 C 8.1875 16.187652 9.0626522 15.3125 10.125 15.3125 z M 9.625 37.4375 C 10.555 37.4375 11.3115 38.195 11.3125 39.125 C 11.3125 40.055 10.556 40.8125 9.625 40.8125 C 8.695 40.8125 7.96875 40.056 7.96875 39.125 C 7.96875 38.195 8.695 37.4375 9.625 37.4375 z M 47.0625 37.4375 C 47.9925 37.4375 48.75 38.195 48.75 39.125 C 48.75 40.055 47.9925 40.8125 47.0625 40.8125 C 46.1315 40.8125 45.375 40.055 45.375 39.125 C 45.375 38.195 46.1315 37.4375 47.0625 37.4375 z "
   id="path7"
   style="fill:#b0938f;fill-opacity:1" />
		<path
   style="fill:#672e58"
   d="M 28.34375 4.8125 C 23.79875 4.8125 20.125 8.5174999 20.125 13.0625 C 20.125 13.5105 20.14975 13.947 20.21875 14.375 C 18.80775 13.239 17.0145 12.53125 15.0625 12.53125 C 10.5165 12.53125 6.84375 16.23625 6.84375 20.78125 C 6.84375 24.22225 8.96975 27.146 11.96875 28.375 C 8.97175 29.606 6.84375 32.56 6.84375 36 C 6.84375 40.545 10.54875 44.21875 15.09375 44.21875 C 17.03775 44.21875 18.81075 43.5655 20.21875 42.4375 C 20.15875 42.8355 20.125 43.24125 20.125 43.65625 C 20.125 48.20125 23.79875 51.875 28.34375 51.875 C 32.88875 51.875 36.5625 48.20025 36.5625 43.65625 C 36.5625 43.22625 36.53175 42.787 36.46875 42.375 C 37.88575 43.529 39.68625 44.21875 41.65625 44.21875 C 46.20125 44.21875 49.90625 40.545 49.90625 36 C 49.90625 32.559 47.77925 29.605 44.78125 28.375 C 47.77725 27.145 49.875 24.22025 49.875 20.78125 C 49.875 16.23625 46.20025 12.53125 41.65625 12.53125 C 39.68125 12.53125 37.88675 13.24725 36.46875 14.40625 C 36.54175 13.96625 36.5625 13.5235 36.5625 13.0625 C 36.5625 8.5174999 32.88875 4.8125 28.34375 4.8125 z M 10.15625 15.28125 C 11.217629 15.28125 12.0625 16.157371 12.0625 17.21875 C 12.0625 18.280129 11.217629 19.125 10.15625 19.125 C 9.094871 19.125 8.21875 18.280129 8.21875 17.21875 C 8.21875 16.157371 9.094871 15.28125 10.15625 15.28125 z M 47.0625 37.4375 C 47.9925 37.4375 48.75 38.195 48.75 39.125 C 48.75 40.055 47.9925 40.8125 47.0625 40.8125 C 46.1315 40.8125 45.375 40.055 45.375 39.125 C 45.375 38.195 46.1315 37.4375 47.0625 37.4375 z "
   id="path9" />
		<g
   id="g11">
			<title
   id="title13">layer 21</title>
			
			<g
   id="g21"
   transform="matrix(1.9497275,0,0,1.067991,-12.086485,22.903876)">
				<title
   id="title23">text:-</title>
				<text
   transform="translate(26.6453,17.489)"
   font-size="5.8464"
   id="text25"
   style="font-size:5.84639978px;fill:#ffffff;font-family:OCRA">-</text>




			</g>
			<g
   id="g27"
   transform="translate(-3.8435932,-21.620212)">
				<title
   id="title29">text:+</title>
				<text
   transform="translate(16.6389,38.5505)"
   font-size="5.8464"
   id="text31"
   style="font-size:5.84639978px;fill:#ffffff;font-family:OCRA">+</text>




			</g>
			<g
   id="g33">
				<title
   id="title35">element:TEMP+</title>
				<g
   id="g37">
					<title
   id="title39">package:PETAL-SMALL-2SIDE</title>
				</g>
			</g>
			<g
   id="g41">
				<title
   id="title43">element:TEMP-</title>
				<g
   id="g45">
					<title
   id="title47">package:PETAL-SMALL-2SIDE</title>
				</g>
			</g>
			<g
   id="g49">
				<title
   id="title51">element:TEMP1</title>
				<g
   id="g53">
					<title
   id="title55">package:PETAL-NOHOLE-2SIDE</title>
				</g>
			</g>
			<g
   id="g57">
				<title
   id="title59">element:TEMP2</title>
				<g
   id="g61">
					<title
   id="title63">package:PETAL-NOHOLE-2SIDE</title>
				</g>
			</g>
			<g
   id="g65">
				<title
   id="title67">element:TEMP3</title>
				<g
   id="g69">
					<title
   id="title71">package:PETAL-NOHOLE-2SIDE</title>
				</g>
			</g>
			<g
   id="g73">
				<title
   id="title75">element:TEMPS</title>
				<g
   id="g77">
					<title
   id="title79">package:PETAL-SMALL-2SIDE</title>
				</g>
			</g>
			<g
   id="g81">
				<title
   id="title83">element:U$2</title>
				<g
   id="g85">
					<title
   id="title87">package:LOGO-LILYPAD</title>
				</g>
			</g>
		</g>
		<g
   id="g89">
			<title
   id="title91">layer 1</title>
			<g
   id="g93">
				<title
   id="title95">element:C1</title>
				<g
   id="g97">
					<title
   id="title99">package:0603-CAP</title>
				</g>
			</g>
			<g
   id="g101">
				<title
   id="title103">element:TEMP+</title>
				<g
   id="g105">
					<title
   id="title107">package:PETAL-SMALL-2SIDE</title>
					<g
   id="g109">
						<title
   id="title111">polygon</title>
						<path
   fill="#E8E8E8"
   d="M7.71,32.376l-0.902,0.495l-0.816,0.626l-0.71,0.745l-0.588,0.844L4.24,36.01l-0.306,0.982        L3.783,38.01l0.005,1.029l0.162,1.016l0.316,0.979l0.462,0.92l0.564,0.859l0.69,0.764l0.799,0.647l0.889,0.52l0.957,0.377        l1.003,0.227l1.026,0.07l1.025-0.087l1-0.243l0.95-0.394l0.88-0.534l-1.19-0.23l-1.145-0.397L11.1,42.975l-0.987-0.703        l-0.877-0.837l-0.749-0.953l-0.606-1.05l-0.451-1.125L7.144,37.13l-0.116-1.207l0.058-1.21l0.229-1.191L7.71,32.376"
   id="path113" />
					</g>
				</g>
			</g>
			<g
   id="g115">
				<title
   id="title117">element:TEMP-</title>
				<g
   id="g119">
					<title
   id="title121">package:PETAL-SMALL-2SIDE</title>
					<g
   id="g123">
						<title
   id="title125">polygon</title>
						<path
   fill="#E8E8E8"
   d="M35.149,8.504l0.023-1.028l-0.135-1.021l-0.29-0.987l-0.437-0.931l-0.574-0.854l-0.698-0.756        l-0.805-0.64l-0.894-0.51L30.38,1.409l-1.006-0.216l-1.027-0.06l-1.027,0.06l-1.006,0.216l-0.961,0.368l-0.894,0.51        l-0.805,0.64l-0.698,0.756l-0.574,0.854l-0.437,0.931l-0.289,0.987L21.52,7.475l0.023,1.028l0.794-0.915l0.917-0.793        l1.02-0.655l1.104-0.503l1.163-0.341l1.199-0.173h1.213l1.199,0.173l1.163,0.341l1.104,0.503l1.02,0.655l0.917,0.793        L35.149,8.504"
   id="path127" />
					</g>
				</g>
			</g>
			<g
   id="g129">
				<title
   id="title131">element:TEMP1</title>
				<g
   id="g133">
					<title
   id="title135">package:PETAL-NOHOLE-2SIDE</title>
					<g
   id="g137">
						<title
   id="title139">polygon</title>
						<path
   fill="#E8E8E8"
   d="M14.512,12.534L13.633,12l-0.95-0.394l-1-0.243l-1.025-0.087l-1.026,0.07l-1.003,0.227L7.671,11.95        l-0.889,0.519l-0.799,0.648l-0.69,0.764L4.728,14.74l-0.462,0.919L3.95,16.638l-0.162,1.016l-0.005,1.029l0.151,1.018        l0.306,0.982l0.453,0.924l0.588,0.844l0.71,0.745l0.816,0.626l0.902,0.495l-0.396-1.146L7.086,21.98l-0.058-1.21l0.116-1.207        l0.285-1.178l0.451-1.125l0.606-1.05l0.749-0.953l0.877-0.837l0.987-0.703l1.077-0.556l1.145-0.397L14.512,12.534"
   id="path141" />
					</g>
				</g>
			</g>
			<g
   id="g143">
				<title
   id="title145">element:TEMP2</title>
				<g
   id="g147">
					<title
   id="title149">package:PETAL-NOHOLE-2SIDE</title>
					<g
   id="g151">
						<title
   id="title153">polygon</title>
						<path
   fill="#E8E8E8"
   d="M21.544,48.189l-0.023,1.028l0.136,1.021l0.289,0.987l0.437,0.931l0.574,0.854l0.698,0.756l0.805,0.64        l0.894,0.51l0.961,0.368l1.006,0.216l1.027,0.06l1.027-0.06l1.006-0.216l0.961-0.368l0.894-0.51l0.805-0.64l0.698-0.756        l0.574-0.854l0.437-0.931l0.29-0.987l0.135-1.021l-0.023-1.028l-0.794,0.915l-0.917,0.793l-1.02,0.655l-1.104,0.503        l-1.163,0.341l-1.199,0.173H27.74l-1.199-0.173l-1.163-0.341l-1.104-0.503l-1.02-0.655l-0.917-0.793L21.544,48.189"
   id="path155" />
					</g>
				</g>
			</g>
			<g
   id="g157">
				<title
   id="title159">element:TEMP3</title>
				<g
   id="g161">
					<title
   id="title163">package:PETAL-NOHOLE-2SIDE</title>
					<g
   id="g165">
						<title
   id="title167">polygon</title>
						<path
   fill="#E8E8E8"
   d="M48.983,24.317l0.902-0.495l0.816-0.626l0.71-0.745L52,21.607l0.453-0.924l0.306-0.982l0.151-1.018        l-0.005-1.029l-0.162-1.016l-0.316-0.979l-0.462-0.919L51.4,13.881l-0.69-0.764l-0.799-0.648l-0.889-0.519l-0.956-0.377        l-1.004-0.227l-1.026-0.07l-1.025,0.087l-1,0.243L43.06,12l-0.88,0.534l1.19,0.23l1.145,0.397l1.077,0.556l0.987,0.703        l0.877,0.837l0.749,0.953l0.606,1.05l0.451,1.125l0.285,1.178l0.116,1.207l-0.058,1.21l-0.229,1.191L48.983,24.317"
   id="path169" />
					</g>
				</g>
			</g>
			<g
   id="g171">
				<title
   id="title173">element:TEMPS</title>
				<g
   id="g175">
					<title
   id="title177">package:PETAL-SMALL-2SIDE</title>
					<g
   id="g179">
						<title
   id="title181">polygon</title>
						<path
   fill="#E8E8E8"
   d="M42.18,44.159l0.88,0.534l0.95,0.394l1,0.243l1.025,0.087l1.026-0.07l1.004-0.227l0.956-0.377        l0.889-0.52l0.799-0.647l0.69-0.764l0.564-0.859l0.462-0.92l0.316-0.979l0.162-1.016l0.005-1.029l-0.151-1.018l-0.306-0.982        L52,35.086l-0.588-0.844l-0.71-0.745l-0.816-0.626l-0.902-0.495l0.396,1.146l0.229,1.191l0.058,1.21l-0.116,1.207        l-0.285,1.178l-0.451,1.125l-0.606,1.05l-0.749,0.953l-0.877,0.837l-0.987,0.703l-1.077,0.556l-1.145,0.397L42.18,44.159"
   id="path183" />
					</g>
				</g>
			</g>
			<g
   id="g185">
				<title
   id="title187">element:U$2</title>
				<g
   id="g189">
					<title
   id="title191">package:LOGO-LILYPAD</title>
				</g>
			</g>
			<g
   id="g193">
				<title
   id="title195">element:U1</title>
				<g
   id="g197">
					<title
   id="title199">package:SOT23-3</title>
				</g>
			</g>
		</g>
		<circle
   id="connector2pin"
   cx="9.6370001"
   cy="39.118"
   r="2.404"
   sodipodi:cx="9.6370001"
   sodipodi:cy="39.118"
   sodipodi:rx="2.404"
   sodipodi:ry="2.404"
   transform="translate(0.60056142,-22.060057)"
   style="fill:none;stroke:#9a916c;stroke-width:1.44000006" />
		
		<circle
   id="connector4pin"
   cx="47.055"
   cy="39.118"
   r="2.404"
   sodipodi:cx="47.055"
   sodipodi:cy="39.118"
   sodipodi:rx="2.404"
   sodipodi:ry="2.404"
   style="fill:none;stroke:#9a916c;stroke-width:1.44000006" />
		<g
   id="g204">
			
		</g>
		
	<path
   style="fill:url(#radialGradient3895);fill-opacity:1;fill-rule:nonzero;stroke:#505050;stroke-opacity:1;stroke-width:0.08135485000000001;stroke-miterlimit:4;stroke-dasharray:none"
   d="m 20.899539,20.058752 c 0,0.199009 -1.774612,0.360337 -3.963706,0.360337 -2.189094,0 -3.963706,-0.161328 -3.963706,-0.360337 0,-0.136801 1.09785,-0.29704 2.33319,-0.358066 0.302222,-0.01493 -0.01999,-0.06237 0.06398,-0.137469 -0.219762,-0.03126 3.18683,-0.03455 3.051029,-0.0064 -0.04742,0.07203 -0.111172,0.129768 0.191455,0.143869 1.281297,0.05971 2.287784,0.218203 2.287784,0.358091 z"
   id="path3118"
   inkscape:connector-curvature="0"
   sodipodi:nodetypes="ssssccsss"
   transform="matrix(3.7061264,0,0,40.767388,-34.623767,-789.1925)" /></g>
</g>
</svg>