<?xml version="1.0" encoding="UTF-8" standalone="no"?>
<!-- Generator: Adobe Illustrator 16.0.0, SVG Export Plug-In . SVG Version: 6.00 Build 0)  -->

<svg
   xmlns:dc="http://purl.org/dc/elements/1.1/"
   xmlns:cc="http://creativecommons.org/ns#"
   xmlns:rdf="http://www.w3.org/1999/02/22-rdf-syntax-ns#"
   xmlns:svg="http://www.w3.org/2000/svg"
   xmlns="http://www.w3.org/2000/svg"
   xmlns:sodipodi="http://sodipodi.sourceforge.net/DTD/sodipodi-0.dtd"
   xmlns:inkscape="http://www.inkscape.org/namespaces/inkscape"
   version="1.1"
   id="Ebene_1"
   x="0px"
   y="0px"
   width="36"
   height="20"
   viewBox="0 0 36.000001 19.999999"
   enable-background="new 0 0 14.4 36.004"
   xml:space="preserve"
   inkscape:version="0.48.2 r9819"
   sodipodi:docname="led.svg"
   inkscape:export-filename="/Users/avenix/Desktop/palette_led.png"
   inkscape:export-xdpi="125.00002"
   inkscape:export-ydpi="125.00002"><metadata
   id="metadata217"><rdf:RDF><cc:Work
       rdf:about=""><dc:format>image/svg+xml</dc:format><dc:type
         rdf:resource="http://purl.org/dc/dcmitype/StillImage" /><dc:title></dc:title></cc:Work></rdf:RDF></metadata><defs
   id="defs215" /><sodipodi:namedview
   pagecolor="#ffffff"
   bordercolor="#666666"
   borderopacity="1"
   objecttolerance="10"
   gridtolerance="10"
   guidetolerance="10"
   inkscape:pageopacity="0"
   inkscape:pageshadow="2"
   inkscape:window-width="640"
   inkscape:window-height="480"
   id="namedview213"
   showgrid="false"
   inkscape:zoom="6.5548269"
   inkscape:cx="10.446687"
   inkscape:cy="12.133356"
   inkscape:window-x="1496"
   inkscape:window-y="243"
   inkscape:window-maximized="0"
   inkscape:current-layer="Ebene_1" />
<desc
   id="desc3">Fritzing breadboard generated by brd2svg</desc>
<g
   id="breadboardbreadboard"
   transform="matrix(0,-1,1,0,0.02971265,16.978524)">
	<g
   id="icon">
		<path
   d="M 7.2,36.002 C 3.324,36.102 0.1,33.041 0,29.164 0,29.163 0,29.163 0,29.162 V 6.842 C 0.1,2.966 3.322,-0.096 7.199,0.002 H 7.2 c 3.877,-0.1 7.101,2.962 7.2,6.838 0,0.001 0,0.002 0,0.002 v 22.32 c -0.099,3.876 -3.32,6.938 -7.196,6.84 -10e-4,0 -0.003,0 -0.004,0 m -1.684,-5.76 c -0.001,0.93 0.753,1.684 1.683,1.685 0.93,0 1.685,-0.753 1.685,-1.683 0,-0.001 0,-0.002 0,-0.002 0,-0.93 -0.754,-1.684 -1.684,-1.685 -0.93,0.001 -1.684,0.755 -1.684,1.685 l 0,0 z m 0,-24.48 c -0.001,0.931 0.753,1.685 1.683,1.685 0.93,0.001 1.685,-0.753 1.685,-1.683 0,0 0,-0.001 0,-0.002 0,-0.93 -0.754,-1.684 -1.684,-1.684 -0.93,0 -1.684,0.754 -1.684,1.684 l 0,0 z"
   id="path7"
   inkscape:connector-curvature="0"
   style="fill:#b0938f" />
		<path
   d="m 7.2,1.565 0,0 C 3.658,1.475 0.716,4.272 0.625,7.811 v 20.383 c 0,0.001 0,0.001 0,0.002 0.092,3.54 3.036,6.335 6.575,6.244 10e-4,0 0.002,0 0.003,0 3.54,0.09 6.482,-2.706 6.572,-6.246 V 7.811 c 0,0 0,-0.001 0,-0.002 C 13.684,4.269 10.74,1.473 7.2,1.565 z m 1.684,28.679 c 0,0.93 -0.755,1.683 -1.685,1.683 -0.93,-0.001 -1.684,-0.755 -1.683,-1.685 0,-0.931 0.754,-1.685 1.684,-1.685 0.93,0.001 1.684,0.755 1.684,1.685 0,0 0,10e-4 0,0.002 z m 0,-24.48 c 0,0.93 -0.755,1.684 -1.685,1.683 -0.93,0 -1.684,-0.754 -1.683,-1.685 0,-0.93 0.754,-1.684 1.684,-1.684 0.93,0 1.684,0.754 1.684,1.684 0,0.001 0,0.002 0,0.002 z"
   id="path9"
   inkscape:connector-curvature="0"
   style="fill:#672e58" />
		<g
   id="g11">
			<title
   id="title13">layer 21</title>
			<g
   id="g15">
				<title
   id="title17">text:+</title>
				<text
   transform="translate(1.0798,27.3625)"
   font-size="4.6771"
   id="text19"
   style="font-size:4.67710018px;fill:#ffffff;font-family:OCRA">+</text>


			</g>
			<g
   id="g21">
				<title
   id="title23">text:-</title>
				<text
   transform="translate(9.7195,12.6028)"
   font-size="4.6771"
   id="text25"
   style="font-size:4.67710018px;fill:#ffffff;font-family:OCRA">-</text>


			</g>
			<g
   id="g27">
				<title
   id="title29">element:LED+</title>
				<g
   id="g31">
					<title
   id="title33">package:PETAL-SMALL</title>
				</g>
			</g>
			<g
   id="g35">
				<title
   id="title37">element:LED-</title>
				<g
   id="g39">
					<title
   id="title41">package:PETAL-SMALL</title>
				</g>
			</g>
			<g
   id="g43">
				<title
   id="title45">element:LOGO1</title>
				<g
   id="g47">
					<title
   id="title49">package:LOGO-L</title>
				</g>
			</g>
			<g
   id="g51">
				<title
   id="title53">element:R</title>
				<g
   id="g55">
					<title
   id="title57">package:0603-RES</title>
				</g>
			</g>
		</g>
		<g
   id="g59">
			<title
   id="title61">layer 1</title>
			<g
   id="g63">
				<title
   id="title65">element:LED</title>
				<g
   id="g67">
					<title
   id="title69">package:LED-1206</title>
				</g>
			</g>
			<g
   id="g71">
				<title
   id="title73">element:LED+</title>
				<g
   id="g75">
					<title
   id="title77">package:PETAL-SMALL</title>
					<g
   id="g79">
						<title
   id="title81">polygon</title>
						<path
   d="m 0.397,28.541 -0.023,1.029 0.136,1.02 0.289,0.987 0.437,0.932 0.574,0.854 0.698,0.756 0.805,0.641 0.894,0.51 0.961,0.367 1.006,0.216 1.027,0.06 1.027,-0.06 1.006,-0.216 0.961,-0.367 0.894,-0.51 0.805,-0.641 0.698,-0.756 0.574,-0.854 0.437,-0.932 0.29,-0.987 0.135,-1.02 -0.023,-1.029 -0.794,0.916 -0.917,0.793 -1.02,0.654 -1.104,0.503 -1.163,0.342 -1.199,0.172 H 6.594 L 5.395,31.749 4.232,31.407 3.128,30.904 2.108,30.25 1.191,29.457 0.397,28.541"
   id="path83"
   inkscape:connector-curvature="0"
   style="fill:#e8e8e8" />
					</g>
				</g>
			</g>
			<g
   id="g85">
				<title
   id="title87">element:LED-</title>
				<g
   id="g89">
					<title
   id="title91">package:PETAL-SMALL</title>
					<g
   id="g93">
						<title
   id="title95">polygon</title>
						<path
   d="M 14.003,7.463 14.026,6.435 13.891,5.414 13.601,4.427 13.164,3.495 12.59,2.641 11.892,1.885 11.087,1.244 10.193,0.734 9.233,0.368 8.227,0.153 7.2,0.093 6.173,0.153 5.167,0.368 4.206,0.736 3.312,1.246 2.508,1.886 1.809,2.642 1.235,3.495 0.799,4.427 0.51,5.414 0.374,6.435 0.397,7.463 1.191,6.548 2.108,5.755 3.128,5.1 4.232,4.597 5.395,4.255 6.594,4.083 h 1.213 l 1.199,0.172 1.163,0.342 1.103,0.503 1.02,0.655 0.917,0.793 0.794,0.915"
   id="path97"
   inkscape:connector-curvature="0"
   style="fill:#e8e8e8" />
					</g>
				</g>
			</g>
			<g
   id="g99">
				<title
   id="title101">element:LOGO1</title>
				<g
   id="g103">
					<title
   id="title105">package:LOGO-L</title>
				</g>
			</g>
			<g
   id="g107">
				<title
   id="title109">element:R</title>
				<g
   id="g111">
					<title
   id="title113">package:0603-RES</title>
				</g>
			</g>
		</g>
		<circle
   id="connector2pin"
   cx="7.1999998"
   cy="30.242001"
   r="2.404"
   sodipodi:cx="7.1999998"
   sodipodi:cy="30.242001"
   sodipodi:rx="2.404"
   sodipodi:ry="2.404"
   style="fill:none;stroke:#9a916c;stroke-width:1.44000006"
   d="m 9.6039999,30.242001 c 0,1.327692 -1.0763075,2.404 -2.4040001,2.404 -1.3276926,0 -2.404,-1.076308 -2.404,-2.404 0,-1.327693 1.0763074,-2.404 2.404,-2.404 1.3276926,0 2.4040001,1.076307 2.4040001,2.404 z" />
		<circle
   id="connector3pin"
   cx="7.1999998"
   cy="5.7620001"
   r="2.404"
   sodipodi:cx="7.1999998"
   sodipodi:cy="5.7620001"
   sodipodi:rx="2.404"
   sodipodi:ry="2.404"
   style="fill:none;stroke:#9a916c;stroke-width:1.44000006"
   d="m 9.6039999,5.7620001 c 0,1.3276925 -1.0763075,2.404 -2.4040001,2.404 -1.3276926,0 -2.404,-1.0763075 -2.404,-2.404 0,-1.3276926 1.0763074,-2.4040001 2.404,-2.4040001 1.3276926,0 2.4040001,1.0763075 2.4040001,2.4040001 z" />
		<g
   id="g117">
			<g
   id="g119">
				<rect
   x="3.2249999"
   y="17.587"
   width="8.0629997"
   height="5.1110001"
   id="rect121"
   style="fill:#e6e6e6" />
				<path
   d="m 11.522,21.607 c 0,-0.099 -0.082,-0.181 -0.18,-0.181 h -0.531 c -0.1,0 -0.18,-0.08 -0.18,-0.18 v -2.863 c 0,-0.099 -0.082,-0.18 -0.182,-0.18 H 7.296 c -0.1,0 -0.181,0.081 -0.181,0.18 v 0.32 c 0,0.098 -0.081,0.18 -0.18,0.18 H 6.178 c -0.1,0 -0.181,0.08 -0.181,0.18 v 2.159 c 0,0.099 0.081,0.18 0.181,0.18 h 2.159 c 0.098,0 0.18,-0.081 0.18,-0.18 v -2.148 c 0,-0.099 0.08,-0.18 0.18,-0.18 h 1.066 c 0.1,0 0.18,0.081 0.18,0.18 v 0.035 c 0,0.099 -0.076,0.181 -0.172,0.181 -0.096,0 -0.172,0.08 -0.172,0.18 v 0.503 c 0,0.1 0.076,0.18 0.172,0.18 0.096,0 0.172,0.082 0.172,0.181 v 1.605 c 0,0.1 0.082,0.18 0.18,0.18 h 1.223 c 0.098,0 0.18,-0.08 0.18,-0.18 v -0.331 h -0.004 z"
   id="path123"
   inkscape:connector-curvature="0"
   style="fill:#d1c690" />
				<path
   d="m 12.038,20.142 c 0,-0.841 0.68,-1.521 1.518,-1.524 v -1.031 h -2.268 v 5.111 h 2.268 v -1.031 c -0.838,-0.005 -1.518,-0.686 -1.518,-1.525 z"
   id="path125"
   inkscape:connector-curvature="0"
   style="fill:#d1c690" />
				<path
   d="m 0.958,17.587 v 1.03 c 0.843,0 1.524,0.683 1.524,1.525 0,0.842 -0.683,1.524 -1.524,1.524 v 1.03 h 2.268 v -5.11 H 0.958 z"
   id="path127"
   inkscape:connector-curvature="0"
   style="fill:#d1c690" />
				<rect
   x="11.288"
   y="17.587"
   enable-background="new    "
   width="2.2679999"
   height="0.103"
   id="rect129"
   style="opacity:0.5;fill:#ffffff" />
				<rect
   x="3.2249999"
   y="17.587"
   enable-background="new    "
   width="8.0629997"
   height="0.103"
   id="rect131"
   style="opacity:0.5;fill:#ffffff" />
				<rect
   x="0.958"
   y="17.587"
   enable-background="new    "
   width="2.2679999"
   height="0.103"
   id="rect133"
   style="opacity:0.5;fill:#ffffff" />
				<rect
   x="11.288"
   y="22.596001"
   enable-background="new    "
   width="2.2679999"
   height="0.103"
   id="rect135"
   style="opacity:0.1" />
				<rect
   x="0.958"
   y="22.596001"
   enable-background="new    "
   width="2.2679999"
   height="0.103"
   id="rect137"
   style="opacity:0.1" />
				<path
   d="m 3.14,18.204 c -0.1,0 -0.18,0.081 -0.18,0.18 v 0.33 c 0,0.1 0.08,0.181 0.18,0.181 h 1.794 c 0.099,0 0.18,0.081 0.18,0.18 v 2.148 c 0,0.099 0.081,0.18 0.181,0.18 h 0.328 c 0.1,0 0.181,-0.081 0.181,-0.18 v -2.838 c 0,-0.099 -0.081,-0.18 -0.181,-0.18 H 3.14 z"
   id="path139"
   inkscape:connector-curvature="0"
   style="fill:#d1c690" />
				<g
   id="g141"
   style="opacity:0.25">
					<path
   d="m 5.997,19.131 c 0,-0.099 0.081,-0.18 0.181,-0.18 h 0.758 c 0.099,0 0.18,-0.08 0.18,-0.18 v -0.068 c 0,0.098 -0.081,0.18 -0.18,0.18 H 6.178 c -0.1,0 -0.181,0.08 -0.181,0.18 v 0.068 z"
   id="path143"
   inkscape:connector-curvature="0"
   style="fill:#ffffff" />
					<path
   d="m 10.632,18.451 c 0,-0.099 -0.08,-0.18 -0.18,-0.18 H 7.296 c -0.1,0 -0.181,0.081 -0.181,0.18 v -0.068 c 0,-0.099 0.081,-0.18 0.181,-0.18 h 3.156 c 0.1,0 0.18,0.081 0.18,0.18 v 0.068 z"
   id="path145"
   inkscape:connector-curvature="0"
   style="fill:#ffffff" />
					<path
   d="m 11.288,21.496 h -0.477 c -0.1,0 -0.18,-0.082 -0.18,-0.181 v -0.067 c 0,0.099 0.08,0.18 0.18,0.18 h 0.477 v 0.068 z"
   id="path147"
   inkscape:connector-curvature="0"
   style="fill:#ffffff" />
					<path
   d="m 3.225,18.272 h 2.397 c 0.1,0 0.181,0.081 0.181,0.18 v -0.068 c 0,-0.099 -0.081,-0.18 -0.181,-0.18 H 3.225 v 0.068 z"
   id="path149"
   inkscape:connector-curvature="0"
   style="fill:#ffffff" />
				</g>
				<g
   id="g151">
					<path
   d="m 11.288,22.209 h -1.166 c -0.1,0 -0.18,-0.082 -0.18,-0.181 v -0.091 c 0,0.1 0.08,0.18 0.18,0.18 h 1.166 v 0.092 z"
   id="path153"
   inkscape:connector-curvature="0"
   style="fill:#9d956c" />
					<path
   d="m 9.942,20.424 c 0,-0.101 -0.078,-0.182 -0.172,-0.182 -0.096,0 -0.174,-0.08 -0.174,-0.181 v -0.09 c 0,0.1 0.078,0.18 0.174,0.18 0.094,0 0.172,0.082 0.172,0.181 v 0.092 z"
   id="path155"
   inkscape:connector-curvature="0"
   style="fill:#9d956c" />
					<path
   d="m 9.942,19.164 c 0,-0.1 -0.082,-0.181 -0.18,-0.181 H 8.694 c -0.098,0 -0.18,0.081 -0.18,0.181 v -0.091 c 0,-0.099 0.082,-0.18 0.18,-0.18 h 1.068 c 0.098,0 0.18,0.081 0.18,0.18 v 0.091 z"
   id="path157"
   inkscape:connector-curvature="0"
   style="fill:#9d956c" />
					<path
   d="m 8.514,21.312 c 0,0.098 -0.08,0.18 -0.18,0.18 H 6.178 c -0.1,0 -0.181,-0.082 -0.181,-0.18 v -0.09 c 0,0.099 0.081,0.18 0.181,0.18 h 2.159 c 0.098,0 0.18,-0.081 0.18,-0.18 v 0.09 H 8.514 z"
   id="path159"
   inkscape:connector-curvature="0"
   style="fill:#9d956c" />
					<path
   d="m 5.803,21.312 c 0,0.098 -0.081,0.18 -0.181,0.18 H 5.294 c -0.1,0 -0.181,-0.082 -0.181,-0.18 v -0.09 c 0,0.099 0.081,0.18 0.181,0.18 h 0.328 c 0.1,0 0.181,-0.081 0.181,-0.18 v 0.09 z"
   id="path161"
   inkscape:connector-curvature="0"
   style="fill:#9d956c" />
					<path
   d="m 3.225,18.984 h 1.708 c 0.099,0 0.18,0.081 0.18,0.181 v -0.091 c 0,-0.099 -0.081,-0.18 -0.18,-0.18 H 3.225 v 0.09 z"
   id="path163"
   inkscape:connector-curvature="0"
   style="fill:#9d956c" />
				</g>
				<rect
   x="6.973"
   y="19.858999"
   width="0.565"
   height="0.565"
   id="rect165"
   style="fill:#cccccc" />
				<rect
   x="6.973"
   y="20.426001"
   width="0.565"
   height="0.106"
   id="rect167"
   style="fill:#b3b3b3" />
				<g
   id="g169">
					<g
   id="g171"
   style="opacity:0.5">
						<path
   d="M 11.288,22.698 H 3.225 v -0.695 c 0,-0.099 0.081,-0.18 0.18,-0.18 h 7.704 c 0.098,0 0.18,0.081 0.18,0.18 v 0.695 z"
   id="path173"
   inkscape:connector-curvature="0"
   style="fill:#e6e6e6" />
					</g>
					<path
   enable-background="new    "
   d="M 11.108,17.587 H 3.406 c -0.099,0 -0.18,0.081 -0.18,0.18 v 0.258 0.258 2.274 1.445 c 0,-0.099 0.081,-0.18 0.18,-0.18 h 7.703 c 0.1,0 0.18,0.081 0.18,0.18 v -1.446 -2.274 -0.258 -0.258 c -10e-4,-0.098 -0.083,-0.179 -0.181,-0.179 z"
   id="path175"
   inkscape:connector-curvature="0"
   style="opacity:0.5;fill:#f2f2f2" />
					<path
   enable-background="new    "
   d="m 3.225,22.108 c 0,-0.1 0.081,-0.18 0.18,-0.18 h 7.704 c 0.098,0 0.18,0.08 0.18,0.18 v -0.105 c 0,-0.099 -0.082,-0.18 -0.18,-0.18 H 3.406 c -0.099,0 -0.18,0.081 -0.18,0.18 l -10e-4,0.105 0,0 z"
   id="path177"
   inkscape:connector-curvature="0"
   style="opacity:0.1;fill:#4d4d4d" />
					<path
   enable-background="new    "
   d="m 3.319,18.935 v -0.649 c 0.026,-0.317 -0.021,-0.558 0.172,-0.558 1.097,0 7.059,0 7.329,0 0.297,0 0.313,0.137 -0.016,0.137 -0.236,0 -5.61,0.003 -6.422,0.003 -0.813,0 -0.926,0.217 -0.926,0.407 l 0.004,0.66 c 0,0.358 -0.141,0.356 -0.141,0 z"
   id="path179"
   inkscape:connector-curvature="0"
   style="opacity:0.55;fill:#ffffff" />
					<path
   enable-background="new    "
   d="m 11.202,22.243 c 0,0.14 0.021,0.279 -0.172,0.279 -1.096,0 -7.059,0 -7.329,0 -0.297,0 -0.313,-0.138 0.017,-0.138 0.235,0 5.609,-0.002 6.421,-0.002 1.063,10e-4 1.063,-0.139 1.063,-0.139 z"
   id="path181"
   inkscape:connector-curvature="0"
   style="opacity:0.02999998" />
				</g>
				<rect
   x="3.2249999"
   y="22.596001"
   enable-background="new    "
   width="8.0629997"
   height="0.103"
   id="rect183"
   style="opacity:0.28999999;fill:#cccccc" />
			</g>
		</g>
	</g>
	<g
   id="g185">
		<g
   id="g187">
			<g
   id="g189">
				<rect
   x="4.9099998"
   y="12.733"
   width="4.8569999"
   height="1.728"
   id="rect191"
   style="fill:#333333" />
				<rect
   x="4.9099998"
   y="12.733"
   enable-background="new    "
   width="4.8569999"
   height="0.028000001"
   id="rect193"
   style="opacity:0.2;fill:#ffffff" />
				<rect
   x="4.9099998"
   y="14.442"
   enable-background="new    "
   width="4.8569999"
   height="0.018999999"
   id="rect195"
   style="opacity:0.2" />
			</g>
			<g
   id="g197">
				<path
   d="m 9.062,12.733 0,0 0,0 H 9.005 l 0,0 c -0.049,0.153 -0.082,0.485 -0.082,0.656 0,0.177 0.03,0.859 0.082,1.02 l 0,0 0,0 h 0.747 v -1.676 h -0.69 z"
   id="path199"
   inkscape:connector-curvature="0"
   style="fill:#dcdcdc" />
				<path
   d="M 5.669,12.796 V 12.733 H 4.924 v 1.676 H 5.67 c 0.054,-0.161 0.118,-0.84 0.118,-1.02 0,-0.211 -0.046,-0.409 -0.119,-0.593 z"
   id="path201"
   inkscape:connector-curvature="0"
   style="fill:#dcdcdc" />
				<path
   d="M 9.756,14.473 H 9.01 L 9.005,14.409 h 0.747 l 0.004,0.064 z"
   id="path203"
   inkscape:connector-curvature="0"
   style="fill:#999999" />
				<path
   d="M 4.928,14.474 H 5.674 L 5.67,14.409 H 4.924 l 0.004,0.065 z"
   id="path205"
   inkscape:connector-curvature="0"
   style="fill:#999999" />
				<rect
   x="4.9239998"
   y="12.733"
   enable-background="new    "
   width="0.74599999"
   height="0.028000001"
   id="rect207"
   style="opacity:0.5;fill:#ffffff" />
				<rect
   x="9.0059996"
   y="12.733"
   enable-background="new    "
   width="0.74699998"
   height="0.028000001"
   id="rect209"
   style="opacity:0.5;fill:#ffffff" />
				<line
   x1="5.3740001"
   y1="14.461"
   x2="5.3740001"
   y2="14.461"
   id="line211"
   style="fill:none" />
			</g>
		</g>
	</g>
</g>
</svg>