<?xml version="1.0" encoding="UTF-8" standalone="no"?>
<!-- Generator: Adobe Illustrator 16.0.0, SVG Export Plug-In . SVG Version: 6.00 Build 0)  -->

<svg
   xmlns:dc="http://purl.org/dc/elements/1.1/"
   xmlns:cc="http://creativecommons.org/ns#"
   xmlns:rdf="http://www.w3.org/1999/02/22-rdf-syntax-ns#"
   xmlns:svg="http://www.w3.org/2000/svg"
   xmlns="http://www.w3.org/2000/svg"
   xmlns:sodipodi="http://sodipodi.sourceforge.net/DTD/sodipodi-0.dtd"
   xmlns:inkscape="http://www.inkscape.org/namespaces/inkscape"
   version="1.1"
   x="0px"
   y="0px"
   width="800px"
   height="800px"
   viewBox="0 0 800 800"
   enable-background="new 0 0 800 800"
   xml:space="preserve"
   id="svg2"
   inkscape:version="0.48.2 r9819"
   sodipodi:docname="BLEFirmataLogo_20140508.svg"
   inkscape:export-filename="/Users/avenix/Desktop/TangoHapps/icon_58.png"
   inkscape:export-xdpi="6.5250001"
   inkscape:export-ydpi="6.5250001"><metadata
   id="metadata51"><rdf:RDF><cc:Work
       rdf:about=""><dc:format>image/svg+xml</dc:format><dc:type
         rdf:resource="http://purl.org/dc/dcmitype/StillImage" /><dc:title></dc:title></cc:Work></rdf:RDF></metadata><defs
   id="defs49" /><sodipodi:namedview
   pagecolor="#ffffff"
   bordercolor="#666666"
   borderopacity="1"
   objecttolerance="10"
   gridtolerance="10"
   guidetolerance="10"
   inkscape:pageopacity="0"
   inkscape:pageshadow="2"
   inkscape:window-width="1007"
   inkscape:window-height="759"
   id="namedview47"
   showgrid="false"
   inkscape:zoom="0.295"
   inkscape:cx="400"
   inkscape:cy="400"
   inkscape:window-x="1862"
   inkscape:window-y="233"
   inkscape:window-maximized="0"
   inkscape:current-layer="svg2" />
<g
   id="Ebene_6">
	<rect
   fill="#00979C"
   width="800"
   height="800"
   id="rect5" />
</g>
<g
   id="Ebene_4">
	<path
   fill="#FFFFFF"
   d="M565.328,154.92L430,287.845V0h-88v278.236L161.091,96.064l-59.325,60.457l227.781,229.817L101.664,609.749   l60.512,60.857L343,496.843V800h190.642l150.543-179.841L453.217,384.737l231.369-225.013L544.269,0h-112.52L565.328,154.92z    M566.129,625.765L430,789.92V489.636L566.129,625.765z"
   id="path8" />
</g>
<g
   id="Ebene_3">
	<g
   id="g11">
		<path
   fill="#DFDED8"
   d="M167,383.73v132.227c0,0,0.346,17.024,7.704,17.436c7.358,0.413,12.601-10.736,12.601-18.996    c0-8.258,2.666-98.7,2.666-98.7L167,383.73z"
   id="path13" />
		<path
   fill="#666666"
   d="M660.438,263.943c-6.828-4.964-130.631-89.509-145.684-98.418c-5.821-3.444-18.857-1.938-30.031,2.407    S183.362,299.304,179.299,300.856c-7.815,2.987-5.547,10.609,2.282,14.96c7.829,4.349,43.931,30.446,43.931,30.446    s22.619-4.35,35.233,0c12.614,4.351,20.008,11.309,18.704,19.14c-1.305,7.829-6.509,10.203-8.746,13.874    c3.045,2.609,57.462,40.062,59.202,41.366c1.738,1.306,3.044,3.045,8.264,0c5.219-3.045,313.175-143.103,318.394-145.278    C661.782,273.189,665.256,267.376,660.438,263.943z"
   id="path15" />
		<path
   fill="#474747"
   d="M660.438,263.943c4.817,3.433,1.344,9.247-3.876,11.421c-5.219,2.175-313.174,142.233-318.394,145.278    c-5.22,3.045-6.526,1.306-8.264,0c-1.74-1.304-56.157-38.757-59.202-41.366c2.237-3.671,7.441-6.045,8.746-13.874    c1.305-7.831-6.09-14.789-18.704-19.14c-12.614-4.35-35.233,0-35.233,0s-36.102-26.097-43.931-30.446    c-7.83-4.351-8.918-9.135-2.282-14.96c0,0-8.372,4.675-9.698,12.414c-1.578,9.198-2.995,29.842-5.348,40.117    c-2.368,10.34-4.585,12.65-4.585,12.65s159.627,116.115,165.101,120.274c5.253,3.992,8.276,4.276,15.446,0.907    c12.896-6.062,346.107-160.522,346.107-160.522s-4.281-2.03-5.674-7.257c-3.257-12.235-6.826-27.321-8.565-35.586    C669.6,272.06,666.473,267.624,660.438,263.943z"
   id="path17" />
		<path
   fill="#474747"
   d="M686.322,326.696c0,0-333.211,154.46-346.107,160.522c-7.17,3.369-10.193,3.085-15.446-0.907    c-5.474-4.159-165.101-120.274-165.101-120.274c5.296,8.623,5.474,11.965,7.957,21.873c2.483,9.904,4.984,24.022,6.031,28.247    c1.287,5.192,4.438,10.946,10.385,15.074c6.381,4.433,130.577,94.924,136.675,98.825c8.11,5.191,14.909,12.729,25.439,7.844    c7.556-3.503,323.173-149.512,326.897-151.374s4.346-7.356,4.966-12.371C678.64,369.144,680.817,336.708,686.322,326.696z"
   id="path19" />
		<path
   fill="#333333"
   d="M225.7,346.021c0,0,22.524-4.229,35.139,0.12c12.614,4.351,19.961,11.37,18.656,19.201    c-1.305,7.83-6.531,10.234-8.769,13.903c0,0-0.92,6.135-1.874,13.479c-3.678-17.107-15.564-18.07-22.198-18.486    c-6.115-0.382-14.655,0.423-20.655,3.906V346"
   id="path21" />
		<path
   fill="#333333"
   d="M268.841,392.739c-1.268,9.756-1.524,10.097-1.524,10.097l-41.691-24.692    c6.052-3.483,14.722-4.281,20.836-3.899C253.095,374.661,265.163,375.63,268.841,392.739z"
   id="path23" />
		<g
   id="g25">
			<path
   fill="#DFDED8"
   d="M360.813,470.375l40.742-18.4c0,0,8.536,7.821,15.66,15.213c9.311,9.66,8.362,15.702,9.906,25.53     c2.163,13.78,3.349,70.313,3.349,70.313s-6.66,1.037-8.211,1.968c-1.553,0.931-4.346,2.482-4.346,7.759     c0,5.278,6.208,111.74,6.519,114.534c0.311,2.793-2.795,15.829-9.001,17.382c-6.209,1.551-13.968-14.589-14.589-20.176     c-0.621-5.587-14.068-156.041-14.379-162.871c-0.311-6.828-1.14-24.915-9.211-33.917     C369.928,479.538,360.813,470.375,360.813,470.375z"
   id="path27" />
			<path
   fill="#DFDED8"
   d="M437.467,437.738l57.267-27.004c0,0,6.52,6.52,11.641,11.174c5.122,4.656,10.243,11.174,12.569,23.279     c2.328,12.105,3.261,73.33,3.261,73.33l-8.029,2.08c0,0-7.336,2.344-6.404,10.725c0.931,8.379,7.915,100.565,8.38,104.291     c0.467,3.725-2.793,20.951-8.38,22.347c-5.586,1.397-14.898-8.38-15.83-18.622c-0.931-10.244-6.301-80.192-7.081-85.68     c-0.924-6.501-1.033-14.613-6.938-14.391c-4.484,0.168-7.243,0.281-7.243,0.281s-12.26-66.891-13.192-72.013     c-0.931-5.121-0.465-12.032-5.121-15.562C447.709,448.447,437.467,437.738,437.467,437.738z"
   id="path29" />
			<path
   fill="#DFDED8"
   d="M531.516,395.836l57.267-27.004c0,0,6.519,6.52,11.64,11.173c5.121,4.656,10.242,11.174,12.57,23.281     c2.328,12.104,3.261,73.329,3.261,73.329l-8.03,2.08c0,0-7.335,2.344-6.403,10.723c0.931,8.382,7.914,100.566,8.38,104.291     c0.465,3.726-2.794,20.952-8.38,22.35c-5.588,1.396-14.899-8.381-15.83-18.624c-0.933-10.243-6.304-80.192-7.081-85.679     c-0.924-6.502-1.033-14.613-6.938-14.391c-4.483,0.167-7.242,0.28-7.242,0.28s-12.26-66.891-13.192-72.013     c-0.931-5.121-0.466-12.031-5.121-15.561C541.758,406.545,531.516,395.836,531.516,395.836z"
   id="path31" />
			<path
   fill="#DFDED8"
   d="M621.528,354.244l33.521-17.381c0,0,2.482,1.242,11.174,8.69c8.692,7.45,12.416,13.036,14.899,23.279     s16.761,176.612,16.761,176.612s2.003,24.896-6.827,26.694c-10.672,2.173-16.4-13.646-16.4-27.924     c0-14.307-5.557-79.318-5.949-83.196c-0.502-4.99-3.278-9.891-7.918-9.234c-6.643,0.939-8.426,1.303-8.426,1.303     s-8.555-59.18-9.797-66.628c-1.242-7.449-2.939-15.678-10.453-22.374C625.3,358.012,621.528,354.244,621.528,354.244z"
   id="path33" />
			<path
   fill="#F2F2F2"
   d="M426.416,487.411c-0.773-6.338-1.536-11.409-7.295-18.128l-41.233,19.179     c3.905,4.818,5.989,11.839,7.13,18.396L426.416,487.411z"
   id="path35" />
			<path
   fill="#F2F2F2"
   d="M458.376,472.398l60.328-28.34c-1.684-7.902-4.584-13.342-7.864-17.432l-57.168,26.587     c3.254,3.744,2.983,9.745,3.814,14.322C457.608,468.202,457.923,469.923,458.376,472.398z"
   id="path37" />
			<path
   fill="#F2F2F2"
   d="M551.535,425.633c0.085,0.459,0.259,1.416,0.506,2.768l60.235-28.296     c-1.938-7.642-5.07-12.811-8.501-16.701l-57.354,26.673C551.069,413.607,550.604,420.516,551.535,425.633z"
   id="path39" />
			<path
   fill="#F2F2F2"
   d="M680.877,367.881c-1.769-6.864-4.191-11.625-8.476-16.395l-36.354,16.907     c4.119,5.569,5.451,11.762,6.426,17.527L680.877,367.881z"
   id="path41" />
		</g>
		<g
   id="g43">
			<path
   d="M505.538,163.627c3.777,0,7.014,0.595,9.217,1.898c15.053,8.909,138.855,93.454,145.684,98.418     c6.034,3.681,9.161,8.117,11.645,19.911c1.739,8.265,5.309,23.351,8.565,35.586c1.393,5.227,5.674,7.257,5.674,7.257     c-3.73,6.787-5.934,23.872-7.158,35.74c0.747,1.941,1.389,4.042,1.959,6.396c2.483,10.244,16.761,176.612,16.761,176.612     s2.003,24.896-6.827,26.694c-0.668,0.136-1.314,0.201-1.943,0.201c-9.421,0-14.457-14.741-14.457-28.125     c0-14.307-5.557-79.318-5.949-83.196c-0.472-4.687-2.948-9.294-7.092-9.294c-0.269,0-0.544,0.02-0.826,0.06     c-6.643,0.939-8.426,1.303-8.426,1.303s-4.854-33.575-7.779-53.329c-8.662,4.017-18.975,8.795-30.473,14.121     c1.513,21.472,2.142,62.736,2.142,62.736l-8.03,2.08c0,0-7.335,2.344-6.403,10.723c0.931,8.382,7.914,100.566,8.38,104.291     c0.465,3.726-2.794,20.952-8.38,22.35c-0.36,0.09-0.736,0.134-1.124,0.134c-5.63,0-13.835-9.176-14.706-18.758     c-0.933-10.243-6.304-80.192-7.081-85.679c-0.911-6.415-1.029-14.396-6.703-14.396c-0.077,0-0.156,0.002-0.235,0.005     c-4.483,0.167-7.242,0.28-7.242,0.28s-6.382-34.818-10.286-56.137c-11.198,5.183-22.698,10.507-34.271,15.864     c1.435,21.852,2.033,61.145,2.033,61.145l-8.029,2.08c0,0-7.336,2.344-6.404,10.725c0.931,8.379,7.915,100.565,8.38,104.291     c0.467,3.725-2.793,20.951-8.38,22.347c-0.36,0.09-0.736,0.134-1.125,0.134c-5.628,0-13.834-9.175-14.705-18.756     c-0.931-10.244-6.301-80.192-7.081-85.68c-0.911-6.414-1.029-14.396-6.702-14.396c-0.077,0-0.156,0.002-0.235,0.005     c-4.484,0.168-7.243,0.281-7.243,0.281s-6.089-33.228-10.011-54.639c-11.346,5.251-22.346,10.341-32.751,15.156     c1.655,20.208,2.553,62.965,2.553,62.965s-6.66,1.037-8.211,1.968c-1.553,0.931-4.346,2.482-4.346,7.759     c0,5.278,6.208,111.74,6.519,114.534c0.311,2.793-2.798,15.829-9.005,17.382c-0.282,0.07-0.567,0.104-0.855,0.104     c-6.044,0-13.145-14.948-13.737-20.28c-0.622-5.587-14.076-156.041-14.387-162.871c-0.03-0.665-0.083-1.465-0.13-2.324     c-23.249,10.757-38.626,17.857-40.222,18.598c-2.394,1.11-4.598,1.579-6.671,1.579c-7.042,0-12.562-5.412-18.829-9.423     c-5.48-3.506-106.433-76.925-131.451-94.992c-0.778,27.056-2.328,73.523-2.328,79.332c0,8.11-5.526,19.007-12.692,19.007     c-0.132,0-0.264-0.003-0.397-0.011c-7.358-0.411-8.679-17.436-8.679-17.436V385.191c-1.273-7.878-1.559-11.376-6.336-19.154     c0,0,3.172-2.31,5.54-12.65c2.353-10.275,3.77-30.919,5.348-40.117c0.69-4.028,3.287-7.216,5.622-9.356     c0.756-1.233,2.085-2.297,4.077-3.058c4.063-1.552,294.25-128.58,305.424-132.925     C491.669,165.231,499.334,163.627,505.538,163.627 M505.538,154.627c-7.267,0-16.042,1.792-24.076,4.917     c-6.965,2.708-115.735,50.193-203.133,88.348c-51.188,22.346-99.545,43.457-102.305,44.583c-3.201,1.234-5.814,3.129-7.643,5.526     c-4.163,4.064-6.801,8.799-7.65,13.75c-0.686,4-1.319,9.793-1.99,15.926c-0.927,8.487-1.979,18.105-3.26,23.703     c-1.131,4.94-2.354,7.201-2.812,7.928l-5.978,4.352l4.354,7.09c3.501,5.7,3.843,7.853,4.859,14.246l0.146,0.913v130.051v0.349     l0.027,0.348c0.041,0.529,0.444,5.324,1.91,10.375c3.721,12.823,11.146,15.121,15.24,15.351c0.299,0.017,0.6,0.024,0.899,0.024     c6.452,0,12.546-3.929,16.719-10.779c3.114-5.111,4.973-11.552,4.973-17.228c0-3.516,0.64-24.104,1.258-44.015     c0.188-6.041,0.378-12.185,0.558-18.062c6.674,4.837,14.664,10.633,23.289,16.889c51.402,37.285,91.023,65.998,94.823,68.429     c1.251,0.801,2.517,1.7,3.856,2.652c5.134,3.648,11.522,8.189,19.823,8.189c3.486,0,7.004-0.812,10.458-2.415     c0.509-0.236,2.427-1.122,5.558-2.569c4.902-2.266,12.773-5.902,22.875-10.575c3.022,35.964,12.958,147.048,13.573,152.573     c0.56,5.039,3.595,11.621,6.023,15.727c4.93,8.333,10.534,12.559,16.659,12.559c1.025,0,2.047-0.126,3.038-0.373     c12.518-3.132,16.314-21.682,15.775-27.032c-0.388-4.372-6.353-106.646-6.47-113.485c1.259-0.312,3.363-0.718,4.939-0.964     l7.778-1.211l-0.165-7.87c-0.033-1.591-0.762-35.738-2.129-57.22l7.029-3.253l9.54-4.415l7.918,43.216l1.409,7.691l7.812-0.321     c0.007,0,1.48-0.061,4.021-0.158c0.216,1.242,0.396,2.718,0.525,3.784c0.114,0.933,0.228,1.859,0.355,2.758     c0.455,3.2,2.979,34.917,4.65,55.904c1.091,13.692,2.032,25.518,2.378,29.323c1.26,13.849,12.762,26.941,23.668,26.941     c1.128,0,2.241-0.136,3.31-0.403c5.852-1.461,10.076-6.855,12.91-16.491c1.413-4.804,2.709-11.768,2.215-15.705     c-0.209-1.826-1.788-22.026-3.314-41.562c-2.22-28.409-4.515-57.786-5.05-62.604c-0.089-0.801,0.05-0.934,0.11-0.99     c0.07-0.067,0.165-0.139,0.265-0.199l7.37-1.91l6.85-1.774l-0.107-7.074c-0.022-1.471-0.518-33.266-1.688-55.416l18.167-8.409     c3.742,20.426,8.193,44.712,8.193,44.712l1.409,7.691l7.812-0.321c0.007,0,1.481-0.061,4.021-0.158     c0.216,1.243,0.396,2.72,0.525,3.786c0.114,0.932,0.228,1.858,0.355,2.756c0.45,3.184,2.962,34.722,4.624,55.592     c1.103,13.846,2.055,25.803,2.404,29.638c1.258,13.848,12.761,26.941,23.669,26.941c1.126,0,2.238-0.136,3.307-0.402     c5.854-1.465,10.077-6.86,12.911-16.494c1.412-4.802,2.708-11.764,2.217-15.701c-0.212-1.839-1.794-22.094-3.324-41.681     c-2.216-28.355-4.507-57.677-5.041-62.489c-0.089-0.8,0.05-0.933,0.109-0.989c0.071-0.066,0.165-0.138,0.265-0.198l7.371-1.909     l6.85-1.774l-0.107-7.075c-0.023-1.543-0.543-34.854-1.775-57.02c4.914-2.276,9.58-4.438,13.959-6.468     c2.756,18.803,5.98,41.109,6.021,41.384l1.363,9.434l9.341-1.903c0.029-0.005,1.328-0.256,5.452-0.859     c0.058,0.262,0.107,0.554,0.14,0.873c0.465,4.587,5.904,68.542,5.904,82.296c0,8.322,1.6,16.422,4.503,22.808     c5.665,12.457,14.308,14.317,18.954,14.317c1.235,0,2.493-0.129,3.738-0.382c8.005-1.631,12.678-9.033,13.891-22.003     c0.668-7.146,0.136-13.946,0.112-14.232c-2.397-27.943-14.468-167.626-16.984-178.011c-0.466-1.92-0.974-3.698-1.54-5.378     c2.375-21.975,4.889-28.499,5.879-30.302l5.063-9.211l-8.916-3.192c-0.267-0.203-0.795-0.691-1.012-1.505     c-3.299-12.394-6.818-27.346-8.454-35.123c-2.808-13.33-7.015-20.3-15.465-25.556c-8.891-6.318-130.632-89.518-146.087-98.665     C515.803,155.688,511.159,154.627,505.538,154.627L505.538,154.627z"
   id="path45" />
		</g>
	</g>
</g>
</svg>